0
SECTION
2
HEADER
9
$ACADVER
1
AC1015
9
$INSUNITS
70
4
9
$DWGCODEPAGE
3
ANSI_1250
9
$LWDISPLAY
290
1
9
$HANDSEED
5
3E8
0
ENDSEC
0
SECTION
2
TABLES
0
TABLE
2
STYLE
5
3C5
100
AcDbSymbolTable
70
1
0
STYLE
5
3C6
100
AcDbSymbolTableRecord
100
AcDbTextStyleTableRecord
2
OPTICORS
70
0
40
0
41
1
50
0
71
0
42
2.5
3
arial.ttf
4

0
ENDTAB
0
TABLE
2
LAYER
5
3C7
100
AcDbSymbolTable
70
32
0
LAYER
5
3C8
100
AcDbSymbolTableRecord
100
AcDbLayerTableRecord
2
0
70
0
62
7
6
CONTINUOUS
370
0
0
LAYER
5
3C9
100
AcDbSymbolTableRecord
100
AcDbLayerTableRecord
2
OPTICORS_HLAVICKA
70
0
62
7
6
CONTINUOUS
370
0
0
LAYER
5
3CA
100
AcDbSymbolTableRecord
100
AcDbLayerTableRecord
2
OPTICORS_NAKLADACI_MUSTEK_M1_BETON
70
0
62
7
6
CONTINUOUS
370
0
0
LAYER
5
3CB
100
AcDbSymbolTableRecord
100
AcDbLayerTableRecord
2
OPTICORS_NAKLADACI_MUSTEK_M1_KOTY
70
0
62
7
6
CONTINUOUS
370
0
0
LAYER
5
3CC
100
AcDbSymbolTableRecord
100
AcDbLayerTableRecord
2
OPTICORS_NAKLADACI_MUSTEK_M1_POPIS
70
0
62
7
6
CONTINUOUS
370
0
0
LAYER
5
3CD
100
AcDbSymbolTableRecord
100
AcDbLayerTableRecord
2
OPTICORS_NAKLADACI_MUSTEK_M1_VYZTUZ
70
0
62
8
6
CONTINUOUS
370
25
0
LAYER
5
3CE
100
AcDbSymbolTableRecord
100
AcDbLayerTableRecord
2
OPTICORS_POZNAMKA
70
0
62
9
6
CONTINUOUS
370
0
0
LAYER
5
3CF
100
AcDbSymbolTableRecord
100
AcDbLayerTableRecord
2
OPTICORS_RAMECEK
70
0
62
9
6
CONTINUOUS
370
0
0
LAYER
5
3D0
100
AcDbSymbolTableRecord
100
AcDbLayerTableRecord
2
OPTICORS_SLOUP_S1_BETON
70
0
62
7
6
CONTINUOUS
370
0
0
LAYER
5
3D1
100
AcDbSymbolTableRecord
100
AcDbLayerTableRecord
2
OPTICORS_SLOUP_S1_KOTY
70
0
62
7
6
CONTINUOUS
370
0
0
LAYER
5
3D2
100
AcDbSymbolTableRecord
100
AcDbLayerTableRecord
2
OPTICORS_SLOUP_S1_POPIS
70
0
62
7
6
CONTINUOUS
370
0
0
LAYER
5
3D3
100
AcDbSymbolTableRecord
100
AcDbLayerTableRecord
2
OPTICORS_SLOUP_S1_VYZTUZ
70
0
62
8
6
CONTINUOUS
370
25
0
LAYER
5
3D4
100
AcDbSymbolTableRecord
100
AcDbLayerTableRecord
2
OPTICORS_SLOUP_S2_BETON
70
0
62
7
6
CONTINUOUS
370
0
0
LAYER
5
3D5
100
AcDbSymbolTableRecord
100
AcDbLayerTableRecord
2
OPTICORS_SLOUP_S2_KOTY
70
0
62
7
6
CONTINUOUS
370
0
0
LAYER
5
3D6
100
AcDbSymbolTableRecord
100
AcDbLayerTableRecord
2
OPTICORS_SLOUP_S2_POPIS
70
0
62
7
6
CONTINUOUS
370
0
0
LAYER
5
3D7
100
AcDbSymbolTableRecord
100
AcDbLayerTableRecord
2
OPTICORS_SLOUP_S2_VYZTUZ
70
0
62
8
6
CONTINUOUS
370
25
0
LAYER
5
3D8
100
AcDbSymbolTableRecord
100
AcDbLayerTableRecord
2
OPTICORS_VAZNICE_A1_BETON
70
0
62
7
6
CONTINUOUS
370
0
0
LAYER
5
3D9
100
AcDbSymbolTableRecord
100
AcDbLayerTableRecord
2
OPTICORS_VAZNICE_A1_KOTY
70
0
62
7
6
CONTINUOUS
370
0
0
LAYER
5
3DA
100
AcDbSymbolTableRecord
100
AcDbLayerTableRecord
2
OPTICORS_VAZNICE_A1_POPIS
70
0
62
7
6
CONTINUOUS
370
0
0
LAYER
5
3DB
100
AcDbSymbolTableRecord
100
AcDbLayerTableRecord
2
OPTICORS_VAZNICE_A1_VYZTUZ
70
0
62
8
6
CONTINUOUS
370
25
0
LAYER
5
3DC
100
AcDbSymbolTableRecord
100
AcDbLayerTableRecord
2
OPTICORS_VAZNIK_A_BETON
70
0
62
7
6
CONTINUOUS
370
0
0
LAYER
5
3DD
100
AcDbSymbolTableRecord
100
AcDbLayerTableRecord
2
OPTICORS_VAZNIK_A_KOTY
70
0
62
7
6
CONTINUOUS
370
0
0
LAYER
5
3DE
100
AcDbSymbolTableRecord
100
AcDbLayerTableRecord
2
OPTICORS_VAZNIK_A_POPIS
70
0
62
7
6
CONTINUOUS
370
0
0
LAYER
5
3DF
100
AcDbSymbolTableRecord
100
AcDbLayerTableRecord
2
OPTICORS_VAZNIK_A_VYZTUZ
70
0
62
8
6
CONTINUOUS
370
25
0
LAYER
5
3E0
100
AcDbSymbolTableRecord
100
AcDbLayerTableRecord
2
OPTICORS_ZAKLADOVY_NOSNIK_T1_BETON
70
0
62
7
6
CONTINUOUS
370
0
0
LAYER
5
3E1
100
AcDbSymbolTableRecord
100
AcDbLayerTableRecord
2
OPTICORS_ZAKLADOVY_NOSNIK_T1_KOTY
70
0
62
7
6
CONTINUOUS
370
0
0
LAYER
5
3E2
100
AcDbSymbolTableRecord
100
AcDbLayerTableRecord
2
OPTICORS_ZAKLADOVY_NOSNIK_T1_POPIS
70
0
62
7
6
CONTINUOUS
370
0
0
LAYER
5
3E3
100
AcDbSymbolTableRecord
100
AcDbLayerTableRecord
2
OPTICORS_ZAKLADOVY_NOSNIK_T1_VYZTUZ
70
0
62
8
6
CONTINUOUS
370
25
0
LAYER
5
3E4
100
AcDbSymbolTableRecord
100
AcDbLayerTableRecord
2
OPTICORS_ZTUZIDLO_Z1_BETON
70
0
62
7
6
CONTINUOUS
370
0
0
LAYER
5
3E5
100
AcDbSymbolTableRecord
100
AcDbLayerTableRecord
2
OPTICORS_ZTUZIDLO_Z1_KOTY
70
0
62
7
6
CONTINUOUS
370
0
0
LAYER
5
3E6
100
AcDbSymbolTableRecord
100
AcDbLayerTableRecord
2
OPTICORS_ZTUZIDLO_Z1_POPIS
70
0
62
7
6
CONTINUOUS
370
0
0
LAYER
5
3E7
100
AcDbSymbolTableRecord
100
AcDbLayerTableRecord
2
OPTICORS_ZTUZIDLO_Z1_VYZTUZ
70
0
62
8
6
CONTINUOUS
370
25
0
ENDTAB
0
ENDSEC
0
SECTION
2
ENTITIES
0
LWPOLYLINE
5
100
100
AcDbEntity
8
OPTICORS_SLOUP_S1_BETON
100
AcDbPolyline
90
4
70
1
10
876.0000
20
-1071.0000
10
1276.0000
20
-1071.0000
10
1276.0000
20
-9071.0000
10
876.0000
20
-9071.0000
0
SOLID
5
101
100
AcDbEntity
8
OPTICORS_SLOUP_S1_BETON
100
AcDbTrace
10
801.0000
20
-996.0000
30
0.0
11
1351.0000
21
-996.0000
31
0.0
12
951.0000
22
-1146.0000
32
0.0
13
1201.0000
23
-1146.0000
33
0.0
0
SOLID
5
102
100
AcDbEntity
8
OPTICORS_SLOUP_S1_BETON
100
AcDbTrace
10
1351.0000
20
-996.0000
30
0.0
11
1351.0000
21
-9146.0000
31
0.0
12
1201.0000
22
-1146.0000
32
0.0
13
1201.0000
23
-8996.0000
33
0.0
0
SOLID
5
103
100
AcDbEntity
8
OPTICORS_SLOUP_S1_BETON
100
AcDbTrace
10
1351.0000
20
-9146.0000
30
0.0
11
801.0000
21
-9146.0000
31
0.0
12
1201.0000
22
-8996.0000
32
0.0
13
951.0000
23
-8996.0000
33
0.0
0
SOLID
5
104
100
AcDbEntity
8
OPTICORS_SLOUP_S1_BETON
100
AcDbTrace
10
801.0000
20
-9146.0000
30
0.0
11
801.0000
21
-996.0000
31
0.0
12
951.0000
22
-8996.0000
32
0.0
13
951.0000
23
-1146.0000
33
0.0
0
LINE
5
105
100
AcDbEntity
8
OPTICORS_SLOUP_S1_VYZTUZ
100
AcDbLine
10
896.0000
20
-1091.0000
11
896.0000
21
-9051.0000
0
LINE
5
106
100
AcDbEntity
8
OPTICORS_SLOUP_S1_VYZTUZ
100
AcDbLine
10
1256.0000
20
-1091.0000
11
1256.0000
21
-9051.0000
0
LINE
5
107
100
AcDbEntity
8
OPTICORS_SLOUP_S1_KOTY
100
AcDbLine
10
876.0000
20
-571.0000
11
1276.0000
21
-571.0000
0
LINE
5
108
100
AcDbEntity
8
OPTICORS_SLOUP_S1_KOTY
100
AcDbLine
10
876.0000
20
-548.5000
11
876.0000
21
-593.5000
0
LINE
5
109
100
AcDbEntity
8
OPTICORS_SLOUP_S1_KOTY
100
AcDbLine
10
861.0000
20
-586.0000
11
891.0000
21
-556.0000
0
LINE
5
10A
100
AcDbEntity
8
OPTICORS_SLOUP_S1_KOTY
100
AcDbLine
10
1276.0000
20
-548.5000
11
1276.0000
21
-593.5000
0
LINE
5
10B
100
AcDbEntity
8
OPTICORS_SLOUP_S1_KOTY
100
AcDbLine
10
1261.0000
20
-586.0000
11
1291.0000
21
-556.0000
0
MTEXT
5
10C
100
AcDbEntity
8
OPTICORS_SLOUP_S1_KOTY
100
AcDbMText
10
1076.0000
20
-490.0000
40
90.0000
71
5
1
400
7
OPTICORS
0
LINE
5
10D
100
AcDbEntity
8
OPTICORS_SLOUP_S1_KOTY
100
AcDbLine
10
376.0000
20
-1071.0000
11
376.0000
21
-9071.0000
0
LINE
5
10E
100
AcDbEntity
8
OPTICORS_SLOUP_S1_KOTY
100
AcDbLine
10
353.5000
20
-1071.0000
11
398.5000
21
-1071.0000
0
LINE
5
10F
100
AcDbEntity
8
OPTICORS_SLOUP_S1_KOTY
100
AcDbLine
10
361.0000
20
-1086.0000
11
391.0000
21
-1056.0000
0
LINE
5
110
100
AcDbEntity
8
OPTICORS_SLOUP_S1_KOTY
100
AcDbLine
10
353.5000
20
-9071.0000
11
398.5000
21
-9071.0000
0
LINE
5
111
100
AcDbEntity
8
OPTICORS_SLOUP_S1_KOTY
100
AcDbLine
10
361.0000
20
-9086.0000
11
391.0000
21
-9056.0000
0
MTEXT
5
112
100
AcDbEntity
8
OPTICORS_SLOUP_S1_KOTY
100
AcDbMText
10
295.0000
20
-5071.0000
40
90.0000
50
90.0000
71
5
1
8 000
7
OPTICORS
0
LWPOLYLINE
5
113
100
AcDbEntity
8
OPTICORS_SLOUP_S1_BETON
100
AcDbPolyline
90
4
70
1
10
2576.0000
20
-1071.0000
10
2976.0000
20
-1071.0000
10
2976.0000
20
-9071.0000
10
2576.0000
20
-9071.0000
0
SOLID
5
114
100
AcDbEntity
8
OPTICORS_SLOUP_S1_BETON
100
AcDbTrace
10
2501.0000
20
-996.0000
30
0.0
11
3051.0000
21
-996.0000
31
0.0
12
2651.0000
22
-1146.0000
32
0.0
13
2901.0000
23
-1146.0000
33
0.0
0
SOLID
5
115
100
AcDbEntity
8
OPTICORS_SLOUP_S1_BETON
100
AcDbTrace
10
3051.0000
20
-996.0000
30
0.0
11
3051.0000
21
-9146.0000
31
0.0
12
2901.0000
22
-1146.0000
32
0.0
13
2901.0000
23
-8996.0000
33
0.0
0
SOLID
5
116
100
AcDbEntity
8
OPTICORS_SLOUP_S1_BETON
100
AcDbTrace
10
3051.0000
20
-9146.0000
30
0.0
11
2501.0000
21
-9146.0000
31
0.0
12
2901.0000
22
-8996.0000
32
0.0
13
2651.0000
23
-8996.0000
33
0.0
0
SOLID
5
117
100
AcDbEntity
8
OPTICORS_SLOUP_S1_BETON
100
AcDbTrace
10
2501.0000
20
-9146.0000
30
0.0
11
2501.0000
21
-996.0000
31
0.0
12
2651.0000
22
-8996.0000
32
0.0
13
2651.0000
23
-1146.0000
33
0.0
0
LINE
5
118
100
AcDbEntity
8
OPTICORS_SLOUP_S1_KOTY
100
AcDbLine
10
2576.0000
20
-571.0000
11
2976.0000
21
-571.0000
0
LINE
5
119
100
AcDbEntity
8
OPTICORS_SLOUP_S1_KOTY
100
AcDbLine
10
2576.0000
20
-548.5000
11
2576.0000
21
-593.5000
0
LINE
5
11A
100
AcDbEntity
8
OPTICORS_SLOUP_S1_KOTY
100
AcDbLine
10
2561.0000
20
-586.0000
11
2591.0000
21
-556.0000
0
LINE
5
11B
100
AcDbEntity
8
OPTICORS_SLOUP_S1_KOTY
100
AcDbLine
10
2976.0000
20
-548.5000
11
2976.0000
21
-593.5000
0
LINE
5
11C
100
AcDbEntity
8
OPTICORS_SLOUP_S1_KOTY
100
AcDbLine
10
2961.0000
20
-586.0000
11
2991.0000
21
-556.0000
0
MTEXT
5
11D
100
AcDbEntity
8
OPTICORS_SLOUP_S1_KOTY
100
AcDbMText
10
2776.0000
20
-490.0000
40
90.0000
71
5
1
400
7
OPTICORS
0
LINE
5
11E
100
AcDbEntity
8
OPTICORS_SLOUP_S1_KOTY
100
AcDbLine
10
2076.0000
20
-1071.0000
11
2076.0000
21
-9071.0000
0
LINE
5
11F
100
AcDbEntity
8
OPTICORS_SLOUP_S1_KOTY
100
AcDbLine
10
2053.5000
20
-1071.0000
11
2098.5000
21
-1071.0000
0
LINE
5
120
100
AcDbEntity
8
OPTICORS_SLOUP_S1_KOTY
100
AcDbLine
10
2061.0000
20
-1086.0000
11
2091.0000
21
-1056.0000
0
LINE
5
121
100
AcDbEntity
8
OPTICORS_SLOUP_S1_KOTY
100
AcDbLine
10
2053.5000
20
-9071.0000
11
2098.5000
21
-9071.0000
0
LINE
5
122
100
AcDbEntity
8
OPTICORS_SLOUP_S1_KOTY
100
AcDbLine
10
2061.0000
20
-9086.0000
11
2091.0000
21
-9056.0000
0
MTEXT
5
123
100
AcDbEntity
8
OPTICORS_SLOUP_S1_KOTY
100
AcDbMText
10
1995.0000
20
-5071.0000
40
90.0000
50
90.0000
71
5
1
8 000
7
OPTICORS
0
LWPOLYLINE
5
124
100
AcDbEntity
8
OPTICORS_SLOUP_S1_BETON
100
AcDbPolyline
90
4
70
1
10
4276.0000
20
-1071.0000
10
4676.0000
20
-1071.0000
10
4676.0000
20
-1471.0000
10
4276.0000
20
-1471.0000
0
SOLID
5
125
100
AcDbEntity
8
OPTICORS_SLOUP_S1_BETON
100
AcDbTrace
10
4201.0000
20
-996.0000
30
0.0
11
4751.0000
21
-996.0000
31
0.0
12
4351.0000
22
-1146.0000
32
0.0
13
4601.0000
23
-1146.0000
33
0.0
0
SOLID
5
126
100
AcDbEntity
8
OPTICORS_SLOUP_S1_BETON
100
AcDbTrace
10
4751.0000
20
-996.0000
30
0.0
11
4751.0000
21
-1546.0000
31
0.0
12
4601.0000
22
-1146.0000
32
0.0
13
4601.0000
23
-1396.0000
33
0.0
0
SOLID
5
127
100
AcDbEntity
8
OPTICORS_SLOUP_S1_BETON
100
AcDbTrace
10
4751.0000
20
-1546.0000
30
0.0
11
4201.0000
21
-1546.0000
31
0.0
12
4601.0000
22
-1396.0000
32
0.0
13
4351.0000
23
-1396.0000
33
0.0
0
SOLID
5
128
100
AcDbEntity
8
OPTICORS_SLOUP_S1_BETON
100
AcDbTrace
10
4201.0000
20
-1546.0000
30
0.0
11
4201.0000
21
-996.0000
31
0.0
12
4351.0000
22
-1396.0000
32
0.0
13
4351.0000
23
-1146.0000
33
0.0
0
LINE
5
129
100
AcDbEntity
8
OPTICORS_SLOUP_S1_KOTY
100
AcDbLine
10
4276.0000
20
-571.0000
11
4676.0000
21
-571.0000
0
LINE
5
12A
100
AcDbEntity
8
OPTICORS_SLOUP_S1_KOTY
100
AcDbLine
10
4276.0000
20
-548.5000
11
4276.0000
21
-593.5000
0
LINE
5
12B
100
AcDbEntity
8
OPTICORS_SLOUP_S1_KOTY
100
AcDbLine
10
4261.0000
20
-586.0000
11
4291.0000
21
-556.0000
0
LINE
5
12C
100
AcDbEntity
8
OPTICORS_SLOUP_S1_KOTY
100
AcDbLine
10
4676.0000
20
-548.5000
11
4676.0000
21
-593.5000
0
LINE
5
12D
100
AcDbEntity
8
OPTICORS_SLOUP_S1_KOTY
100
AcDbLine
10
4661.0000
20
-586.0000
11
4691.0000
21
-556.0000
0
MTEXT
5
12E
100
AcDbEntity
8
OPTICORS_SLOUP_S1_KOTY
100
AcDbMText
10
4476.0000
20
-490.0000
40
90.0000
71
5
1
400
7
OPTICORS
0
LINE
5
12F
100
AcDbEntity
8
OPTICORS_SLOUP_S1_KOTY
100
AcDbLine
10
3776.0000
20
-1071.0000
11
3776.0000
21
-1471.0000
0
LINE
5
130
100
AcDbEntity
8
OPTICORS_SLOUP_S1_KOTY
100
AcDbLine
10
3753.5000
20
-1071.0000
11
3798.5000
21
-1071.0000
0
LINE
5
131
100
AcDbEntity
8
OPTICORS_SLOUP_S1_KOTY
100
AcDbLine
10
3761.0000
20
-1086.0000
11
3791.0000
21
-1056.0000
0
LINE
5
132
100
AcDbEntity
8
OPTICORS_SLOUP_S1_KOTY
100
AcDbLine
10
3753.5000
20
-1471.0000
11
3798.5000
21
-1471.0000
0
LINE
5
133
100
AcDbEntity
8
OPTICORS_SLOUP_S1_KOTY
100
AcDbLine
10
3761.0000
20
-1486.0000
11
3791.0000
21
-1456.0000
0
MTEXT
5
134
100
AcDbEntity
8
OPTICORS_SLOUP_S1_KOTY
100
AcDbMText
10
3695.0000
20
-1271.0000
40
90.0000
50
90.0000
71
5
1
400
7
OPTICORS
0
LWPOLYLINE
5
135
100
AcDbEntity
8
OPTICORS_RAMECEK
100
AcDbPolyline
90
4
70
1
10
0.0000
20
-9336.0000
10
4941.0000
20
-9336.0000
10
4941.0000
20
-195.0000
10
0.0000
20
-195.0000
0
MTEXT
5
136
100
AcDbEntity
8
OPTICORS_HLAVICKA
100
AcDbMText
10
0.0000
20
0.0000
40
120.0000
71
1
1
SLOUP S1 (bez vaznic) — POHLEDY
7
OPTICORS
0
MTEXT
5
137
100
AcDbEntity
8
OPTICORS_POZNAMKA
100
AcDbMText
10
4866.0000
20
-9261.0000
40
120.0000
71
9
1
IN DEVELOPMENT
7
OPTICORS
0
MTEXT
5
138
100
AcDbEntity
8
OPTICORS_HLAVICKA
100
AcDbMText
10
3849.0000
20
0.0000
40
120.0000
71
1
1
MĚŘÍTKO  1:50
7
OPTICORS
0
MTEXT
5
139
100
AcDbEntity
8
OPTICORS_SLOUP_S1_POPIS
100
AcDbMText
10
5691.0000
20
-505.0000
40
120.0000
71
1
1
GEOMETRIE
7
OPTICORS
0
MTEXT
5
13A
100
AcDbEntity
8
OPTICORS_SLOUP_S1_POPIS
100
AcDbMText
10
5691.0000
20
-655.0000
40
100.0000
71
1
1
Šířka průřezu:  400 mm
7
OPTICORS
0
MTEXT
5
13B
100
AcDbEntity
8
OPTICORS_SLOUP_S1_POPIS
100
AcDbMText
10
5691.0000
20
-805.0000
40
100.0000
71
1
1
Hloubka průřezu:  400 mm
7
OPTICORS
0
MTEXT
5
13C
100
AcDbEntity
8
OPTICORS_SLOUP_S1_POPIS
100
AcDbMText
10
5691.0000
20
-955.0000
40
100.0000
71
1
1
Délka sloupu:  8 000 mm
7
OPTICORS
0
MTEXT
5
13D
100
AcDbEntity
8
OPTICORS_SLOUP_S1_POPIS
100
AcDbMText
10
5691.0000
20
-1105.0000
40
100.0000
71
1
1
Vzpěrná délka l0:  16 000 mm
7
OPTICORS
0
MTEXT
5
13E
100
AcDbEntity
8
OPTICORS_SLOUP_S1_POPIS
100
AcDbMText
10
5691.0000
20
-1255.0000
40
100.0000
71
1
1
Plocha průřezu Ac:  160 000 mm2
7
OPTICORS
0
MTEXT
5
13F
100
AcDbEntity
8
OPTICORS_SLOUP_S1_POPIS
100
AcDbMText
10
5691.0000
20
-1480.0000
40
120.0000
71
1
1
MATERIÁL
7
OPTICORS
0
MTEXT
5
140
100
AcDbEntity
8
OPTICORS_SLOUP_S1_POPIS
100
AcDbMText
10
5691.0000
20
-1630.0000
40
100.0000
71
1
1
Beton:  C30/37
7
OPTICORS
0
MTEXT
5
141
100
AcDbEntity
8
OPTICORS_SLOUP_S1_POPIS
100
AcDbMText
10
5691.0000
20
-1780.0000
40
100.0000
71
1
1
Ocel:  B500B
7
OPTICORS
0
MTEXT
5
142
100
AcDbEntity
8
OPTICORS_SLOUP_S1_POPIS
100
AcDbMText
10
5691.0000
20
-1930.0000
40
100.0000
71
1
1
fcd / fyd:  20,0 / 434,8 MPa
7
OPTICORS
0
MTEXT
5
143
100
AcDbEntity
8
OPTICORS_SLOUP_S1_POPIS
100
AcDbMText
10
5691.0000
20
-2155.0000
40
120.0000
71
1
1
VÝZTUŽ
7
OPTICORS
0
MTEXT
5
144
100
AcDbEntity
8
OPTICORS_SLOUP_S1_POPIS
100
AcDbMText
10
5691.0000
20
-2305.0000
40
100.0000
71
1
1
Dolní řada:  3× %%c20 mm, krytí 40 mm
7
OPTICORS
0
MTEXT
5
145
100
AcDbEntity
8
OPTICORS_SLOUP_S1_POPIS
100
AcDbMText
10
5691.0000
20
-2455.0000
40
100.0000
71
1
1
Horní řada:  3× %%c16 mm, krytí 40 mm
7
OPTICORS
0
MTEXT
5
146
100
AcDbEntity
8
OPTICORS_SLOUP_S1_POPIS
100
AcDbMText
10
5691.0000
20
-2605.0000
40
100.0000
71
1
1
Prutů celkem:  6
7
OPTICORS
0
MTEXT
5
147
100
AcDbEntity
8
OPTICORS_SLOUP_S1_POPIS
100
AcDbMText
10
5691.0000
20
-2755.0000
40
100.0000
71
1
1
Stupeň vyztužení:  0,97 %
7
OPTICORS
0
MTEXT
5
148
100
AcDbEntity
8
OPTICORS_SLOUP_S1_POPIS
100
AcDbMText
10
5691.0000
20
-2905.0000
40
100.0000
71
1
1
Třmínky:  %%c8 mm / rozteč 200 mm
7
OPTICORS
0
MTEXT
5
149
100
AcDbEntity
8
OPTICORS_SLOUP_S1_POPIS
100
AcDbMText
10
5691.0000
20
-3130.0000
40
120.0000
71
1
1
MATERIÁLOVÁ BILANCE
7
OPTICORS
0
MTEXT
5
14A
100
AcDbEntity
8
OPTICORS_SLOUP_S1_POPIS
100
AcDbMText
10
5691.0000
20
-3280.0000
40
100.0000
71
1
1
Objem betonu:  1,280 m3
7
OPTICORS
0
MTEXT
5
14B
100
AcDbEntity
8
OPTICORS_SLOUP_S1_POPIS
100
AcDbMText
10
5691.0000
20
-3430.0000
40
100.0000
71
1
1
Hmotnost betonu:  3 200 kg
7
OPTICORS
0
MTEXT
5
14C
100
AcDbEntity
8
OPTICORS_SLOUP_S1_POPIS
100
AcDbMText
10
5691.0000
20
-3580.0000
40
100.0000
71
1
1
Podélná výztuž:  121,0 kg
7
OPTICORS
0
MTEXT
5
14D
100
AcDbEntity
8
OPTICORS_SLOUP_S1_POPIS
100
AcDbMText
10
5691.0000
20
-3730.0000
40
100.0000
71
1
1
Třmínky:  40 ks, 57,6 m
7
OPTICORS
0
MTEXT
5
14E
100
AcDbEntity
8
OPTICORS_SLOUP_S1_POPIS
100
AcDbMText
10
5691.0000
20
-3880.0000
40
100.0000
71
1
1
Ocel celkem:  143,0 kg
7
OPTICORS
0
MTEXT
5
14F
100
AcDbEntity
8
OPTICORS_SLOUP_S1_POPIS
100
AcDbMText
10
5691.0000
20
-4030.0000
40
100.0000
71
1
1
Hmotnost sloupu:  3 343 kg
7
OPTICORS
0
MTEXT
5
150
100
AcDbEntity
8
OPTICORS_SLOUP_S1_POPIS
100
AcDbMText
10
5691.0000
20
-4180.0000
40
100.0000
71
1
1
Vlastní tíha G:  32,80 kN
7
OPTICORS
0
MTEXT
5
151
100
AcDbEntity
8
OPTICORS_SLOUP_S1_POPIS
100
AcDbMText
10
5691.0000
20
-4405.0000
40
120.0000
71
1
1
POSOUZENÍ
7
OPTICORS
0
MTEXT
5
152
100
AcDbEntity
8
OPTICORS_SLOUP_S1_POPIS
100
AcDbMText
10
5691.0000
20
-4555.0000
40
100.0000
71
1
1
Návrhový moment MEd:  80,00 kNm
7
OPTICORS
0
MTEXT
5
153
100
AcDbEntity
8
OPTICORS_SLOUP_S1_POPIS
100
AcDbMText
10
5691.0000
20
-4705.0000
40
100.0000
71
1
1
Únosnost MRd:  95,00 kNm
7
OPTICORS
0
MTEXT
5
154
100
AcDbEntity
8
OPTICORS_SLOUP_S1_POPIS
100
AcDbMText
10
5691.0000
20
-4855.0000
40
100.0000
71
1
1
Využití:  84,0 %
7
OPTICORS
0
MTEXT
5
155
100
AcDbEntity
8
OPTICORS_SLOUP_S1_POPIS
100
AcDbMText
10
5691.0000
20
-5005.0000
40
100.0000
71
1
1
Vyhovuje:  ANO
7
OPTICORS
0
LWPOLYLINE
5
156
100
AcDbEntity
8
OPTICORS_RAMECEK
100
AcDbPolyline
90
4
70
1
10
5441.0000
20
-5305.0000
10
8391.0000
20
-5305.0000
10
8391.0000
20
-195.0000
10
5441.0000
20
-195.0000
0
MTEXT
5
157
100
AcDbEntity
8
OPTICORS_HLAVICKA
100
AcDbMText
10
5441.0000
20
0.0000
40
120.0000
71
1
1
SLOUP S1 — VÝSLEDKY
7
OPTICORS
0
MTEXT
5
158
100
AcDbEntity
8
OPTICORS_POZNAMKA
100
AcDbMText
10
8316.0000
20
-5230.0000
40
120.0000
71
9
1
IN DEVELOPMENT
7
OPTICORS
0
LWPOLYLINE
5
159
100
AcDbEntity
8
OPTICORS_SLOUP_S2_BETON
100
AcDbPolyline
90
8
70
1
10
876.0000
20
-11407.0000
10
1026.0000
20
-11407.0000
10
1026.0000
20
-11607.0000
10
1126.0000
20
-11607.0000
10
1126.0000
20
-11407.0000
10
1276.0000
20
-11407.0000
10
1276.0000
20
-19407.0000
10
876.0000
20
-19407.0000
0
SOLID
5
15A
100
AcDbEntity
8
OPTICORS_SLOUP_S2_BETON
100
AcDbTrace
10
801.0000
20
-11332.0000
30
0.0
11
1101.0000
21
-11332.0000
31
0.0
12
951.0000
22
-11482.0000
32
0.0
13
951.0000
23
-11482.0000
33
0.0
0
SOLID
5
15B
100
AcDbEntity
8
OPTICORS_SLOUP_S2_BETON
100
AcDbTrace
10
1101.0000
20
-11332.0000
30
0.0
11
1101.0000
21
-11532.0000
31
0.0
12
951.0000
22
-11482.0000
32
0.0
13
951.0000
23
-11682.0000
33
0.0
0
SOLID
5
15C
100
AcDbEntity
8
OPTICORS_SLOUP_S2_BETON
100
AcDbTrace
10
1101.0000
20
-11532.0000
30
0.0
11
1051.0000
21
-11532.0000
31
0.0
12
951.0000
22
-11682.0000
32
0.0
13
1201.0000
23
-11682.0000
33
0.0
0
SOLID
5
15D
100
AcDbEntity
8
OPTICORS_SLOUP_S2_BETON
100
AcDbTrace
10
1051.0000
20
-11532.0000
30
0.0
11
1051.0000
21
-11332.0000
31
0.0
12
1201.0000
22
-11682.0000
32
0.0
13
1201.0000
23
-11482.0000
33
0.0
0
SOLID
5
15E
100
AcDbEntity
8
OPTICORS_SLOUP_S2_BETON
100
AcDbTrace
10
1051.0000
20
-11332.0000
30
0.0
11
1351.0000
21
-11332.0000
31
0.0
12
1201.0000
22
-11482.0000
32
0.0
13
1201.0000
23
-11482.0000
33
0.0
0
SOLID
5
15F
100
AcDbEntity
8
OPTICORS_SLOUP_S2_BETON
100
AcDbTrace
10
1351.0000
20
-11332.0000
30
0.0
11
1351.0000
21
-19482.0000
31
0.0
12
1201.0000
22
-11482.0000
32
0.0
13
1201.0000
23
-19332.0000
33
0.0
0
SOLID
5
160
100
AcDbEntity
8
OPTICORS_SLOUP_S2_BETON
100
AcDbTrace
10
1351.0000
20
-19482.0000
30
0.0
11
801.0000
21
-19482.0000
31
0.0
12
1201.0000
22
-19332.0000
32
0.0
13
951.0000
23
-19332.0000
33
0.0
0
SOLID
5
161
100
AcDbEntity
8
OPTICORS_SLOUP_S2_BETON
100
AcDbTrace
10
801.0000
20
-19482.0000
30
0.0
11
801.0000
21
-11332.0000
31
0.0
12
951.0000
22
-19332.0000
32
0.0
13
951.0000
23
-11482.0000
33
0.0
0
LINE
5
162
100
AcDbEntity
8
OPTICORS_SLOUP_S2_VYZTUZ
100
AcDbLine
10
896.0000
20
-11427.0000
11
896.0000
21
-19387.0000
0
LINE
5
163
100
AcDbEntity
8
OPTICORS_SLOUP_S2_VYZTUZ
100
AcDbLine
10
1256.0000
20
-11427.0000
11
1256.0000
21
-19387.0000
0
LINE
5
164
100
AcDbEntity
8
OPTICORS_SLOUP_S2_KOTY
100
AcDbLine
10
876.0000
20
-10907.0000
11
1276.0000
21
-10907.0000
0
LINE
5
165
100
AcDbEntity
8
OPTICORS_SLOUP_S2_KOTY
100
AcDbLine
10
876.0000
20
-10884.5000
11
876.0000
21
-10929.5000
0
LINE
5
166
100
AcDbEntity
8
OPTICORS_SLOUP_S2_KOTY
100
AcDbLine
10
861.0000
20
-10922.0000
11
891.0000
21
-10892.0000
0
LINE
5
167
100
AcDbEntity
8
OPTICORS_SLOUP_S2_KOTY
100
AcDbLine
10
1276.0000
20
-10884.5000
11
1276.0000
21
-10929.5000
0
LINE
5
168
100
AcDbEntity
8
OPTICORS_SLOUP_S2_KOTY
100
AcDbLine
10
1261.0000
20
-10922.0000
11
1291.0000
21
-10892.0000
0
MTEXT
5
169
100
AcDbEntity
8
OPTICORS_SLOUP_S2_KOTY
100
AcDbMText
10
1076.0000
20
-10826.0000
40
90.0000
71
5
1
400
7
OPTICORS
0
LINE
5
16A
100
AcDbEntity
8
OPTICORS_SLOUP_S2_KOTY
100
AcDbLine
10
376.0000
20
-11407.0000
11
376.0000
21
-19407.0000
0
LINE
5
16B
100
AcDbEntity
8
OPTICORS_SLOUP_S2_KOTY
100
AcDbLine
10
353.5000
20
-11407.0000
11
398.5000
21
-11407.0000
0
LINE
5
16C
100
AcDbEntity
8
OPTICORS_SLOUP_S2_KOTY
100
AcDbLine
10
361.0000
20
-11422.0000
11
391.0000
21
-11392.0000
0
LINE
5
16D
100
AcDbEntity
8
OPTICORS_SLOUP_S2_KOTY
100
AcDbLine
10
353.5000
20
-19407.0000
11
398.5000
21
-19407.0000
0
LINE
5
16E
100
AcDbEntity
8
OPTICORS_SLOUP_S2_KOTY
100
AcDbLine
10
361.0000
20
-19422.0000
11
391.0000
21
-19392.0000
0
MTEXT
5
16F
100
AcDbEntity
8
OPTICORS_SLOUP_S2_KOTY
100
AcDbMText
10
295.0000
20
-15407.0000
40
90.0000
50
90.0000
71
5
1
8 000
7
OPTICORS
0
LINE
5
170
100
AcDbEntity
8
OPTICORS_SLOUP_S2_KOTY
100
AcDbLine
10
1026.0000
20
-11157.0000
11
1126.0000
21
-11157.0000
0
LINE
5
171
100
AcDbEntity
8
OPTICORS_SLOUP_S2_KOTY
100
AcDbLine
10
1026.0000
20
-11134.5000
11
1026.0000
21
-11179.5000
0
LINE
5
172
100
AcDbEntity
8
OPTICORS_SLOUP_S2_KOTY
100
AcDbLine
10
1011.0000
20
-11172.0000
11
1041.0000
21
-11142.0000
0
LINE
5
173
100
AcDbEntity
8
OPTICORS_SLOUP_S2_KOTY
100
AcDbLine
10
1126.0000
20
-11134.5000
11
1126.0000
21
-11179.5000
0
LINE
5
174
100
AcDbEntity
8
OPTICORS_SLOUP_S2_KOTY
100
AcDbLine
10
1111.0000
20
-11172.0000
11
1141.0000
21
-11142.0000
0
MTEXT
5
175
100
AcDbEntity
8
OPTICORS_SLOUP_S2_KOTY
100
AcDbMText
10
1076.0000
20
-11076.0000
40
90.0000
71
5
1
100
7
OPTICORS
0
LINE
5
176
100
AcDbEntity
8
OPTICORS_SLOUP_S2_KOTY
100
AcDbLine
10
626.0000
20
-11407.0000
11
626.0000
21
-11607.0000
0
LINE
5
177
100
AcDbEntity
8
OPTICORS_SLOUP_S2_KOTY
100
AcDbLine
10
603.5000
20
-11407.0000
11
648.5000
21
-11407.0000
0
LINE
5
178
100
AcDbEntity
8
OPTICORS_SLOUP_S2_KOTY
100
AcDbLine
10
611.0000
20
-11422.0000
11
641.0000
21
-11392.0000
0
LINE
5
179
100
AcDbEntity
8
OPTICORS_SLOUP_S2_KOTY
100
AcDbLine
10
603.5000
20
-11607.0000
11
648.5000
21
-11607.0000
0
LINE
5
17A
100
AcDbEntity
8
OPTICORS_SLOUP_S2_KOTY
100
AcDbLine
10
611.0000
20
-11622.0000
11
641.0000
21
-11592.0000
0
MTEXT
5
17B
100
AcDbEntity
8
OPTICORS_SLOUP_S2_KOTY
100
AcDbMText
10
545.0000
20
-11507.0000
40
90.0000
50
90.0000
71
5
1
200
7
OPTICORS
0
LWPOLYLINE
5
17C
100
AcDbEntity
8
OPTICORS_SLOUP_S2_BETON
100
AcDbPolyline
90
6
70
1
10
2776.0000
20
-11407.0000
10
2976.0000
20
-11407.0000
10
2976.0000
20
-19407.0000
10
2576.0000
20
-19407.0000
10
2576.0000
20
-11607.0000
10
2776.0000
20
-11607.0000
0
SOLID
5
17D
100
AcDbEntity
8
OPTICORS_SLOUP_S2_BETON
100
AcDbTrace
10
2701.0000
20
-11332.0000
30
0.0
11
3051.0000
21
-11332.0000
31
0.0
12
2851.0000
22
-11482.0000
32
0.0
13
2901.0000
23
-11482.0000
33
0.0
0
SOLID
5
17E
100
AcDbEntity
8
OPTICORS_SLOUP_S2_BETON
100
AcDbTrace
10
3051.0000
20
-11332.0000
30
0.0
11
3051.0000
21
-19482.0000
31
0.0
12
2901.0000
22
-11482.0000
32
0.0
13
2901.0000
23
-19332.0000
33
0.0
0
SOLID
5
17F
100
AcDbEntity
8
OPTICORS_SLOUP_S2_BETON
100
AcDbTrace
10
3051.0000
20
-19482.0000
30
0.0
11
2501.0000
21
-19482.0000
31
0.0
12
2901.0000
22
-19332.0000
32
0.0
13
2651.0000
23
-19332.0000
33
0.0
0
SOLID
5
180
100
AcDbEntity
8
OPTICORS_SLOUP_S2_BETON
100
AcDbTrace
10
2501.0000
20
-19482.0000
30
0.0
11
2501.0000
21
-11532.0000
31
0.0
12
2651.0000
22
-19332.0000
32
0.0
13
2651.0000
23
-11682.0000
33
0.0
0
SOLID
5
181
100
AcDbEntity
8
OPTICORS_SLOUP_S2_BETON
100
AcDbTrace
10
2501.0000
20
-11532.0000
30
0.0
11
2701.0000
21
-11532.0000
31
0.0
12
2651.0000
22
-11682.0000
32
0.0
13
2851.0000
23
-11682.0000
33
0.0
0
SOLID
5
182
100
AcDbEntity
8
OPTICORS_SLOUP_S2_BETON
100
AcDbTrace
10
2701.0000
20
-11532.0000
30
0.0
11
2701.0000
21
-11332.0000
31
0.0
12
2851.0000
22
-11682.0000
32
0.0
13
2851.0000
23
-11482.0000
33
0.0
0
LINE
5
183
100
AcDbEntity
8
OPTICORS_SLOUP_S2_KOTY
100
AcDbLine
10
2576.0000
20
-10907.0000
11
2976.0000
21
-10907.0000
0
LINE
5
184
100
AcDbEntity
8
OPTICORS_SLOUP_S2_KOTY
100
AcDbLine
10
2576.0000
20
-10884.5000
11
2576.0000
21
-10929.5000
0
LINE
5
185
100
AcDbEntity
8
OPTICORS_SLOUP_S2_KOTY
100
AcDbLine
10
2561.0000
20
-10922.0000
11
2591.0000
21
-10892.0000
0
LINE
5
186
100
AcDbEntity
8
OPTICORS_SLOUP_S2_KOTY
100
AcDbLine
10
2976.0000
20
-10884.5000
11
2976.0000
21
-10929.5000
0
LINE
5
187
100
AcDbEntity
8
OPTICORS_SLOUP_S2_KOTY
100
AcDbLine
10
2961.0000
20
-10922.0000
11
2991.0000
21
-10892.0000
0
MTEXT
5
188
100
AcDbEntity
8
OPTICORS_SLOUP_S2_KOTY
100
AcDbMText
10
2776.0000
20
-10826.0000
40
90.0000
71
5
1
400
7
OPTICORS
0
LINE
5
189
100
AcDbEntity
8
OPTICORS_SLOUP_S2_KOTY
100
AcDbLine
10
2076.0000
20
-11407.0000
11
2076.0000
21
-19407.0000
0
LINE
5
18A
100
AcDbEntity
8
OPTICORS_SLOUP_S2_KOTY
100
AcDbLine
10
2053.5000
20
-11407.0000
11
2098.5000
21
-11407.0000
0
LINE
5
18B
100
AcDbEntity
8
OPTICORS_SLOUP_S2_KOTY
100
AcDbLine
10
2061.0000
20
-11422.0000
11
2091.0000
21
-11392.0000
0
LINE
5
18C
100
AcDbEntity
8
OPTICORS_SLOUP_S2_KOTY
100
AcDbLine
10
2053.5000
20
-19407.0000
11
2098.5000
21
-19407.0000
0
LINE
5
18D
100
AcDbEntity
8
OPTICORS_SLOUP_S2_KOTY
100
AcDbLine
10
2061.0000
20
-19422.0000
11
2091.0000
21
-19392.0000
0
MTEXT
5
18E
100
AcDbEntity
8
OPTICORS_SLOUP_S2_KOTY
100
AcDbMText
10
1995.0000
20
-15407.0000
40
90.0000
50
90.0000
71
5
1
8 000
7
OPTICORS
0
LINE
5
18F
100
AcDbEntity
8
OPTICORS_SLOUP_S2_KOTY
100
AcDbLine
10
2576.0000
20
-11157.0000
11
2776.0000
21
-11157.0000
0
LINE
5
190
100
AcDbEntity
8
OPTICORS_SLOUP_S2_KOTY
100
AcDbLine
10
2576.0000
20
-11134.5000
11
2576.0000
21
-11179.5000
0
LINE
5
191
100
AcDbEntity
8
OPTICORS_SLOUP_S2_KOTY
100
AcDbLine
10
2561.0000
20
-11172.0000
11
2591.0000
21
-11142.0000
0
LINE
5
192
100
AcDbEntity
8
OPTICORS_SLOUP_S2_KOTY
100
AcDbLine
10
2776.0000
20
-11134.5000
11
2776.0000
21
-11179.5000
0
LINE
5
193
100
AcDbEntity
8
OPTICORS_SLOUP_S2_KOTY
100
AcDbLine
10
2761.0000
20
-11172.0000
11
2791.0000
21
-11142.0000
0
MTEXT
5
194
100
AcDbEntity
8
OPTICORS_SLOUP_S2_KOTY
100
AcDbMText
10
2676.0000
20
-11076.0000
40
90.0000
71
5
1
200
7
OPTICORS
0
LINE
5
195
100
AcDbEntity
8
OPTICORS_SLOUP_S2_KOTY
100
AcDbLine
10
2326.0000
20
-11407.0000
11
2326.0000
21
-11607.0000
0
LINE
5
196
100
AcDbEntity
8
OPTICORS_SLOUP_S2_KOTY
100
AcDbLine
10
2303.5000
20
-11407.0000
11
2348.5000
21
-11407.0000
0
LINE
5
197
100
AcDbEntity
8
OPTICORS_SLOUP_S2_KOTY
100
AcDbLine
10
2311.0000
20
-11422.0000
11
2341.0000
21
-11392.0000
0
LINE
5
198
100
AcDbEntity
8
OPTICORS_SLOUP_S2_KOTY
100
AcDbLine
10
2303.5000
20
-11607.0000
11
2348.5000
21
-11607.0000
0
LINE
5
199
100
AcDbEntity
8
OPTICORS_SLOUP_S2_KOTY
100
AcDbLine
10
2311.0000
20
-11622.0000
11
2341.0000
21
-11592.0000
0
MTEXT
5
19A
100
AcDbEntity
8
OPTICORS_SLOUP_S2_KOTY
100
AcDbMText
10
2245.0000
20
-11507.0000
40
90.0000
50
90.0000
71
5
1
200
7
OPTICORS
0
LWPOLYLINE
5
19B
100
AcDbEntity
8
OPTICORS_SLOUP_S2_BETON
100
AcDbPolyline
90
4
70
1
10
4276.0000
20
-11407.0000
10
4676.0000
20
-11407.0000
10
4676.0000
20
-11807.0000
10
4276.0000
20
-11807.0000
0
SOLID
5
19C
100
AcDbEntity
8
OPTICORS_SLOUP_S2_BETON
100
AcDbTrace
10
4201.0000
20
-11332.0000
30
0.0
11
4751.0000
21
-11332.0000
31
0.0
12
4351.0000
22
-11482.0000
32
0.0
13
4601.0000
23
-11482.0000
33
0.0
0
SOLID
5
19D
100
AcDbEntity
8
OPTICORS_SLOUP_S2_BETON
100
AcDbTrace
10
4751.0000
20
-11332.0000
30
0.0
11
4751.0000
21
-11882.0000
31
0.0
12
4601.0000
22
-11482.0000
32
0.0
13
4601.0000
23
-11732.0000
33
0.0
0
SOLID
5
19E
100
AcDbEntity
8
OPTICORS_SLOUP_S2_BETON
100
AcDbTrace
10
4751.0000
20
-11882.0000
30
0.0
11
4201.0000
21
-11882.0000
31
0.0
12
4601.0000
22
-11732.0000
32
0.0
13
4351.0000
23
-11732.0000
33
0.0
0
SOLID
5
19F
100
AcDbEntity
8
OPTICORS_SLOUP_S2_BETON
100
AcDbTrace
10
4201.0000
20
-11882.0000
30
0.0
11
4201.0000
21
-11332.0000
31
0.0
12
4351.0000
22
-11732.0000
32
0.0
13
4351.0000
23
-11482.0000
33
0.0
0
LINE
5
1A0
100
AcDbEntity
8
OPTICORS_SLOUP_S2_BETON
100
AcDbLine
10
4476.0000
20
-11407.0000
11
4476.0000
21
-11807.0000
0
SOLID
5
1A1
100
AcDbEntity
8
OPTICORS_SLOUP_S2_BETON
100
AcDbTrace
10
4551.0000
20
-11407.0000
30
0.0
11
4551.0000
21
-11807.0000
31
0.0
12
4401.0000
22
-11407.0000
32
0.0
13
4401.0000
23
-11807.0000
33
0.0
0
LINE
5
1A2
100
AcDbEntity
8
OPTICORS_SLOUP_S2_BETON
100
AcDbLine
10
4476.0000
20
-11557.0000
11
4676.0000
21
-11557.0000
0
SOLID
5
1A3
100
AcDbEntity
8
OPTICORS_SLOUP_S2_BETON
100
AcDbTrace
10
4476.0000
20
-11482.0000
30
0.0
11
4676.0000
21
-11482.0000
31
0.0
12
4476.0000
22
-11632.0000
32
0.0
13
4676.0000
23
-11632.0000
33
0.0
0
LINE
5
1A4
100
AcDbEntity
8
OPTICORS_SLOUP_S2_BETON
100
AcDbLine
10
4476.0000
20
-11657.0000
11
4676.0000
21
-11657.0000
0
SOLID
5
1A5
100
AcDbEntity
8
OPTICORS_SLOUP_S2_BETON
100
AcDbTrace
10
4476.0000
20
-11582.0000
30
0.0
11
4676.0000
21
-11582.0000
31
0.0
12
4476.0000
22
-11732.0000
32
0.0
13
4676.0000
23
-11732.0000
33
0.0
0
LINE
5
1A6
100
AcDbEntity
8
OPTICORS_SLOUP_S2_KOTY
100
AcDbLine
10
4276.0000
20
-10907.0000
11
4676.0000
21
-10907.0000
0
LINE
5
1A7
100
AcDbEntity
8
OPTICORS_SLOUP_S2_KOTY
100
AcDbLine
10
4276.0000
20
-10884.5000
11
4276.0000
21
-10929.5000
0
LINE
5
1A8
100
AcDbEntity
8
OPTICORS_SLOUP_S2_KOTY
100
AcDbLine
10
4261.0000
20
-10922.0000
11
4291.0000
21
-10892.0000
0
LINE
5
1A9
100
AcDbEntity
8
OPTICORS_SLOUP_S2_KOTY
100
AcDbLine
10
4676.0000
20
-10884.5000
11
4676.0000
21
-10929.5000
0
LINE
5
1AA
100
AcDbEntity
8
OPTICORS_SLOUP_S2_KOTY
100
AcDbLine
10
4661.0000
20
-10922.0000
11
4691.0000
21
-10892.0000
0
MTEXT
5
1AB
100
AcDbEntity
8
OPTICORS_SLOUP_S2_KOTY
100
AcDbMText
10
4476.0000
20
-10826.0000
40
90.0000
71
5
1
400
7
OPTICORS
0
LINE
5
1AC
100
AcDbEntity
8
OPTICORS_SLOUP_S2_KOTY
100
AcDbLine
10
3776.0000
20
-11407.0000
11
3776.0000
21
-11807.0000
0
LINE
5
1AD
100
AcDbEntity
8
OPTICORS_SLOUP_S2_KOTY
100
AcDbLine
10
3753.5000
20
-11407.0000
11
3798.5000
21
-11407.0000
0
LINE
5
1AE
100
AcDbEntity
8
OPTICORS_SLOUP_S2_KOTY
100
AcDbLine
10
3761.0000
20
-11422.0000
11
3791.0000
21
-11392.0000
0
LINE
5
1AF
100
AcDbEntity
8
OPTICORS_SLOUP_S2_KOTY
100
AcDbLine
10
3753.5000
20
-11807.0000
11
3798.5000
21
-11807.0000
0
LINE
5
1B0
100
AcDbEntity
8
OPTICORS_SLOUP_S2_KOTY
100
AcDbLine
10
3761.0000
20
-11822.0000
11
3791.0000
21
-11792.0000
0
MTEXT
5
1B1
100
AcDbEntity
8
OPTICORS_SLOUP_S2_KOTY
100
AcDbMText
10
3695.0000
20
-11607.0000
40
90.0000
50
90.0000
71
5
1
400
7
OPTICORS
0
LINE
5
1B2
100
AcDbEntity
8
OPTICORS_SLOUP_S2_KOTY
100
AcDbLine
10
4276.0000
20
-11157.0000
11
4476.0000
21
-11157.0000
0
LINE
5
1B3
100
AcDbEntity
8
OPTICORS_SLOUP_S2_KOTY
100
AcDbLine
10
4276.0000
20
-11134.5000
11
4276.0000
21
-11179.5000
0
LINE
5
1B4
100
AcDbEntity
8
OPTICORS_SLOUP_S2_KOTY
100
AcDbLine
10
4261.0000
20
-11172.0000
11
4291.0000
21
-11142.0000
0
LINE
5
1B5
100
AcDbEntity
8
OPTICORS_SLOUP_S2_KOTY
100
AcDbLine
10
4476.0000
20
-11134.5000
11
4476.0000
21
-11179.5000
0
LINE
5
1B6
100
AcDbEntity
8
OPTICORS_SLOUP_S2_KOTY
100
AcDbLine
10
4461.0000
20
-11172.0000
11
4491.0000
21
-11142.0000
0
MTEXT
5
1B7
100
AcDbEntity
8
OPTICORS_SLOUP_S2_KOTY
100
AcDbMText
10
4376.0000
20
-11076.0000
40
90.0000
71
5
1
200
7
OPTICORS
0
LINE
5
1B8
100
AcDbEntity
8
OPTICORS_SLOUP_S2_KOTY
100
AcDbLine
10
4026.0000
20
-11557.0000
11
4026.0000
21
-11657.0000
0
LINE
5
1B9
100
AcDbEntity
8
OPTICORS_SLOUP_S2_KOTY
100
AcDbLine
10
4003.5000
20
-11557.0000
11
4048.5000
21
-11557.0000
0
LINE
5
1BA
100
AcDbEntity
8
OPTICORS_SLOUP_S2_KOTY
100
AcDbLine
10
4011.0000
20
-11572.0000
11
4041.0000
21
-11542.0000
0
LINE
5
1BB
100
AcDbEntity
8
OPTICORS_SLOUP_S2_KOTY
100
AcDbLine
10
4003.5000
20
-11657.0000
11
4048.5000
21
-11657.0000
0
LINE
5
1BC
100
AcDbEntity
8
OPTICORS_SLOUP_S2_KOTY
100
AcDbLine
10
4011.0000
20
-11672.0000
11
4041.0000
21
-11642.0000
0
MTEXT
5
1BD
100
AcDbEntity
8
OPTICORS_SLOUP_S2_KOTY
100
AcDbMText
10
3945.0000
20
-11607.0000
40
90.0000
50
90.0000
71
5
1
100
7
OPTICORS
0
LWPOLYLINE
5
1BE
100
AcDbEntity
8
OPTICORS_RAMECEK
100
AcDbPolyline
90
4
70
1
10
0.0000
20
-19672.0000
10
4941.0000
20
-19672.0000
10
4941.0000
20
-10531.0000
10
0.0000
20
-10531.0000
0
MTEXT
5
1BF
100
AcDbEntity
8
OPTICORS_HLAVICKA
100
AcDbMText
10
0.0000
20
-10336.0000
40
120.0000
71
1
1
SLOUP S2 (bez vaznic) — POHLEDY
7
OPTICORS
0
MTEXT
5
1C0
100
AcDbEntity
8
OPTICORS_POZNAMKA
100
AcDbMText
10
4866.0000
20
-19597.0000
40
120.0000
71
9
1
IN DEVELOPMENT
7
OPTICORS
0
MTEXT
5
1C1
100
AcDbEntity
8
OPTICORS_HLAVICKA
100
AcDbMText
10
3849.0000
20
-10336.0000
40
120.0000
71
1
1
MĚŘÍTKO  1:50
7
OPTICORS
0
MTEXT
5
1C2
100
AcDbEntity
8
OPTICORS_SLOUP_S2_POPIS
100
AcDbMText
10
5691.0000
20
-10841.0000
40
120.0000
71
1
1
GEOMETRIE
7
OPTICORS
0
MTEXT
5
1C3
100
AcDbEntity
8
OPTICORS_SLOUP_S2_POPIS
100
AcDbMText
10
5691.0000
20
-10991.0000
40
100.0000
71
1
1
Šířka průřezu:  400 mm
7
OPTICORS
0
MTEXT
5
1C4
100
AcDbEntity
8
OPTICORS_SLOUP_S2_POPIS
100
AcDbMText
10
5691.0000
20
-11141.0000
40
100.0000
71
1
1
Hloubka průřezu:  400 mm
7
OPTICORS
0
MTEXT
5
1C5
100
AcDbEntity
8
OPTICORS_SLOUP_S2_POPIS
100
AcDbMText
10
5691.0000
20
-11291.0000
40
100.0000
71
1
1
Délka sloupu:  8 000 mm
7
OPTICORS
0
MTEXT
5
1C6
100
AcDbEntity
8
OPTICORS_SLOUP_S2_POPIS
100
AcDbMText
10
5691.0000
20
-11441.0000
40
100.0000
71
1
1
Vzpěrná délka l0:  16 000 mm
7
OPTICORS
0
MTEXT
5
1C7
100
AcDbEntity
8
OPTICORS_SLOUP_S2_POPIS
100
AcDbMText
10
5691.0000
20
-11591.0000
40
100.0000
71
1
1
Plocha průřezu Ac:  160 000 mm2
7
OPTICORS
0
MTEXT
5
1C8
100
AcDbEntity
8
OPTICORS_SLOUP_S2_POPIS
100
AcDbMText
10
5691.0000
20
-11816.0000
40
120.0000
71
1
1
MATERIÁL
7
OPTICORS
0
MTEXT
5
1C9
100
AcDbEntity
8
OPTICORS_SLOUP_S2_POPIS
100
AcDbMText
10
5691.0000
20
-11966.0000
40
100.0000
71
1
1
Beton:  C30/37
7
OPTICORS
0
MTEXT
5
1CA
100
AcDbEntity
8
OPTICORS_SLOUP_S2_POPIS
100
AcDbMText
10
5691.0000
20
-12116.0000
40
100.0000
71
1
1
Ocel:  B500B
7
OPTICORS
0
MTEXT
5
1CB
100
AcDbEntity
8
OPTICORS_SLOUP_S2_POPIS
100
AcDbMText
10
5691.0000
20
-12266.0000
40
100.0000
71
1
1
fcd / fyd:  20,0 / 434,8 MPa
7
OPTICORS
0
MTEXT
5
1CC
100
AcDbEntity
8
OPTICORS_SLOUP_S2_POPIS
100
AcDbMText
10
5691.0000
20
-12491.0000
40
120.0000
71
1
1
VÝZTUŽ
7
OPTICORS
0
MTEXT
5
1CD
100
AcDbEntity
8
OPTICORS_SLOUP_S2_POPIS
100
AcDbMText
10
5691.0000
20
-12641.0000
40
100.0000
71
1
1
Dolní řada:  3× %%c20 mm, krytí 40 mm
7
OPTICORS
0
MTEXT
5
1CE
100
AcDbEntity
8
OPTICORS_SLOUP_S2_POPIS
100
AcDbMText
10
5691.0000
20
-12791.0000
40
100.0000
71
1
1
Horní řada:  3× %%c16 mm, krytí 40 mm
7
OPTICORS
0
MTEXT
5
1CF
100
AcDbEntity
8
OPTICORS_SLOUP_S2_POPIS
100
AcDbMText
10
5691.0000
20
-12941.0000
40
100.0000
71
1
1
Prutů celkem:  6
7
OPTICORS
0
MTEXT
5
1D0
100
AcDbEntity
8
OPTICORS_SLOUP_S2_POPIS
100
AcDbMText
10
5691.0000
20
-13091.0000
40
100.0000
71
1
1
Stupeň vyztužení:  0,97 %
7
OPTICORS
0
MTEXT
5
1D1
100
AcDbEntity
8
OPTICORS_SLOUP_S2_POPIS
100
AcDbMText
10
5691.0000
20
-13241.0000
40
100.0000
71
1
1
Třmínky:  %%c8 mm / rozteč 200 mm
7
OPTICORS
0
MTEXT
5
1D2
100
AcDbEntity
8
OPTICORS_SLOUP_S2_POPIS
100
AcDbMText
10
5691.0000
20
-13466.0000
40
120.0000
71
1
1
MATERIÁLOVÁ BILANCE
7
OPTICORS
0
MTEXT
5
1D3
100
AcDbEntity
8
OPTICORS_SLOUP_S2_POPIS
100
AcDbMText
10
5691.0000
20
-13616.0000
40
100.0000
71
1
1
Objem betonu:  1,280 m3
7
OPTICORS
0
MTEXT
5
1D4
100
AcDbEntity
8
OPTICORS_SLOUP_S2_POPIS
100
AcDbMText
10
5691.0000
20
-13766.0000
40
100.0000
71
1
1
Hmotnost betonu:  3 200 kg
7
OPTICORS
0
MTEXT
5
1D5
100
AcDbEntity
8
OPTICORS_SLOUP_S2_POPIS
100
AcDbMText
10
5691.0000
20
-13916.0000
40
100.0000
71
1
1
Podélná výztuž:  121,0 kg
7
OPTICORS
0
MTEXT
5
1D6
100
AcDbEntity
8
OPTICORS_SLOUP_S2_POPIS
100
AcDbMText
10
5691.0000
20
-14066.0000
40
100.0000
71
1
1
Třmínky:  40 ks, 57,6 m
7
OPTICORS
0
MTEXT
5
1D7
100
AcDbEntity
8
OPTICORS_SLOUP_S2_POPIS
100
AcDbMText
10
5691.0000
20
-14216.0000
40
100.0000
71
1
1
Ocel celkem:  143,0 kg
7
OPTICORS
0
MTEXT
5
1D8
100
AcDbEntity
8
OPTICORS_SLOUP_S2_POPIS
100
AcDbMText
10
5691.0000
20
-14366.0000
40
100.0000
71
1
1
Hmotnost sloupu:  3 343 kg
7
OPTICORS
0
MTEXT
5
1D9
100
AcDbEntity
8
OPTICORS_SLOUP_S2_POPIS
100
AcDbMText
10
5691.0000
20
-14516.0000
40
100.0000
71
1
1
Vlastní tíha G:  32,80 kN
7
OPTICORS
0
MTEXT
5
1DA
100
AcDbEntity
8
OPTICORS_SLOUP_S2_POPIS
100
AcDbMText
10
5691.0000
20
-14741.0000
40
120.0000
71
1
1
POSOUZENÍ
7
OPTICORS
0
MTEXT
5
1DB
100
AcDbEntity
8
OPTICORS_SLOUP_S2_POPIS
100
AcDbMText
10
5691.0000
20
-14891.0000
40
100.0000
71
1
1
Návrhový moment MEd:  80,00 kNm
7
OPTICORS
0
MTEXT
5
1DC
100
AcDbEntity
8
OPTICORS_SLOUP_S2_POPIS
100
AcDbMText
10
5691.0000
20
-15041.0000
40
100.0000
71
1
1
Únosnost MRd:  95,00 kNm
7
OPTICORS
0
MTEXT
5
1DD
100
AcDbEntity
8
OPTICORS_SLOUP_S2_POPIS
100
AcDbMText
10
5691.0000
20
-15191.0000
40
100.0000
71
1
1
Využití:  84,0 %
7
OPTICORS
0
MTEXT
5
1DE
100
AcDbEntity
8
OPTICORS_SLOUP_S2_POPIS
100
AcDbMText
10
5691.0000
20
-15341.0000
40
100.0000
71
1
1
Vyhovuje:  ANO
7
OPTICORS
0
LWPOLYLINE
5
1DF
100
AcDbEntity
8
OPTICORS_RAMECEK
100
AcDbPolyline
90
4
70
1
10
5441.0000
20
-15641.0000
10
8391.0000
20
-15641.0000
10
8391.0000
20
-10531.0000
10
5441.0000
20
-10531.0000
0
MTEXT
5
1E0
100
AcDbEntity
8
OPTICORS_HLAVICKA
100
AcDbMText
10
5441.0000
20
-10336.0000
40
120.0000
71
1
1
SLOUP S2 — VÝSLEDKY
7
OPTICORS
0
MTEXT
5
1E1
100
AcDbEntity
8
OPTICORS_POZNAMKA
100
AcDbMText
10
8316.0000
20
-15566.0000
40
120.0000
71
9
1
IN DEVELOPMENT
7
OPTICORS
0
LWPOLYLINE
5
1E2
100
AcDbEntity
8
OPTICORS_ZTUZIDLO_Z1_BETON
100
AcDbPolyline
90
8
70
1
10
876.0000
20
-21743.0000
10
10276.0000
20
-21743.0000
10
10276.0000
20
-21943.0000
10
9876.0000
20
-21943.0000
10
9876.0000
20
-22143.0000
10
1276.0000
20
-22143.0000
10
1276.0000
20
-21943.0000
10
876.0000
20
-21943.0000
0
SOLID
5
1E3
100
AcDbEntity
8
OPTICORS_ZTUZIDLO_Z1_BETON
100
AcDbTrace
10
801.0000
20
-21668.0000
30
0.0
11
10351.0000
21
-21668.0000
31
0.0
12
951.0000
22
-21818.0000
32
0.0
13
10201.0000
23
-21818.0000
33
0.0
0
SOLID
5
1E4
100
AcDbEntity
8
OPTICORS_ZTUZIDLO_Z1_BETON
100
AcDbTrace
10
10351.0000
20
-21668.0000
30
0.0
11
10351.0000
21
-22018.0000
31
0.0
12
10201.0000
22
-21818.0000
32
0.0
13
10201.0000
23
-21868.0000
33
0.0
0
SOLID
5
1E5
100
AcDbEntity
8
OPTICORS_ZTUZIDLO_Z1_BETON
100
AcDbTrace
10
10351.0000
20
-22018.0000
30
0.0
11
9951.0000
21
-22018.0000
31
0.0
12
10201.0000
22
-21868.0000
32
0.0
13
9801.0000
23
-21868.0000
33
0.0
0
SOLID
5
1E6
100
AcDbEntity
8
OPTICORS_ZTUZIDLO_Z1_BETON
100
AcDbTrace
10
9951.0000
20
-22018.0000
30
0.0
11
9951.0000
21
-22218.0000
31
0.0
12
9801.0000
22
-21868.0000
32
0.0
13
9801.0000
23
-22068.0000
33
0.0
0
SOLID
5
1E7
100
AcDbEntity
8
OPTICORS_ZTUZIDLO_Z1_BETON
100
AcDbTrace
10
9951.0000
20
-22218.0000
30
0.0
11
1201.0000
21
-22218.0000
31
0.0
12
9801.0000
22
-22068.0000
32
0.0
13
1351.0000
23
-22068.0000
33
0.0
0
SOLID
5
1E8
100
AcDbEntity
8
OPTICORS_ZTUZIDLO_Z1_BETON
100
AcDbTrace
10
1201.0000
20
-22218.0000
30
0.0
11
1201.0000
21
-22018.0000
31
0.0
12
1351.0000
22
-22068.0000
32
0.0
13
1351.0000
23
-21868.0000
33
0.0
0
SOLID
5
1E9
100
AcDbEntity
8
OPTICORS_ZTUZIDLO_Z1_BETON
100
AcDbTrace
10
1201.0000
20
-22018.0000
30
0.0
11
801.0000
21
-22018.0000
31
0.0
12
1351.0000
22
-21868.0000
32
0.0
13
951.0000
23
-21868.0000
33
0.0
0
SOLID
5
1EA
100
AcDbEntity
8
OPTICORS_ZTUZIDLO_Z1_BETON
100
AcDbTrace
10
801.0000
20
-22018.0000
30
0.0
11
801.0000
21
-21668.0000
31
0.0
12
951.0000
22
-21868.0000
32
0.0
13
951.0000
23
-21818.0000
33
0.0
0
LINE
5
1EB
100
AcDbEntity
8
OPTICORS_ZTUZIDLO_Z1_VYZTUZ
100
AcDbLine
10
926.0000
20
-21793.0000
11
10226.0000
21
-21793.0000
0
LINE
5
1EC
100
AcDbEntity
8
OPTICORS_ZTUZIDLO_Z1_VYZTUZ
100
AcDbLine
10
926.0000
20
-21893.0000
11
10226.0000
21
-21893.0000
0
LINE
5
1ED
100
AcDbEntity
8
OPTICORS_ZTUZIDLO_Z1_KOTY
100
AcDbLine
10
876.0000
20
-21243.0000
11
10276.0000
21
-21243.0000
0
LINE
5
1EE
100
AcDbEntity
8
OPTICORS_ZTUZIDLO_Z1_KOTY
100
AcDbLine
10
876.0000
20
-21220.5000
11
876.0000
21
-21265.5000
0
LINE
5
1EF
100
AcDbEntity
8
OPTICORS_ZTUZIDLO_Z1_KOTY
100
AcDbLine
10
861.0000
20
-21258.0000
11
891.0000
21
-21228.0000
0
LINE
5
1F0
100
AcDbEntity
8
OPTICORS_ZTUZIDLO_Z1_KOTY
100
AcDbLine
10
10276.0000
20
-21220.5000
11
10276.0000
21
-21265.5000
0
LINE
5
1F1
100
AcDbEntity
8
OPTICORS_ZTUZIDLO_Z1_KOTY
100
AcDbLine
10
10261.0000
20
-21258.0000
11
10291.0000
21
-21228.0000
0
MTEXT
5
1F2
100
AcDbEntity
8
OPTICORS_ZTUZIDLO_Z1_KOTY
100
AcDbMText
10
5576.0000
20
-21162.0000
40
90.0000
71
5
1
9 400
7
OPTICORS
0
LINE
5
1F3
100
AcDbEntity
8
OPTICORS_ZTUZIDLO_Z1_KOTY
100
AcDbLine
10
876.0000
20
-21493.0000
11
1276.0000
21
-21493.0000
0
LINE
5
1F4
100
AcDbEntity
8
OPTICORS_ZTUZIDLO_Z1_KOTY
100
AcDbLine
10
876.0000
20
-21470.5000
11
876.0000
21
-21515.5000
0
LINE
5
1F5
100
AcDbEntity
8
OPTICORS_ZTUZIDLO_Z1_KOTY
100
AcDbLine
10
861.0000
20
-21508.0000
11
891.0000
21
-21478.0000
0
LINE
5
1F6
100
AcDbEntity
8
OPTICORS_ZTUZIDLO_Z1_KOTY
100
AcDbLine
10
1276.0000
20
-21470.5000
11
1276.0000
21
-21515.5000
0
LINE
5
1F7
100
AcDbEntity
8
OPTICORS_ZTUZIDLO_Z1_KOTY
100
AcDbLine
10
1261.0000
20
-21508.0000
11
1291.0000
21
-21478.0000
0
MTEXT
5
1F8
100
AcDbEntity
8
OPTICORS_ZTUZIDLO_Z1_KOTY
100
AcDbMText
10
1076.0000
20
-21412.0000
40
90.0000
71
5
1
400
7
OPTICORS
0
LINE
5
1F9
100
AcDbEntity
8
OPTICORS_ZTUZIDLO_Z1_KOTY
100
AcDbLine
10
1276.0000
20
-21493.0000
11
9876.0000
21
-21493.0000
0
LINE
5
1FA
100
AcDbEntity
8
OPTICORS_ZTUZIDLO_Z1_KOTY
100
AcDbLine
10
1276.0000
20
-21470.5000
11
1276.0000
21
-21515.5000
0
LINE
5
1FB
100
AcDbEntity
8
OPTICORS_ZTUZIDLO_Z1_KOTY
100
AcDbLine
10
1261.0000
20
-21508.0000
11
1291.0000
21
-21478.0000
0
LINE
5
1FC
100
AcDbEntity
8
OPTICORS_ZTUZIDLO_Z1_KOTY
100
AcDbLine
10
9876.0000
20
-21470.5000
11
9876.0000
21
-21515.5000
0
LINE
5
1FD
100
AcDbEntity
8
OPTICORS_ZTUZIDLO_Z1_KOTY
100
AcDbLine
10
9861.0000
20
-21508.0000
11
9891.0000
21
-21478.0000
0
MTEXT
5
1FE
100
AcDbEntity
8
OPTICORS_ZTUZIDLO_Z1_KOTY
100
AcDbMText
10
5576.0000
20
-21412.0000
40
90.0000
71
5
1
8 600
7
OPTICORS
0
LINE
5
1FF
100
AcDbEntity
8
OPTICORS_ZTUZIDLO_Z1_KOTY
100
AcDbLine
10
376.0000
20
-21743.0000
11
376.0000
21
-22143.0000
0
LINE
5
200
100
AcDbEntity
8
OPTICORS_ZTUZIDLO_Z1_KOTY
100
AcDbLine
10
353.5000
20
-21743.0000
11
398.5000
21
-21743.0000
0
LINE
5
201
100
AcDbEntity
8
OPTICORS_ZTUZIDLO_Z1_KOTY
100
AcDbLine
10
361.0000
20
-21758.0000
11
391.0000
21
-21728.0000
0
LINE
5
202
100
AcDbEntity
8
OPTICORS_ZTUZIDLO_Z1_KOTY
100
AcDbLine
10
353.5000
20
-22143.0000
11
398.5000
21
-22143.0000
0
LINE
5
203
100
AcDbEntity
8
OPTICORS_ZTUZIDLO_Z1_KOTY
100
AcDbLine
10
361.0000
20
-22158.0000
11
391.0000
21
-22128.0000
0
MTEXT
5
204
100
AcDbEntity
8
OPTICORS_ZTUZIDLO_Z1_KOTY
100
AcDbMText
10
295.0000
20
-21943.0000
40
90.0000
50
90.0000
71
5
1
400
7
OPTICORS
0
LWPOLYLINE
5
205
100
AcDbEntity
8
OPTICORS_ZTUZIDLO_Z1_BETON
100
AcDbPolyline
90
4
70
1
10
876.0000
20
-23743.0000
10
1036.0000
20
-23743.0000
10
1036.0000
20
-24143.0000
10
876.0000
20
-24143.0000
0
SOLID
5
206
100
AcDbEntity
8
OPTICORS_ZTUZIDLO_Z1_BETON
100
AcDbTrace
10
801.0000
20
-23668.0000
30
0.0
11
1111.0000
21
-23668.0000
31
0.0
12
951.0000
22
-23818.0000
32
0.0
13
961.0000
23
-23818.0000
33
0.0
0
SOLID
5
207
100
AcDbEntity
8
OPTICORS_ZTUZIDLO_Z1_BETON
100
AcDbTrace
10
1111.0000
20
-23668.0000
30
0.0
11
1111.0000
21
-24218.0000
31
0.0
12
961.0000
22
-23818.0000
32
0.0
13
961.0000
23
-24068.0000
33
0.0
0
SOLID
5
208
100
AcDbEntity
8
OPTICORS_ZTUZIDLO_Z1_BETON
100
AcDbTrace
10
1111.0000
20
-24218.0000
30
0.0
11
801.0000
21
-24218.0000
31
0.0
12
961.0000
22
-24068.0000
32
0.0
13
951.0000
23
-24068.0000
33
0.0
0
SOLID
5
209
100
AcDbEntity
8
OPTICORS_ZTUZIDLO_Z1_BETON
100
AcDbTrace
10
801.0000
20
-24218.0000
30
0.0
11
801.0000
21
-23668.0000
31
0.0
12
951.0000
22
-24068.0000
32
0.0
13
951.0000
23
-23818.0000
33
0.0
0
LWPOLYLINE
5
20A
100
AcDbEntity
8
OPTICORS_ZTUZIDLO_Z1_VYZTUZ
100
AcDbPolyline
90
4
70
1
10
926.0000
20
-23793.0000
10
986.0000
20
-23793.0000
10
986.0000
20
-24093.0000
10
926.0000
20
-24093.0000
0
CIRCLE
5
20B
100
AcDbEntity
8
OPTICORS_ZTUZIDLO_Z1_VYZTUZ
100
AcDbCircle
10
932.0000
20
-23799.0000
40
6.0000
0
CIRCLE
5
20C
100
AcDbEntity
8
OPTICORS_ZTUZIDLO_Z1_VYZTUZ
100
AcDbCircle
10
980.0000
20
-23799.0000
40
6.0000
0
LINE
5
20D
100
AcDbEntity
8
OPTICORS_ZTUZIDLO_Z1_KOTY
100
AcDbLine
10
876.0000
20
-23243.0000
11
1036.0000
21
-23243.0000
0
LINE
5
20E
100
AcDbEntity
8
OPTICORS_ZTUZIDLO_Z1_KOTY
100
AcDbLine
10
876.0000
20
-23220.5000
11
876.0000
21
-23265.5000
0
LINE
5
20F
100
AcDbEntity
8
OPTICORS_ZTUZIDLO_Z1_KOTY
100
AcDbLine
10
861.0000
20
-23258.0000
11
891.0000
21
-23228.0000
0
LINE
5
210
100
AcDbEntity
8
OPTICORS_ZTUZIDLO_Z1_KOTY
100
AcDbLine
10
1036.0000
20
-23220.5000
11
1036.0000
21
-23265.5000
0
LINE
5
211
100
AcDbEntity
8
OPTICORS_ZTUZIDLO_Z1_KOTY
100
AcDbLine
10
1021.0000
20
-23258.0000
11
1051.0000
21
-23228.0000
0
MTEXT
5
212
100
AcDbEntity
8
OPTICORS_ZTUZIDLO_Z1_KOTY
100
AcDbMText
10
956.0000
20
-23162.0000
40
90.0000
71
5
1
160
7
OPTICORS
0
LINE
5
213
100
AcDbEntity
8
OPTICORS_ZTUZIDLO_Z1_KOTY
100
AcDbLine
10
376.0000
20
-23743.0000
11
376.0000
21
-24143.0000
0
LINE
5
214
100
AcDbEntity
8
OPTICORS_ZTUZIDLO_Z1_KOTY
100
AcDbLine
10
353.5000
20
-23743.0000
11
398.5000
21
-23743.0000
0
LINE
5
215
100
AcDbEntity
8
OPTICORS_ZTUZIDLO_Z1_KOTY
100
AcDbLine
10
361.0000
20
-23758.0000
11
391.0000
21
-23728.0000
0
LINE
5
216
100
AcDbEntity
8
OPTICORS_ZTUZIDLO_Z1_KOTY
100
AcDbLine
10
353.5000
20
-24143.0000
11
398.5000
21
-24143.0000
0
LINE
5
217
100
AcDbEntity
8
OPTICORS_ZTUZIDLO_Z1_KOTY
100
AcDbLine
10
361.0000
20
-24158.0000
11
391.0000
21
-24128.0000
0
MTEXT
5
218
100
AcDbEntity
8
OPTICORS_ZTUZIDLO_Z1_KOTY
100
AcDbMText
10
295.0000
20
-23943.0000
40
90.0000
50
90.0000
71
5
1
400
7
OPTICORS
0
LWPOLYLINE
5
219
100
AcDbEntity
8
OPTICORS_RAMECEK
100
AcDbPolyline
90
4
70
1
10
0.0000
20
-24408.0000
10
10541.0000
20
-24408.0000
10
10541.0000
20
-20867.0000
10
0.0000
20
-20867.0000
0
MTEXT
5
21A
100
AcDbEntity
8
OPTICORS_HLAVICKA
100
AcDbMText
10
0.0000
20
-20672.0000
40
120.0000
71
1
1
ZTUŽIDLO Z1 — POHLEDY
7
OPTICORS
0
MTEXT
5
21B
100
AcDbEntity
8
OPTICORS_POZNAMKA
100
AcDbMText
10
10466.0000
20
-24333.0000
40
120.0000
71
9
1
IN DEVELOPMENT
7
OPTICORS
0
MTEXT
5
21C
100
AcDbEntity
8
OPTICORS_HLAVICKA
100
AcDbMText
10
9449.0000
20
-20672.0000
40
120.0000
71
1
1
MĚŘÍTKO  1:50
7
OPTICORS
0
MTEXT
5
21D
100
AcDbEntity
8
OPTICORS_ZTUZIDLO_Z1_POPIS
100
AcDbMText
10
11291.0000
20
-21177.0000
40
120.0000
71
1
1
GEOMETRIE
7
OPTICORS
0
MTEXT
5
21E
100
AcDbEntity
8
OPTICORS_ZTUZIDLO_Z1_POPIS
100
AcDbMText
10
11291.0000
20
-21327.0000
40
100.0000
71
1
1
Délka ztužidla:  9 400 mm
7
OPTICORS
0
MTEXT
5
21F
100
AcDbEntity
8
OPTICORS_ZTUZIDLO_Z1_POPIS
100
AcDbMText
10
11291.0000
20
-21477.0000
40
100.0000
71
1
1
Šířka průřezu:  160 mm
7
OPTICORS
0
MTEXT
5
220
100
AcDbEntity
8
OPTICORS_ZTUZIDLO_Z1_POPIS
100
AcDbMText
10
11291.0000
20
-21627.0000
40
100.0000
71
1
1
Výška průřezu:  400 mm
7
OPTICORS
0
MTEXT
5
221
100
AcDbEntity
8
OPTICORS_ZTUZIDLO_Z1_POPIS
100
AcDbMText
10
11291.0000
20
-21777.0000
40
100.0000
71
1
1
Objem prvku:  0,602 m3
7
OPTICORS
0
MTEXT
5
222
100
AcDbEntity
8
OPTICORS_ZTUZIDLO_Z1_POPIS
100
AcDbMText
10
11291.0000
20
-22002.0000
40
120.0000
71
1
1
VÝZTUŽ
7
OPTICORS
0
MTEXT
5
223
100
AcDbEntity
8
OPTICORS_ZTUZIDLO_Z1_POPIS
100
AcDbMText
10
11291.0000
20
-22152.0000
40
100.0000
71
1
1
Podélná výztuž:  2× %%c12 mm
7
OPTICORS
0
MTEXT
5
224
100
AcDbEntity
8
OPTICORS_ZTUZIDLO_Z1_POPIS
100
AcDbMText
10
11291.0000
20
-22302.0000
40
100.0000
71
1
1
Třmínky:  47× %%c6 mm / rozteč 200 mm
7
OPTICORS
0
MTEXT
5
225
100
AcDbEntity
8
OPTICORS_ZTUZIDLO_Z1_POPIS
100
AcDbMText
10
11291.0000
20
-22452.0000
40
100.0000
71
1
1
Rozměr třmínku:  60 × 300 mm
7
OPTICORS
0
MTEXT
5
226
100
AcDbEntity
8
OPTICORS_ZTUZIDLO_Z1_POPIS
100
AcDbMText
10
11291.0000
20
-22602.0000
40
100.0000
71
1
1
Obvod třmínku:  720 mm
7
OPTICORS
0
MTEXT
5
227
100
AcDbEntity
8
OPTICORS_ZTUZIDLO_Z1_POPIS
100
AcDbMText
10
11291.0000
20
-22827.0000
40
120.0000
71
1
1
MATERIÁLOVÁ BILANCE
7
OPTICORS
0
MTEXT
5
228
100
AcDbEntity
8
OPTICORS_ZTUZIDLO_Z1_POPIS
100
AcDbMText
10
11291.0000
20
-22977.0000
40
100.0000
71
1
1
Objem betonu:  0,602 m3
7
OPTICORS
0
MTEXT
5
229
100
AcDbEntity
8
OPTICORS_ZTUZIDLO_Z1_POPIS
100
AcDbMText
10
11291.0000
20
-23127.0000
40
100.0000
71
1
1
Podélná výztuž:  8,3 kg
7
OPTICORS
0
MTEXT
5
22A
100
AcDbEntity
8
OPTICORS_ZTUZIDLO_Z1_POPIS
100
AcDbMText
10
11291.0000
20
-23277.0000
40
100.0000
71
1
1
Třmínky:  5,1 kg
7
OPTICORS
0
MTEXT
5
22B
100
AcDbEntity
8
OPTICORS_ZTUZIDLO_Z1_POPIS
100
AcDbMText
10
11291.0000
20
-23427.0000
40
100.0000
71
1
1
Ocel celkem:  13,4 kg
7
OPTICORS
0
LWPOLYLINE
5
22C
100
AcDbEntity
8
OPTICORS_RAMECEK
100
AcDbPolyline
90
4
70
1
10
11041.0000
20
-23727.0000
10
13991.0000
20
-23727.0000
10
13991.0000
20
-20867.0000
10
11041.0000
20
-20867.0000
0
MTEXT
5
22D
100
AcDbEntity
8
OPTICORS_HLAVICKA
100
AcDbMText
10
11041.0000
20
-20672.0000
40
120.0000
71
1
1
ZTUŽIDLO Z1 — VÝSLEDKY
7
OPTICORS
0
MTEXT
5
22E
100
AcDbEntity
8
OPTICORS_POZNAMKA
100
AcDbMText
10
13916.0000
20
-23652.0000
40
120.0000
71
9
1
IN DEVELOPMENT
7
OPTICORS
0
LWPOLYLINE
5
22F
100
AcDbEntity
8
OPTICORS_VAZNIK_A_BETON
100
AcDbPolyline
90
5
70
1
10
876.0000
20
-26749.0000
10
9876.0000
20
-26479.0000
10
18876.0000
20
-26749.0000
10
18876.0000
20
-27829.0000
10
876.0000
20
-27829.0000
0
SOLID
5
230
100
AcDbEntity
8
OPTICORS_VAZNIK_A_BETON
100
AcDbTrace
10
801.0000
20
-26676.2163
30
0.0
11
9876.0000
21
-26403.9663
31
0.0
12
951.0000
22
-26821.7837
32
0.0
13
9876.0000
23
-26554.0337
33
0.0
0
SOLID
5
231
100
AcDbEntity
8
OPTICORS_VAZNIK_A_BETON
100
AcDbTrace
10
9876.0000
20
-26403.9663
30
0.0
11
18951.0000
21
-26676.2163
31
0.0
12
9876.0000
22
-26554.0337
32
0.0
13
18801.0000
23
-26821.7837
33
0.0
0
SOLID
5
232
100
AcDbEntity
8
OPTICORS_VAZNIK_A_BETON
100
AcDbTrace
10
18951.0000
20
-26676.2163
30
0.0
11
18951.0000
21
-27904.0000
31
0.0
12
18801.0000
22
-26821.7837
32
0.0
13
18801.0000
23
-27754.0000
33
0.0
0
SOLID
5
233
100
AcDbEntity
8
OPTICORS_VAZNIK_A_BETON
100
AcDbTrace
10
18951.0000
20
-27904.0000
30
0.0
11
801.0000
21
-27904.0000
31
0.0
12
18801.0000
22
-27754.0000
32
0.0
13
951.0000
23
-27754.0000
33
0.0
0
SOLID
5
234
100
AcDbEntity
8
OPTICORS_VAZNIK_A_BETON
100
AcDbTrace
10
801.0000
20
-27904.0000
30
0.0
11
801.0000
21
-26676.2163
31
0.0
12
951.0000
22
-27754.0000
32
0.0
13
951.0000
23
-26821.7837
33
0.0
0
LINE
5
235
100
AcDbEntity
8
OPTICORS_VAZNIK_A_BETON
100
AcDbLine
10
876.0000
20
-26899.0000
11
9876.0000
21
-26629.0000
0
SOLID
5
236
100
AcDbEntity
8
OPTICORS_VAZNIK_A_BETON
100
AcDbTrace
10
873.7510
20
-26824.0337
30
0.0
11
9873.7510
21
-26554.0337
31
0.0
12
878.2490
22
-26973.9663
32
0.0
13
9878.2490
23
-26703.9663
33
0.0
0
LINE
5
237
100
AcDbEntity
8
OPTICORS_VAZNIK_A_BETON
100
AcDbLine
10
9876.0000
20
-26629.0000
11
18876.0000
21
-26899.0000
0
SOLID
5
238
100
AcDbEntity
8
OPTICORS_VAZNIK_A_BETON
100
AcDbTrace
10
9878.2490
20
-26554.0337
30
0.0
11
18878.2490
21
-26824.0337
31
0.0
12
9873.7510
22
-26703.9663
32
0.0
13
18873.7510
23
-26973.9663
33
0.0
0
LINE
5
239
100
AcDbEntity
8
OPTICORS_VAZNIK_A_KOTY
100
AcDbLine
10
876.0000
20
-25979.0000
11
18876.0000
21
-25979.0000
0
LINE
5
23A
100
AcDbEntity
8
OPTICORS_VAZNIK_A_KOTY
100
AcDbLine
10
876.0000
20
-25956.5000
11
876.0000
21
-26001.5000
0
LINE
5
23B
100
AcDbEntity
8
OPTICORS_VAZNIK_A_KOTY
100
AcDbLine
10
861.0000
20
-25994.0000
11
891.0000
21
-25964.0000
0
LINE
5
23C
100
AcDbEntity
8
OPTICORS_VAZNIK_A_KOTY
100
AcDbLine
10
18876.0000
20
-25956.5000
11
18876.0000
21
-26001.5000
0
LINE
5
23D
100
AcDbEntity
8
OPTICORS_VAZNIK_A_KOTY
100
AcDbLine
10
18861.0000
20
-25994.0000
11
18891.0000
21
-25964.0000
0
MTEXT
5
23E
100
AcDbEntity
8
OPTICORS_VAZNIK_A_KOTY
100
AcDbMText
10
9876.0000
20
-25898.0000
40
90.0000
71
5
1
18 000
7
OPTICORS
0
LINE
5
23F
100
AcDbEntity
8
OPTICORS_VAZNIK_A_KOTY
100
AcDbLine
10
376.0000
20
-26479.0000
11
376.0000
21
-27829.0000
0
LINE
5
240
100
AcDbEntity
8
OPTICORS_VAZNIK_A_KOTY
100
AcDbLine
10
353.5000
20
-26479.0000
11
398.5000
21
-26479.0000
0
LINE
5
241
100
AcDbEntity
8
OPTICORS_VAZNIK_A_KOTY
100
AcDbLine
10
361.0000
20
-26494.0000
11
391.0000
21
-26464.0000
0
LINE
5
242
100
AcDbEntity
8
OPTICORS_VAZNIK_A_KOTY
100
AcDbLine
10
353.5000
20
-27829.0000
11
398.5000
21
-27829.0000
0
LINE
5
243
100
AcDbEntity
8
OPTICORS_VAZNIK_A_KOTY
100
AcDbLine
10
361.0000
20
-27844.0000
11
391.0000
21
-27814.0000
0
MTEXT
5
244
100
AcDbEntity
8
OPTICORS_VAZNIK_A_KOTY
100
AcDbMText
10
295.0000
20
-27154.0000
40
90.0000
50
90.0000
71
5
1
1 350
7
OPTICORS
0
LINE
5
245
100
AcDbEntity
8
OPTICORS_VAZNIK_A_KOTY
100
AcDbLine
10
626.0000
20
-26479.0000
11
626.0000
21
-26749.0000
0
LINE
5
246
100
AcDbEntity
8
OPTICORS_VAZNIK_A_KOTY
100
AcDbLine
10
603.5000
20
-26479.0000
11
648.5000
21
-26479.0000
0
LINE
5
247
100
AcDbEntity
8
OPTICORS_VAZNIK_A_KOTY
100
AcDbLine
10
611.0000
20
-26494.0000
11
641.0000
21
-26464.0000
0
LINE
5
248
100
AcDbEntity
8
OPTICORS_VAZNIK_A_KOTY
100
AcDbLine
10
603.5000
20
-26749.0000
11
648.5000
21
-26749.0000
0
LINE
5
249
100
AcDbEntity
8
OPTICORS_VAZNIK_A_KOTY
100
AcDbLine
10
611.0000
20
-26764.0000
11
641.0000
21
-26734.0000
0
MTEXT
5
24A
100
AcDbEntity
8
OPTICORS_VAZNIK_A_KOTY
100
AcDbMText
10
545.0000
20
-26614.0000
40
90.0000
50
90.0000
71
5
1
270
7
OPTICORS
0
LWPOLYLINE
5
24B
100
AcDbEntity
8
OPTICORS_VAZNIK_A_BETON
100
AcDbPolyline
90
8
70
1
10
876.0000
20
-29429.0000
10
1276.0000
20
-29429.0000
10
1276.0000
20
-29579.0000
10
1146.0000
20
-29604.0000
10
1146.0000
20
-30659.0000
10
1006.0000
20
-30659.0000
10
1006.0000
20
-29604.0000
10
876.0000
20
-29579.0000
0
SOLID
5
24C
100
AcDbEntity
8
OPTICORS_VAZNIK_A_BETON
100
AcDbTrace
10
801.0000
20
-29354.0000
30
0.0
11
1351.0000
21
-29354.0000
31
0.0
12
951.0000
22
-29504.0000
32
0.0
13
1201.0000
23
-29504.0000
33
0.0
0
SOLID
5
24D
100
AcDbEntity
8
OPTICORS_VAZNIK_A_BETON
100
AcDbTrace
10
1351.0000
20
-29354.0000
30
0.0
11
1351.0000
21
-29640.9512
31
0.0
12
1201.0000
22
-29504.0000
32
0.0
13
1201.0000
23
-29517.0488
33
0.0
0
SOLID
5
24E
100
AcDbEntity
8
OPTICORS_VAZNIK_A_BETON
100
AcDbTrace
10
1351.0000
20
-29640.9512
30
0.0
11
1221.0000
21
-29665.9512
31
0.0
12
1201.0000
22
-29517.0488
32
0.0
13
1071.0000
23
-29542.0488
33
0.0
0
SOLID
5
24F
100
AcDbEntity
8
OPTICORS_VAZNIK_A_BETON
100
AcDbTrace
10
1221.0000
20
-29665.9512
30
0.0
11
1221.0000
21
-30734.0000
31
0.0
12
1071.0000
22
-29542.0488
32
0.0
13
1071.0000
23
-30584.0000
33
0.0
0
SOLID
5
250
100
AcDbEntity
8
OPTICORS_VAZNIK_A_BETON
100
AcDbTrace
10
1221.0000
20
-30734.0000
30
0.0
11
931.0000
21
-30734.0000
31
0.0
12
1071.0000
22
-30584.0000
32
0.0
13
1081.0000
23
-30584.0000
33
0.0
0
SOLID
5
251
100
AcDbEntity
8
OPTICORS_VAZNIK_A_BETON
100
AcDbTrace
10
931.0000
20
-30734.0000
30
0.0
11
931.0000
21
-29665.9512
31
0.0
12
1081.0000
22
-30584.0000
32
0.0
13
1081.0000
23
-29542.0488
33
0.0
0
SOLID
5
252
100
AcDbEntity
8
OPTICORS_VAZNIK_A_BETON
100
AcDbTrace
10
931.0000
20
-29665.9512
30
0.0
11
801.0000
21
-29640.9512
31
0.0
12
1081.0000
22
-29542.0488
32
0.0
13
951.0000
23
-29517.0488
33
0.0
0
SOLID
5
253
100
AcDbEntity
8
OPTICORS_VAZNIK_A_BETON
100
AcDbTrace
10
801.0000
20
-29640.9512
30
0.0
11
801.0000
21
-29354.0000
31
0.0
12
951.0000
22
-29517.0488
32
0.0
13
951.0000
23
-29504.0000
33
0.0
0
LINE
5
254
100
AcDbEntity
8
OPTICORS_VAZNIK_A_KOTY
100
AcDbLine
10
876.0000
20
-28929.0000
11
1276.0000
21
-28929.0000
0
LINE
5
255
100
AcDbEntity
8
OPTICORS_VAZNIK_A_KOTY
100
AcDbLine
10
876.0000
20
-28906.5000
11
876.0000
21
-28951.5000
0
LINE
5
256
100
AcDbEntity
8
OPTICORS_VAZNIK_A_KOTY
100
AcDbLine
10
861.0000
20
-28944.0000
11
891.0000
21
-28914.0000
0
LINE
5
257
100
AcDbEntity
8
OPTICORS_VAZNIK_A_KOTY
100
AcDbLine
10
1276.0000
20
-28906.5000
11
1276.0000
21
-28951.5000
0
LINE
5
258
100
AcDbEntity
8
OPTICORS_VAZNIK_A_KOTY
100
AcDbLine
10
1261.0000
20
-28944.0000
11
1291.0000
21
-28914.0000
0
MTEXT
5
259
100
AcDbEntity
8
OPTICORS_VAZNIK_A_KOTY
100
AcDbMText
10
1076.0000
20
-28848.0000
40
90.0000
71
5
1
400
7
OPTICORS
0
LINE
5
25A
100
AcDbEntity
8
OPTICORS_VAZNIK_A_KOTY
100
AcDbLine
10
1006.0000
20
-29179.0000
11
1146.0000
21
-29179.0000
0
LINE
5
25B
100
AcDbEntity
8
OPTICORS_VAZNIK_A_KOTY
100
AcDbLine
10
1006.0000
20
-29156.5000
11
1006.0000
21
-29201.5000
0
LINE
5
25C
100
AcDbEntity
8
OPTICORS_VAZNIK_A_KOTY
100
AcDbLine
10
991.0000
20
-29194.0000
11
1021.0000
21
-29164.0000
0
LINE
5
25D
100
AcDbEntity
8
OPTICORS_VAZNIK_A_KOTY
100
AcDbLine
10
1146.0000
20
-29156.5000
11
1146.0000
21
-29201.5000
0
LINE
5
25E
100
AcDbEntity
8
OPTICORS_VAZNIK_A_KOTY
100
AcDbLine
10
1131.0000
20
-29194.0000
11
1161.0000
21
-29164.0000
0
MTEXT
5
25F
100
AcDbEntity
8
OPTICORS_VAZNIK_A_KOTY
100
AcDbMText
10
1076.0000
20
-29098.0000
40
90.0000
71
5
1
140
7
OPTICORS
0
LINE
5
260
100
AcDbEntity
8
OPTICORS_VAZNIK_A_KOTY
100
AcDbLine
10
376.0000
20
-29429.0000
11
376.0000
21
-30659.0000
0
LINE
5
261
100
AcDbEntity
8
OPTICORS_VAZNIK_A_KOTY
100
AcDbLine
10
353.5000
20
-29429.0000
11
398.5000
21
-29429.0000
0
LINE
5
262
100
AcDbEntity
8
OPTICORS_VAZNIK_A_KOTY
100
AcDbLine
10
361.0000
20
-29444.0000
11
391.0000
21
-29414.0000
0
LINE
5
263
100
AcDbEntity
8
OPTICORS_VAZNIK_A_KOTY
100
AcDbLine
10
353.5000
20
-30659.0000
11
398.5000
21
-30659.0000
0
LINE
5
264
100
AcDbEntity
8
OPTICORS_VAZNIK_A_KOTY
100
AcDbLine
10
361.0000
20
-30674.0000
11
391.0000
21
-30644.0000
0
MTEXT
5
265
100
AcDbEntity
8
OPTICORS_VAZNIK_A_KOTY
100
AcDbMText
10
295.0000
20
-30044.0000
40
90.0000
50
90.0000
71
5
1
1 230
7
OPTICORS
0
LWPOLYLINE
5
266
100
AcDbEntity
8
OPTICORS_VAZNIK_A_BETON
100
AcDbPolyline
90
8
70
1
10
2876.0000
20
-29429.0000
10
3276.0000
20
-29429.0000
10
3276.0000
20
-29579.0000
10
3146.0000
20
-29604.0000
10
3146.0000
20
-30929.0000
10
3006.0000
20
-30929.0000
10
3006.0000
20
-29604.0000
10
2876.0000
20
-29579.0000
0
SOLID
5
267
100
AcDbEntity
8
OPTICORS_VAZNIK_A_BETON
100
AcDbTrace
10
2801.0000
20
-29354.0000
30
0.0
11
3351.0000
21
-29354.0000
31
0.0
12
2951.0000
22
-29504.0000
32
0.0
13
3201.0000
23
-29504.0000
33
0.0
0
SOLID
5
268
100
AcDbEntity
8
OPTICORS_VAZNIK_A_BETON
100
AcDbTrace
10
3351.0000
20
-29354.0000
30
0.0
11
3351.0000
21
-29640.9512
31
0.0
12
3201.0000
22
-29504.0000
32
0.0
13
3201.0000
23
-29517.0488
33
0.0
0
SOLID
5
269
100
AcDbEntity
8
OPTICORS_VAZNIK_A_BETON
100
AcDbTrace
10
3351.0000
20
-29640.9512
30
0.0
11
3221.0000
21
-29665.9512
31
0.0
12
3201.0000
22
-29517.0488
32
0.0
13
3071.0000
23
-29542.0488
33
0.0
0
SOLID
5
26A
100
AcDbEntity
8
OPTICORS_VAZNIK_A_BETON
100
AcDbTrace
10
3221.0000
20
-29665.9512
30
0.0
11
3221.0000
21
-31004.0000
31
0.0
12
3071.0000
22
-29542.0488
32
0.0
13
3071.0000
23
-30854.0000
33
0.0
0
SOLID
5
26B
100
AcDbEntity
8
OPTICORS_VAZNIK_A_BETON
100
AcDbTrace
10
3221.0000
20
-31004.0000
30
0.0
11
2931.0000
21
-31004.0000
31
0.0
12
3071.0000
22
-30854.0000
32
0.0
13
3081.0000
23
-30854.0000
33
0.0
0
SOLID
5
26C
100
AcDbEntity
8
OPTICORS_VAZNIK_A_BETON
100
AcDbTrace
10
2931.0000
20
-31004.0000
30
0.0
11
2931.0000
21
-29665.9512
31
0.0
12
3081.0000
22
-30854.0000
32
0.0
13
3081.0000
23
-29542.0488
33
0.0
0
SOLID
5
26D
100
AcDbEntity
8
OPTICORS_VAZNIK_A_BETON
100
AcDbTrace
10
2931.0000
20
-29665.9512
30
0.0
11
2801.0000
21
-29640.9512
31
0.0
12
3081.0000
22
-29542.0488
32
0.0
13
2951.0000
23
-29517.0488
33
0.0
0
SOLID
5
26E
100
AcDbEntity
8
OPTICORS_VAZNIK_A_BETON
100
AcDbTrace
10
2801.0000
20
-29640.9512
30
0.0
11
2801.0000
21
-29354.0000
31
0.0
12
2951.0000
22
-29517.0488
32
0.0
13
2951.0000
23
-29504.0000
33
0.0
0
CIRCLE
5
26F
100
AcDbEntity
8
OPTICORS_VAZNIK_A_VYZTUZ
100
AcDbCircle
10
3026.0000
20
-30869.0000
40
12.5000
0
CIRCLE
5
270
100
AcDbEntity
8
OPTICORS_VAZNIK_A_VYZTUZ
100
AcDbCircle
10
3059.3333
20
-30869.0000
40
12.5000
0
CIRCLE
5
271
100
AcDbEntity
8
OPTICORS_VAZNIK_A_VYZTUZ
100
AcDbCircle
10
3092.6667
20
-30869.0000
40
12.5000
0
CIRCLE
5
272
100
AcDbEntity
8
OPTICORS_VAZNIK_A_VYZTUZ
100
AcDbCircle
10
3126.0000
20
-30869.0000
40
12.5000
0
CIRCLE
5
273
100
AcDbEntity
8
OPTICORS_VAZNIK_A_VYZTUZ
100
AcDbCircle
10
3026.0000
20
-30609.0000
40
5.0000
0
CIRCLE
5
274
100
AcDbEntity
8
OPTICORS_VAZNIK_A_VYZTUZ
100
AcDbCircle
10
3126.0000
20
-30609.0000
40
5.0000
0
CIRCLE
5
275
100
AcDbEntity
8
OPTICORS_VAZNIK_A_VYZTUZ
100
AcDbCircle
10
2896.0000
20
-29479.0000
40
6.0000
0
CIRCLE
5
276
100
AcDbEntity
8
OPTICORS_VAZNIK_A_VYZTUZ
100
AcDbCircle
10
3256.0000
20
-29479.0000
40
6.0000
0
LINE
5
277
100
AcDbEntity
8
OPTICORS_VAZNIK_A_KOTY
100
AcDbLine
10
2876.0000
20
-28929.0000
11
3276.0000
21
-28929.0000
0
LINE
5
278
100
AcDbEntity
8
OPTICORS_VAZNIK_A_KOTY
100
AcDbLine
10
2876.0000
20
-28906.5000
11
2876.0000
21
-28951.5000
0
LINE
5
279
100
AcDbEntity
8
OPTICORS_VAZNIK_A_KOTY
100
AcDbLine
10
2861.0000
20
-28944.0000
11
2891.0000
21
-28914.0000
0
LINE
5
27A
100
AcDbEntity
8
OPTICORS_VAZNIK_A_KOTY
100
AcDbLine
10
3276.0000
20
-28906.5000
11
3276.0000
21
-28951.5000
0
LINE
5
27B
100
AcDbEntity
8
OPTICORS_VAZNIK_A_KOTY
100
AcDbLine
10
3261.0000
20
-28944.0000
11
3291.0000
21
-28914.0000
0
MTEXT
5
27C
100
AcDbEntity
8
OPTICORS_VAZNIK_A_KOTY
100
AcDbMText
10
3076.0000
20
-28848.0000
40
90.0000
71
5
1
400
7
OPTICORS
0
LINE
5
27D
100
AcDbEntity
8
OPTICORS_VAZNIK_A_KOTY
100
AcDbLine
10
3006.0000
20
-29179.0000
11
3146.0000
21
-29179.0000
0
LINE
5
27E
100
AcDbEntity
8
OPTICORS_VAZNIK_A_KOTY
100
AcDbLine
10
3006.0000
20
-29156.5000
11
3006.0000
21
-29201.5000
0
LINE
5
27F
100
AcDbEntity
8
OPTICORS_VAZNIK_A_KOTY
100
AcDbLine
10
2991.0000
20
-29194.0000
11
3021.0000
21
-29164.0000
0
LINE
5
280
100
AcDbEntity
8
OPTICORS_VAZNIK_A_KOTY
100
AcDbLine
10
3146.0000
20
-29156.5000
11
3146.0000
21
-29201.5000
0
LINE
5
281
100
AcDbEntity
8
OPTICORS_VAZNIK_A_KOTY
100
AcDbLine
10
3131.0000
20
-29194.0000
11
3161.0000
21
-29164.0000
0
MTEXT
5
282
100
AcDbEntity
8
OPTICORS_VAZNIK_A_KOTY
100
AcDbMText
10
3076.0000
20
-29098.0000
40
90.0000
71
5
1
140
7
OPTICORS
0
LINE
5
283
100
AcDbEntity
8
OPTICORS_VAZNIK_A_KOTY
100
AcDbLine
10
2376.0000
20
-29429.0000
11
2376.0000
21
-30929.0000
0
LINE
5
284
100
AcDbEntity
8
OPTICORS_VAZNIK_A_KOTY
100
AcDbLine
10
2353.5000
20
-29429.0000
11
2398.5000
21
-29429.0000
0
LINE
5
285
100
AcDbEntity
8
OPTICORS_VAZNIK_A_KOTY
100
AcDbLine
10
2361.0000
20
-29444.0000
11
2391.0000
21
-29414.0000
0
LINE
5
286
100
AcDbEntity
8
OPTICORS_VAZNIK_A_KOTY
100
AcDbLine
10
2353.5000
20
-30929.0000
11
2398.5000
21
-30929.0000
0
LINE
5
287
100
AcDbEntity
8
OPTICORS_VAZNIK_A_KOTY
100
AcDbLine
10
2361.0000
20
-30944.0000
11
2391.0000
21
-30914.0000
0
MTEXT
5
288
100
AcDbEntity
8
OPTICORS_VAZNIK_A_KOTY
100
AcDbMText
10
2295.0000
20
-30179.0000
40
90.0000
50
90.0000
71
5
1
1 500
7
OPTICORS
0
LWPOLYLINE
5
289
100
AcDbEntity
8
OPTICORS_RAMECEK
100
AcDbPolyline
90
4
70
1
10
0.0000
20
-31194.0000
10
19141.0000
20
-31194.0000
10
19141.0000
20
-25603.0000
10
0.0000
20
-25603.0000
0
MTEXT
5
28A
100
AcDbEntity
8
OPTICORS_HLAVICKA
100
AcDbMText
10
0.0000
20
-25408.0000
40
120.0000
71
1
1
VAZNÍK A — POHLEDY
7
OPTICORS
0
MTEXT
5
28B
100
AcDbEntity
8
OPTICORS_POZNAMKA
100
AcDbMText
10
19066.0000
20
-31119.0000
40
120.0000
71
9
1
IN DEVELOPMENT
7
OPTICORS
0
MTEXT
5
28C
100
AcDbEntity
8
OPTICORS_HLAVICKA
100
AcDbMText
10
18049.0000
20
-25408.0000
40
120.0000
71
1
1
MĚŘÍTKO  1:50
7
OPTICORS
0
MTEXT
5
28D
100
AcDbEntity
8
OPTICORS_VAZNIK_A_POPIS
100
AcDbMText
10
19891.0000
20
-25913.0000
40
120.0000
71
1
1
GEOMETRIE
7
OPTICORS
0
MTEXT
5
28E
100
AcDbEntity
8
OPTICORS_VAZNIK_A_POPIS
100
AcDbMText
10
19891.0000
20
-26063.0000
40
100.0000
71
1
1
Rozpětí:  18,00 m
7
OPTICORS
0
MTEXT
5
28F
100
AcDbEntity
8
OPTICORS_VAZNIK_A_POPIS
100
AcDbMText
10
19891.0000
20
-26213.0000
40
100.0000
71
1
1
Šířka příruby b_f:  400 mm
7
OPTICORS
0
MTEXT
5
290
100
AcDbEntity
8
OPTICORS_VAZNIK_A_POPIS
100
AcDbMText
10
19891.0000
20
-26363.0000
40
100.0000
71
1
1
Výška příruby h_f:  150 mm
7
OPTICORS
0
MTEXT
5
291
100
AcDbEntity
8
OPTICORS_VAZNIK_A_POPIS
100
AcDbMText
10
19891.0000
20
-26513.0000
40
100.0000
71
1
1
Šířka stojiny b_w:  140 mm
7
OPTICORS
0
MTEXT
5
292
100
AcDbEntity
8
OPTICORS_VAZNIK_A_POPIS
100
AcDbMText
10
19891.0000
20
-26663.0000
40
100.0000
71
1
1
Výška průřezu h:  1 500 mm
7
OPTICORS
0
MTEXT
5
293
100
AcDbEntity
8
OPTICORS_VAZNIK_A_POPIS
100
AcDbMText
10
19891.0000
20
-26813.0000
40
100.0000
71
1
1
Plocha průřezu A_c:  0,300 m2
7
OPTICORS
0
MTEXT
5
294
100
AcDbEntity
8
OPTICORS_VAZNIK_A_POPIS
100
AcDbMText
10
19891.0000
20
-27038.0000
40
120.0000
71
1
1
MATERIÁL
7
OPTICORS
0
MTEXT
5
295
100
AcDbEntity
8
OPTICORS_VAZNIK_A_POPIS
100
AcDbMText
10
19891.0000
20
-27188.0000
40
100.0000
71
1
1
Beton:  C30/37
7
OPTICORS
0
MTEXT
5
296
100
AcDbEntity
8
OPTICORS_VAZNIK_A_POPIS
100
AcDbMText
10
19891.0000
20
-27338.0000
40
100.0000
71
1
1
Ocel:  B500B
7
OPTICORS
0
MTEXT
5
297
100
AcDbEntity
8
OPTICORS_VAZNIK_A_POPIS
100
AcDbMText
10
19891.0000
20
-27488.0000
40
100.0000
71
1
1
fcd / fyd:  20,0 / 434,8 MPa
7
OPTICORS
0
MTEXT
5
298
100
AcDbEntity
8
OPTICORS_VAZNIK_A_POPIS
100
AcDbMText
10
19891.0000
20
-27713.0000
40
120.0000
71
1
1
VÝZTUŽ
7
OPTICORS
0
MTEXT
5
299
100
AcDbEntity
8
OPTICORS_VAZNIK_A_POPIS
100
AcDbMText
10
19891.0000
20
-27863.0000
40
100.0000
71
1
1
Hlavní vrstva:  4× %%c25 mm (z = 60 mm)
7
OPTICORS
0
MTEXT
5
29A
100
AcDbEntity
8
OPTICORS_VAZNIK_A_POPIS
100
AcDbMText
10
19891.0000
20
-28013.0000
40
100.0000
71
1
1
Mezilehlá vrstva:  2× %%c10 mm (z = 320 mm)
7
OPTICORS
0
MTEXT
5
29B
100
AcDbEntity
8
OPTICORS_VAZNIK_A_POPIS
100
AcDbMText
10
19891.0000
20
-28163.0000
40
100.0000
71
1
1
Horní vrstva:  2× %%c12 mm (z = 1 450 mm)
7
OPTICORS
0
MTEXT
5
29C
100
AcDbEntity
8
OPTICORS_VAZNIK_A_POPIS
100
AcDbMText
10
19891.0000
20
-28313.0000
40
100.0000
71
1
1
Plocha výztuže A_s:  2 346 mm2
7
OPTICORS
0
MTEXT
5
29D
100
AcDbEntity
8
OPTICORS_VAZNIK_A_POPIS
100
AcDbMText
10
19891.0000
20
-28463.0000
40
100.0000
71
1
1
Min / max A_s:  400 / 6 000 mm2
7
OPTICORS
0
MTEXT
5
29E
100
AcDbEntity
8
OPTICORS_VAZNIK_A_POPIS
100
AcDbMText
10
19891.0000
20
-28613.0000
40
100.0000
71
1
1
Třmínky %%c:  8 mm
7
OPTICORS
0
MTEXT
5
29F
100
AcDbEntity
8
OPTICORS_VAZNIK_A_POPIS
100
AcDbMText
10
19891.0000
20
-28763.0000
40
100.0000
71
1
1
Rozteč třmínků I/II/III:  100 / 150 / 200 mm
7
OPTICORS
0
MTEXT
5
2A0
100
AcDbEntity
8
OPTICORS_VAZNIK_A_POPIS
100
AcDbMText
10
19891.0000
20
-28988.0000
40
120.0000
71
1
1
MATERIÁLOVÁ BILANCE
7
OPTICORS
0
MTEXT
5
2A1
100
AcDbEntity
8
OPTICORS_VAZNIK_A_POPIS
100
AcDbMText
10
19891.0000
20
-29138.0000
40
100.0000
71
1
1
Objem betonu:  1,500 m3
7
OPTICORS
0
MTEXT
5
2A2
100
AcDbEntity
8
OPTICORS_VAZNIK_A_POPIS
100
AcDbMText
10
19891.0000
20
-29288.0000
40
100.0000
71
1
1
Hmotnost betonu:  3 750 kg
7
OPTICORS
0
MTEXT
5
2A3
100
AcDbEntity
8
OPTICORS_VAZNIK_A_POPIS
100
AcDbMText
10
19891.0000
20
-29438.0000
40
100.0000
71
1
1
Podélná výztuž:  230,0 kg
7
OPTICORS
0
MTEXT
5
2A4
100
AcDbEntity
8
OPTICORS_VAZNIK_A_POPIS
100
AcDbMText
10
19891.0000
20
-29588.0000
40
100.0000
71
1
1
Třmínky:  60,0 kg
7
OPTICORS
0
MTEXT
5
2A5
100
AcDbEntity
8
OPTICORS_VAZNIK_A_POPIS
100
AcDbMText
10
19891.0000
20
-29738.0000
40
100.0000
71
1
1
Výztuž celkem:  290,0 kg
7
OPTICORS
0
MTEXT
5
2A6
100
AcDbEntity
8
OPTICORS_VAZNIK_A_POPIS
100
AcDbMText
10
19891.0000
20
-29888.0000
40
100.0000
71
1
1
Měrná spotřeba:  193 kg/m3
7
OPTICORS
0
MTEXT
5
2A7
100
AcDbEntity
8
OPTICORS_VAZNIK_A_POPIS
100
AcDbMText
10
19891.0000
20
-30113.0000
40
120.0000
71
1
1
POSOUZENÍ
7
OPTICORS
0
MTEXT
5
2A8
100
AcDbEntity
8
OPTICORS_VAZNIK_A_POPIS
100
AcDbMText
10
19891.0000
20
-30263.0000
40
100.0000
71
1
1
Moment MEd / MRd:  810,00 / 900,00 kNm
7
OPTICORS
0
MTEXT
5
2A9
100
AcDbEntity
8
OPTICORS_VAZNIK_A_POPIS
100
AcDbMText
10
19891.0000
20
-30413.0000
40
100.0000
71
1
1
Využití ohyb:  90,0 %
7
OPTICORS
0
MTEXT
5
2AA
100
AcDbEntity
8
OPTICORS_VAZNIK_A_POPIS
100
AcDbMText
10
19891.0000
20
-30563.0000
40
100.0000
71
1
1
Průhyb w / wlim:  40,0 / 72,0 mm
7
OPTICORS
0
MTEXT
5
2AB
100
AcDbEntity
8
OPTICORS_VAZNIK_A_POPIS
100
AcDbMText
10
19891.0000
20
-30713.0000
40
100.0000
71
1
1
Vyhovuje:  ANO
7
OPTICORS
0
LWPOLYLINE
5
2AC
100
AcDbEntity
8
OPTICORS_RAMECEK
100
AcDbPolyline
90
4
70
1
10
19641.0000
20
-31013.0000
10
23221.0000
20
-31013.0000
10
23221.0000
20
-25603.0000
10
19641.0000
20
-25603.0000
0
MTEXT
5
2AD
100
AcDbEntity
8
OPTICORS_HLAVICKA
100
AcDbMText
10
19641.0000
20
-25408.0000
40
120.0000
71
1
1
VAZNÍK A — VÝSLEDKY
7
OPTICORS
0
MTEXT
5
2AE
100
AcDbEntity
8
OPTICORS_POZNAMKA
100
AcDbMText
10
23146.0000
20
-30938.0000
40
120.0000
71
9
1
IN DEVELOPMENT
7
OPTICORS
0
LWPOLYLINE
5
2AF
100
AcDbEntity
8
OPTICORS_VAZNICE_A1_BETON
100
AcDbPolyline
90
8
70
1
10
876.0000
20
-33265.0000
10
6876.0000
20
-33265.0000
10
6876.0000
20
-33465.0000
10
6676.0000
20
-33465.0000
10
6676.0000
20
-33665.0000
10
1076.0000
20
-33665.0000
10
1076.0000
20
-33465.0000
10
876.0000
20
-33465.0000
0
SOLID
5
2B0
100
AcDbEntity
8
OPTICORS_VAZNICE_A1_BETON
100
AcDbTrace
10
801.0000
20
-33190.0000
30
0.0
11
6951.0000
21
-33190.0000
31
0.0
12
951.0000
22
-33340.0000
32
0.0
13
6801.0000
23
-33340.0000
33
0.0
0
SOLID
5
2B1
100
AcDbEntity
8
OPTICORS_VAZNICE_A1_BETON
100
AcDbTrace
10
6951.0000
20
-33190.0000
30
0.0
11
6951.0000
21
-33540.0000
31
0.0
12
6801.0000
22
-33340.0000
32
0.0
13
6801.0000
23
-33390.0000
33
0.0
0
SOLID
5
2B2
100
AcDbEntity
8
OPTICORS_VAZNICE_A1_BETON
100
AcDbTrace
10
6951.0000
20
-33540.0000
30
0.0
11
6751.0000
21
-33540.0000
31
0.0
12
6801.0000
22
-33390.0000
32
0.0
13
6601.0000
23
-33390.0000
33
0.0
0
SOLID
5
2B3
100
AcDbEntity
8
OPTICORS_VAZNICE_A1_BETON
100
AcDbTrace
10
6751.0000
20
-33540.0000
30
0.0
11
6751.0000
21
-33740.0000
31
0.0
12
6601.0000
22
-33390.0000
32
0.0
13
6601.0000
23
-33590.0000
33
0.0
0
SOLID
5
2B4
100
AcDbEntity
8
OPTICORS_VAZNICE_A1_BETON
100
AcDbTrace
10
6751.0000
20
-33740.0000
30
0.0
11
1001.0000
21
-33740.0000
31
0.0
12
6601.0000
22
-33590.0000
32
0.0
13
1151.0000
23
-33590.0000
33
0.0
0
SOLID
5
2B5
100
AcDbEntity
8
OPTICORS_VAZNICE_A1_BETON
100
AcDbTrace
10
1001.0000
20
-33740.0000
30
0.0
11
1001.0000
21
-33540.0000
31
0.0
12
1151.0000
22
-33590.0000
32
0.0
13
1151.0000
23
-33390.0000
33
0.0
0
SOLID
5
2B6
100
AcDbEntity
8
OPTICORS_VAZNICE_A1_BETON
100
AcDbTrace
10
1001.0000
20
-33540.0000
30
0.0
11
801.0000
21
-33540.0000
31
0.0
12
1151.0000
22
-33390.0000
32
0.0
13
951.0000
23
-33390.0000
33
0.0
0
SOLID
5
2B7
100
AcDbEntity
8
OPTICORS_VAZNICE_A1_BETON
100
AcDbTrace
10
801.0000
20
-33540.0000
30
0.0
11
801.0000
21
-33190.0000
31
0.0
12
951.0000
22
-33390.0000
32
0.0
13
951.0000
23
-33340.0000
33
0.0
0
LINE
5
2B8
100
AcDbEntity
8
OPTICORS_VAZNICE_A1_VYZTUZ
100
AcDbLine
10
911.0000
20
-33300.0000
11
6841.0000
21
-33300.0000
0
LINE
5
2B9
100
AcDbEntity
8
OPTICORS_VAZNICE_A1_VYZTUZ
100
AcDbLine
10
1111.0000
20
-33630.0000
11
6641.0000
21
-33630.0000
0
LINE
5
2BA
100
AcDbEntity
8
OPTICORS_VAZNICE_A1_KOTY
100
AcDbLine
10
876.0000
20
-32765.0000
11
6876.0000
21
-32765.0000
0
LINE
5
2BB
100
AcDbEntity
8
OPTICORS_VAZNICE_A1_KOTY
100
AcDbLine
10
876.0000
20
-32742.5000
11
876.0000
21
-32787.5000
0
LINE
5
2BC
100
AcDbEntity
8
OPTICORS_VAZNICE_A1_KOTY
100
AcDbLine
10
861.0000
20
-32780.0000
11
891.0000
21
-32750.0000
0
LINE
5
2BD
100
AcDbEntity
8
OPTICORS_VAZNICE_A1_KOTY
100
AcDbLine
10
6876.0000
20
-32742.5000
11
6876.0000
21
-32787.5000
0
LINE
5
2BE
100
AcDbEntity
8
OPTICORS_VAZNICE_A1_KOTY
100
AcDbLine
10
6861.0000
20
-32780.0000
11
6891.0000
21
-32750.0000
0
MTEXT
5
2BF
100
AcDbEntity
8
OPTICORS_VAZNICE_A1_KOTY
100
AcDbMText
10
3876.0000
20
-32684.0000
40
90.0000
71
5
1
6 000
7
OPTICORS
0
LINE
5
2C0
100
AcDbEntity
8
OPTICORS_VAZNICE_A1_KOTY
100
AcDbLine
10
876.0000
20
-33015.0000
11
1076.0000
21
-33015.0000
0
LINE
5
2C1
100
AcDbEntity
8
OPTICORS_VAZNICE_A1_KOTY
100
AcDbLine
10
876.0000
20
-32992.5000
11
876.0000
21
-33037.5000
0
LINE
5
2C2
100
AcDbEntity
8
OPTICORS_VAZNICE_A1_KOTY
100
AcDbLine
10
861.0000
20
-33030.0000
11
891.0000
21
-33000.0000
0
LINE
5
2C3
100
AcDbEntity
8
OPTICORS_VAZNICE_A1_KOTY
100
AcDbLine
10
1076.0000
20
-32992.5000
11
1076.0000
21
-33037.5000
0
LINE
5
2C4
100
AcDbEntity
8
OPTICORS_VAZNICE_A1_KOTY
100
AcDbLine
10
1061.0000
20
-33030.0000
11
1091.0000
21
-33000.0000
0
MTEXT
5
2C5
100
AcDbEntity
8
OPTICORS_VAZNICE_A1_KOTY
100
AcDbMText
10
976.0000
20
-32934.0000
40
90.0000
71
5
1
200
7
OPTICORS
0
LINE
5
2C6
100
AcDbEntity
8
OPTICORS_VAZNICE_A1_KOTY
100
AcDbLine
10
1076.0000
20
-33015.0000
11
6676.0000
21
-33015.0000
0
LINE
5
2C7
100
AcDbEntity
8
OPTICORS_VAZNICE_A1_KOTY
100
AcDbLine
10
1076.0000
20
-32992.5000
11
1076.0000
21
-33037.5000
0
LINE
5
2C8
100
AcDbEntity
8
OPTICORS_VAZNICE_A1_KOTY
100
AcDbLine
10
1061.0000
20
-33030.0000
11
1091.0000
21
-33000.0000
0
LINE
5
2C9
100
AcDbEntity
8
OPTICORS_VAZNICE_A1_KOTY
100
AcDbLine
10
6676.0000
20
-32992.5000
11
6676.0000
21
-33037.5000
0
LINE
5
2CA
100
AcDbEntity
8
OPTICORS_VAZNICE_A1_KOTY
100
AcDbLine
10
6661.0000
20
-33030.0000
11
6691.0000
21
-33000.0000
0
MTEXT
5
2CB
100
AcDbEntity
8
OPTICORS_VAZNICE_A1_KOTY
100
AcDbMText
10
3876.0000
20
-32934.0000
40
90.0000
71
5
1
5 600
7
OPTICORS
0
LINE
5
2CC
100
AcDbEntity
8
OPTICORS_VAZNICE_A1_KOTY
100
AcDbLine
10
376.0000
20
-33265.0000
11
376.0000
21
-33665.0000
0
LINE
5
2CD
100
AcDbEntity
8
OPTICORS_VAZNICE_A1_KOTY
100
AcDbLine
10
353.5000
20
-33265.0000
11
398.5000
21
-33265.0000
0
LINE
5
2CE
100
AcDbEntity
8
OPTICORS_VAZNICE_A1_KOTY
100
AcDbLine
10
361.0000
20
-33280.0000
11
391.0000
21
-33250.0000
0
LINE
5
2CF
100
AcDbEntity
8
OPTICORS_VAZNICE_A1_KOTY
100
AcDbLine
10
353.5000
20
-33665.0000
11
398.5000
21
-33665.0000
0
LINE
5
2D0
100
AcDbEntity
8
OPTICORS_VAZNICE_A1_KOTY
100
AcDbLine
10
361.0000
20
-33680.0000
11
391.0000
21
-33650.0000
0
MTEXT
5
2D1
100
AcDbEntity
8
OPTICORS_VAZNICE_A1_KOTY
100
AcDbMText
10
295.0000
20
-33465.0000
40
90.0000
50
90.0000
71
5
1
400
7
OPTICORS
0
LWPOLYLINE
5
2D2
100
AcDbEntity
8
OPTICORS_VAZNICE_A1_BETON
100
AcDbPolyline
90
4
70
1
10
876.0000
20
-35265.0000
10
1076.0000
20
-35265.0000
10
1076.0000
20
-35665.0000
10
876.0000
20
-35665.0000
0
SOLID
5
2D3
100
AcDbEntity
8
OPTICORS_VAZNICE_A1_BETON
100
AcDbTrace
10
801.0000
20
-35190.0000
30
0.0
11
1151.0000
21
-35190.0000
31
0.0
12
951.0000
22
-35340.0000
32
0.0
13
1001.0000
23
-35340.0000
33
0.0
0
SOLID
5
2D4
100
AcDbEntity
8
OPTICORS_VAZNICE_A1_BETON
100
AcDbTrace
10
1151.0000
20
-35190.0000
30
0.0
11
1151.0000
21
-35740.0000
31
0.0
12
1001.0000
22
-35340.0000
32
0.0
13
1001.0000
23
-35590.0000
33
0.0
0
SOLID
5
2D5
100
AcDbEntity
8
OPTICORS_VAZNICE_A1_BETON
100
AcDbTrace
10
1151.0000
20
-35740.0000
30
0.0
11
801.0000
21
-35740.0000
31
0.0
12
1001.0000
22
-35590.0000
32
0.0
13
951.0000
23
-35590.0000
33
0.0
0
SOLID
5
2D6
100
AcDbEntity
8
OPTICORS_VAZNICE_A1_BETON
100
AcDbTrace
10
801.0000
20
-35740.0000
30
0.0
11
801.0000
21
-35190.0000
31
0.0
12
951.0000
22
-35590.0000
32
0.0
13
951.0000
23
-35340.0000
33
0.0
0
CIRCLE
5
2D7
100
AcDbEntity
8
OPTICORS_VAZNICE_A1_VYZTUZ
100
AcDbCircle
10
911.0000
20
-35300.0000
40
10.0000
0
CIRCLE
5
2D8
100
AcDbEntity
8
OPTICORS_VAZNICE_A1_VYZTUZ
100
AcDbCircle
10
1041.0000
20
-35300.0000
40
10.0000
0
CIRCLE
5
2D9
100
AcDbEntity
8
OPTICORS_VAZNICE_A1_VYZTUZ
100
AcDbCircle
10
911.0000
20
-35630.0000
40
10.0000
0
CIRCLE
5
2DA
100
AcDbEntity
8
OPTICORS_VAZNICE_A1_VYZTUZ
100
AcDbCircle
10
1041.0000
20
-35630.0000
40
10.0000
0
LINE
5
2DB
100
AcDbEntity
8
OPTICORS_VAZNICE_A1_KOTY
100
AcDbLine
10
876.0000
20
-34765.0000
11
1076.0000
21
-34765.0000
0
LINE
5
2DC
100
AcDbEntity
8
OPTICORS_VAZNICE_A1_KOTY
100
AcDbLine
10
876.0000
20
-34742.5000
11
876.0000
21
-34787.5000
0
LINE
5
2DD
100
AcDbEntity
8
OPTICORS_VAZNICE_A1_KOTY
100
AcDbLine
10
861.0000
20
-34780.0000
11
891.0000
21
-34750.0000
0
LINE
5
2DE
100
AcDbEntity
8
OPTICORS_VAZNICE_A1_KOTY
100
AcDbLine
10
1076.0000
20
-34742.5000
11
1076.0000
21
-34787.5000
0
LINE
5
2DF
100
AcDbEntity
8
OPTICORS_VAZNICE_A1_KOTY
100
AcDbLine
10
1061.0000
20
-34780.0000
11
1091.0000
21
-34750.0000
0
MTEXT
5
2E0
100
AcDbEntity
8
OPTICORS_VAZNICE_A1_KOTY
100
AcDbMText
10
976.0000
20
-34684.0000
40
90.0000
71
5
1
200
7
OPTICORS
0
LINE
5
2E1
100
AcDbEntity
8
OPTICORS_VAZNICE_A1_KOTY
100
AcDbLine
10
376.0000
20
-35265.0000
11
376.0000
21
-35665.0000
0
LINE
5
2E2
100
AcDbEntity
8
OPTICORS_VAZNICE_A1_KOTY
100
AcDbLine
10
353.5000
20
-35265.0000
11
398.5000
21
-35265.0000
0
LINE
5
2E3
100
AcDbEntity
8
OPTICORS_VAZNICE_A1_KOTY
100
AcDbLine
10
361.0000
20
-35280.0000
11
391.0000
21
-35250.0000
0
LINE
5
2E4
100
AcDbEntity
8
OPTICORS_VAZNICE_A1_KOTY
100
AcDbLine
10
353.5000
20
-35665.0000
11
398.5000
21
-35665.0000
0
LINE
5
2E5
100
AcDbEntity
8
OPTICORS_VAZNICE_A1_KOTY
100
AcDbLine
10
361.0000
20
-35680.0000
11
391.0000
21
-35650.0000
0
MTEXT
5
2E6
100
AcDbEntity
8
OPTICORS_VAZNICE_A1_KOTY
100
AcDbMText
10
295.0000
20
-35465.0000
40
90.0000
50
90.0000
71
5
1
400
7
OPTICORS
0
LWPOLYLINE
5
2E7
100
AcDbEntity
8
OPTICORS_RAMECEK
100
AcDbPolyline
90
4
70
1
10
0.0000
20
-35930.0000
10
7141.0000
20
-35930.0000
10
7141.0000
20
-32389.0000
10
0.0000
20
-32389.0000
0
MTEXT
5
2E8
100
AcDbEntity
8
OPTICORS_HLAVICKA
100
AcDbMText
10
0.0000
20
-32194.0000
40
120.0000
71
1
1
VAZNICE A1 — POHLEDY
7
OPTICORS
0
MTEXT
5
2E9
100
AcDbEntity
8
OPTICORS_POZNAMKA
100
AcDbMText
10
7066.0000
20
-35855.0000
40
120.0000
71
9
1
IN DEVELOPMENT
7
OPTICORS
0
MTEXT
5
2EA
100
AcDbEntity
8
OPTICORS_HLAVICKA
100
AcDbMText
10
6049.0000
20
-32194.0000
40
120.0000
71
1
1
MĚŘÍTKO  1:50
7
OPTICORS
0
MTEXT
5
2EB
100
AcDbEntity
8
OPTICORS_VAZNICE_A1_POPIS
100
AcDbMText
10
7891.0000
20
-32699.0000
40
120.0000
71
1
1
GEOMETRIE
7
OPTICORS
0
MTEXT
5
2EC
100
AcDbEntity
8
OPTICORS_VAZNICE_A1_POPIS
100
AcDbMText
10
7891.0000
20
-32849.0000
40
100.0000
71
1
1
Rozpětí:  6,00 m
7
OPTICORS
0
MTEXT
5
2ED
100
AcDbEntity
8
OPTICORS_VAZNICE_A1_POPIS
100
AcDbMText
10
7891.0000
20
-32999.0000
40
100.0000
71
1
1
Šířka průřezu:  200 mm
7
OPTICORS
0
MTEXT
5
2EE
100
AcDbEntity
8
OPTICORS_VAZNICE_A1_POPIS
100
AcDbMText
10
7891.0000
20
-33149.0000
40
100.0000
71
1
1
Výška průřezu:  400 mm
7
OPTICORS
0
MTEXT
5
2EF
100
AcDbEntity
8
OPTICORS_VAZNICE_A1_POPIS
100
AcDbMText
10
7891.0000
20
-33374.0000
40
120.0000
71
1
1
MATERIÁL
7
OPTICORS
0
MTEXT
5
2F0
100
AcDbEntity
8
OPTICORS_VAZNICE_A1_POPIS
100
AcDbMText
10
7891.0000
20
-33524.0000
40
100.0000
71
1
1
Beton:  C30/37
7
OPTICORS
0
MTEXT
5
2F1
100
AcDbEntity
8
OPTICORS_VAZNICE_A1_POPIS
100
AcDbMText
10
7891.0000
20
-33674.0000
40
100.0000
71
1
1
Ocel:  B500B
7
OPTICORS
0
MTEXT
5
2F2
100
AcDbEntity
8
OPTICORS_VAZNICE_A1_POPIS
100
AcDbMText
10
7891.0000
20
-33824.0000
40
100.0000
71
1
1
fcd / fyd:  20,0 / 434,8 MPa
7
OPTICORS
0
MTEXT
5
2F3
100
AcDbEntity
8
OPTICORS_VAZNICE_A1_POPIS
100
AcDbMText
10
7891.0000
20
-34049.0000
40
120.0000
71
1
1
VÝZTUŽ
7
OPTICORS
0
MTEXT
5
2F4
100
AcDbEntity
8
OPTICORS_VAZNICE_A1_POPIS
100
AcDbMText
10
7891.0000
20
-34199.0000
40
100.0000
71
1
1
Horní výztuž:  2× %%c12 mm
7
OPTICORS
0
MTEXT
5
2F5
100
AcDbEntity
8
OPTICORS_VAZNICE_A1_POPIS
100
AcDbMText
10
7891.0000
20
-34349.0000
40
100.0000
71
1
1
Spodní 1. vrstva:  3× %%c16 mm
7
OPTICORS
0
MTEXT
5
2F6
100
AcDbEntity
8
OPTICORS_VAZNICE_A1_POPIS
100
AcDbMText
10
7891.0000
20
-34499.0000
40
100.0000
71
1
1
Plocha výztuže As:  829 mm2
7
OPTICORS
0
MTEXT
5
2F7
100
AcDbEntity
8
OPTICORS_VAZNICE_A1_POPIS
100
AcDbMText
10
7891.0000
20
-34649.0000
40
100.0000
71
1
1
Třmínky %%c:  8 mm
7
OPTICORS
0
MTEXT
5
2F8
100
AcDbEntity
8
OPTICORS_VAZNICE_A1_POPIS
100
AcDbMText
10
7891.0000
20
-34799.0000
40
100.0000
71
1
1
Rozteč třmínků I/II/III:  100 / 150 / 200 mm
7
OPTICORS
0
MTEXT
5
2F9
100
AcDbEntity
8
OPTICORS_VAZNICE_A1_POPIS
100
AcDbMText
10
7891.0000
20
-35024.0000
40
120.0000
71
1
1
MATERIÁLOVÁ BILANCE
7
OPTICORS
0
MTEXT
5
2FA
100
AcDbEntity
8
OPTICORS_VAZNICE_A1_POPIS
100
AcDbMText
10
7891.0000
20
-35174.0000
40
100.0000
71
1
1
Objem betonu:  0,480 m3
7
OPTICORS
0
MTEXT
5
2FB
100
AcDbEntity
8
OPTICORS_VAZNICE_A1_POPIS
100
AcDbMText
10
7891.0000
20
-35324.0000
40
100.0000
71
1
1
Hmotnost betonu:  1 200 kg
7
OPTICORS
0
MTEXT
5
2FC
100
AcDbEntity
8
OPTICORS_VAZNICE_A1_POPIS
100
AcDbMText
10
7891.0000
20
-35474.0000
40
100.0000
71
1
1
Podélná výztuž:  45,0 kg
7
OPTICORS
0
MTEXT
5
2FD
100
AcDbEntity
8
OPTICORS_VAZNICE_A1_POPIS
100
AcDbMText
10
7891.0000
20
-35624.0000
40
100.0000
71
1
1
Třmínky:  12,0 kg
7
OPTICORS
0
MTEXT
5
2FE
100
AcDbEntity
8
OPTICORS_VAZNICE_A1_POPIS
100
AcDbMText
10
7891.0000
20
-35774.0000
40
100.0000
71
1
1
Výztuž celkem:  57,0 kg
7
OPTICORS
0
MTEXT
5
2FF
100
AcDbEntity
8
OPTICORS_VAZNICE_A1_POPIS
100
AcDbMText
10
7891.0000
20
-35924.0000
40
100.0000
71
1
1
Měrná spotřeba:  119 kg/m3
7
OPTICORS
0
MTEXT
5
300
100
AcDbEntity
8
OPTICORS_VAZNICE_A1_POPIS
100
AcDbMText
10
7891.0000
20
-36149.0000
40
120.0000
71
1
1
POSOUZENÍ
7
OPTICORS
0
MTEXT
5
301
100
AcDbEntity
8
OPTICORS_VAZNICE_A1_POPIS
100
AcDbMText
10
7891.0000
20
-36299.0000
40
100.0000
71
1
1
Moment MEd / MRd:  36,00 / 48,00 kNm
7
OPTICORS
0
MTEXT
5
302
100
AcDbEntity
8
OPTICORS_VAZNICE_A1_POPIS
100
AcDbMText
10
7891.0000
20
-36449.0000
40
100.0000
71
1
1
Využití ohyb:  75,0 %
7
OPTICORS
0
MTEXT
5
303
100
AcDbEntity
8
OPTICORS_VAZNICE_A1_POPIS
100
AcDbMText
10
7891.0000
20
-36599.0000
40
100.0000
71
1
1
Průhyb w / wlim:  18,0 / 24,0 mm
7
OPTICORS
0
MTEXT
5
304
100
AcDbEntity
8
OPTICORS_VAZNICE_A1_POPIS
100
AcDbMText
10
7891.0000
20
-36749.0000
40
100.0000
71
1
1
Vyhovuje:  ANO
7
OPTICORS
0
LWPOLYLINE
5
305
100
AcDbEntity
8
OPTICORS_RAMECEK
100
AcDbPolyline
90
4
70
1
10
7641.0000
20
-37049.0000
10
11221.0000
20
-37049.0000
10
11221.0000
20
-32389.0000
10
7641.0000
20
-32389.0000
0
MTEXT
5
306
100
AcDbEntity
8
OPTICORS_HLAVICKA
100
AcDbMText
10
7641.0000
20
-32194.0000
40
120.0000
71
1
1
VAZNICE A1 — VÝSLEDKY
7
OPTICORS
0
MTEXT
5
307
100
AcDbEntity
8
OPTICORS_POZNAMKA
100
AcDbMText
10
11146.0000
20
-36974.0000
40
120.0000
71
9
1
IN DEVELOPMENT
7
OPTICORS
0
LWPOLYLINE
5
308
100
AcDbEntity
8
OPTICORS_ZAKLADOVY_NOSNIK_T1_BETON
100
AcDbPolyline
90
4
70
1
10
876.0000
20
-39120.0000
10
8476.0000
20
-39120.0000
10
8476.0000
20
-40120.0000
10
876.0000
20
-40120.0000
0
SOLID
5
309
100
AcDbEntity
8
OPTICORS_ZAKLADOVY_NOSNIK_T1_BETON
100
AcDbTrace
10
801.0000
20
-39045.0000
30
0.0
11
8551.0000
21
-39045.0000
31
0.0
12
951.0000
22
-39195.0000
32
0.0
13
8401.0000
23
-39195.0000
33
0.0
0
SOLID
5
30A
100
AcDbEntity
8
OPTICORS_ZAKLADOVY_NOSNIK_T1_BETON
100
AcDbTrace
10
8551.0000
20
-39045.0000
30
0.0
11
8551.0000
21
-40195.0000
31
0.0
12
8401.0000
22
-39195.0000
32
0.0
13
8401.0000
23
-40045.0000
33
0.0
0
SOLID
5
30B
100
AcDbEntity
8
OPTICORS_ZAKLADOVY_NOSNIK_T1_BETON
100
AcDbTrace
10
8551.0000
20
-40195.0000
30
0.0
11
801.0000
21
-40195.0000
31
0.0
12
8401.0000
22
-40045.0000
32
0.0
13
951.0000
23
-40045.0000
33
0.0
0
SOLID
5
30C
100
AcDbEntity
8
OPTICORS_ZAKLADOVY_NOSNIK_T1_BETON
100
AcDbTrace
10
801.0000
20
-40195.0000
30
0.0
11
801.0000
21
-39045.0000
31
0.0
12
951.0000
22
-40045.0000
32
0.0
13
951.0000
23
-39195.0000
33
0.0
0
LINE
5
30D
100
AcDbEntity
8
OPTICORS_ZAKLADOVY_NOSNIK_T1_VYZTUZ
100
AcDbLine
10
896.0000
20
-39870.0000
11
8456.0000
21
-39870.0000
0
LINE
5
30E
100
AcDbEntity
8
OPTICORS_ZAKLADOVY_NOSNIK_T1_VYZTUZ
100
AcDbLine
10
896.0000
20
-39620.0000
11
8456.0000
21
-39620.0000
0
LINE
5
30F
100
AcDbEntity
8
OPTICORS_ZAKLADOVY_NOSNIK_T1_VYZTUZ
100
AcDbLine
10
896.0000
20
-39370.0000
11
8456.0000
21
-39370.0000
0
LINE
5
310
100
AcDbEntity
8
OPTICORS_ZAKLADOVY_NOSNIK_T1_KOTY
100
AcDbLine
10
876.0000
20
-38620.0000
11
8476.0000
21
-38620.0000
0
LINE
5
311
100
AcDbEntity
8
OPTICORS_ZAKLADOVY_NOSNIK_T1_KOTY
100
AcDbLine
10
876.0000
20
-38597.5000
11
876.0000
21
-38642.5000
0
LINE
5
312
100
AcDbEntity
8
OPTICORS_ZAKLADOVY_NOSNIK_T1_KOTY
100
AcDbLine
10
861.0000
20
-38635.0000
11
891.0000
21
-38605.0000
0
LINE
5
313
100
AcDbEntity
8
OPTICORS_ZAKLADOVY_NOSNIK_T1_KOTY
100
AcDbLine
10
8476.0000
20
-38597.5000
11
8476.0000
21
-38642.5000
0
LINE
5
314
100
AcDbEntity
8
OPTICORS_ZAKLADOVY_NOSNIK_T1_KOTY
100
AcDbLine
10
8461.0000
20
-38635.0000
11
8491.0000
21
-38605.0000
0
MTEXT
5
315
100
AcDbEntity
8
OPTICORS_ZAKLADOVY_NOSNIK_T1_KOTY
100
AcDbMText
10
4676.0000
20
-38539.0000
40
90.0000
71
5
1
7 600
7
OPTICORS
0
LINE
5
316
100
AcDbEntity
8
OPTICORS_ZAKLADOVY_NOSNIK_T1_KOTY
100
AcDbLine
10
376.0000
20
-39120.0000
11
376.0000
21
-40120.0000
0
LINE
5
317
100
AcDbEntity
8
OPTICORS_ZAKLADOVY_NOSNIK_T1_KOTY
100
AcDbLine
10
353.5000
20
-39120.0000
11
398.5000
21
-39120.0000
0
LINE
5
318
100
AcDbEntity
8
OPTICORS_ZAKLADOVY_NOSNIK_T1_KOTY
100
AcDbLine
10
361.0000
20
-39135.0000
11
391.0000
21
-39105.0000
0
LINE
5
319
100
AcDbEntity
8
OPTICORS_ZAKLADOVY_NOSNIK_T1_KOTY
100
AcDbLine
10
353.5000
20
-40120.0000
11
398.5000
21
-40120.0000
0
LINE
5
31A
100
AcDbEntity
8
OPTICORS_ZAKLADOVY_NOSNIK_T1_KOTY
100
AcDbLine
10
361.0000
20
-40135.0000
11
391.0000
21
-40105.0000
0
MTEXT
5
31B
100
AcDbEntity
8
OPTICORS_ZAKLADOVY_NOSNIK_T1_KOTY
100
AcDbMText
10
295.0000
20
-39620.0000
40
90.0000
50
90.0000
71
5
1
1 000
7
OPTICORS
0
LWPOLYLINE
5
31C
100
AcDbEntity
8
OPTICORS_ZAKLADOVY_NOSNIK_T1_BETON
100
AcDbPolyline
90
4
70
1
10
876.0000
20
-41620.0000
10
8476.0000
20
-41620.0000
10
8476.0000
20
-41760.0000
10
876.0000
20
-41760.0000
0
SOLID
5
31D
100
AcDbEntity
8
OPTICORS_ZAKLADOVY_NOSNIK_T1_BETON
100
AcDbTrace
10
801.0000
20
-41545.0000
30
0.0
11
8551.0000
21
-41545.0000
31
0.0
12
951.0000
22
-41695.0000
32
0.0
13
8401.0000
23
-41695.0000
33
0.0
0
SOLID
5
31E
100
AcDbEntity
8
OPTICORS_ZAKLADOVY_NOSNIK_T1_BETON
100
AcDbTrace
10
8551.0000
20
-41545.0000
30
0.0
11
8551.0000
21
-41835.0000
31
0.0
12
8401.0000
22
-41695.0000
32
0.0
13
8401.0000
23
-41685.0000
33
0.0
0
SOLID
5
31F
100
AcDbEntity
8
OPTICORS_ZAKLADOVY_NOSNIK_T1_BETON
100
AcDbTrace
10
8551.0000
20
-41835.0000
30
0.0
11
801.0000
21
-41835.0000
31
0.0
12
8401.0000
22
-41685.0000
32
0.0
13
951.0000
23
-41685.0000
33
0.0
0
SOLID
5
320
100
AcDbEntity
8
OPTICORS_ZAKLADOVY_NOSNIK_T1_BETON
100
AcDbTrace
10
801.0000
20
-41835.0000
30
0.0
11
801.0000
21
-41545.0000
31
0.0
12
951.0000
22
-41685.0000
32
0.0
13
951.0000
23
-41695.0000
33
0.0
0
LINE
5
321
100
AcDbEntity
8
OPTICORS_ZAKLADOVY_NOSNIK_T1_KOTY
100
AcDbLine
10
876.0000
20
-41120.0000
11
8476.0000
21
-41120.0000
0
LINE
5
322
100
AcDbEntity
8
OPTICORS_ZAKLADOVY_NOSNIK_T1_KOTY
100
AcDbLine
10
876.0000
20
-41097.5000
11
876.0000
21
-41142.5000
0
LINE
5
323
100
AcDbEntity
8
OPTICORS_ZAKLADOVY_NOSNIK_T1_KOTY
100
AcDbLine
10
861.0000
20
-41135.0000
11
891.0000
21
-41105.0000
0
LINE
5
324
100
AcDbEntity
8
OPTICORS_ZAKLADOVY_NOSNIK_T1_KOTY
100
AcDbLine
10
8476.0000
20
-41097.5000
11
8476.0000
21
-41142.5000
0
LINE
5
325
100
AcDbEntity
8
OPTICORS_ZAKLADOVY_NOSNIK_T1_KOTY
100
AcDbLine
10
8461.0000
20
-41135.0000
11
8491.0000
21
-41105.0000
0
MTEXT
5
326
100
AcDbEntity
8
OPTICORS_ZAKLADOVY_NOSNIK_T1_KOTY
100
AcDbMText
10
4676.0000
20
-41039.0000
40
90.0000
71
5
1
7 600
7
OPTICORS
0
LINE
5
327
100
AcDbEntity
8
OPTICORS_ZAKLADOVY_NOSNIK_T1_KOTY
100
AcDbLine
10
376.0000
20
-41620.0000
11
376.0000
21
-41760.0000
0
LINE
5
328
100
AcDbEntity
8
OPTICORS_ZAKLADOVY_NOSNIK_T1_KOTY
100
AcDbLine
10
353.5000
20
-41620.0000
11
398.5000
21
-41620.0000
0
LINE
5
329
100
AcDbEntity
8
OPTICORS_ZAKLADOVY_NOSNIK_T1_KOTY
100
AcDbLine
10
361.0000
20
-41635.0000
11
391.0000
21
-41605.0000
0
LINE
5
32A
100
AcDbEntity
8
OPTICORS_ZAKLADOVY_NOSNIK_T1_KOTY
100
AcDbLine
10
353.5000
20
-41760.0000
11
398.5000
21
-41760.0000
0
LINE
5
32B
100
AcDbEntity
8
OPTICORS_ZAKLADOVY_NOSNIK_T1_KOTY
100
AcDbLine
10
361.0000
20
-41775.0000
11
391.0000
21
-41745.0000
0
MTEXT
5
32C
100
AcDbEntity
8
OPTICORS_ZAKLADOVY_NOSNIK_T1_KOTY
100
AcDbMText
10
295.0000
20
-41690.0000
40
90.0000
50
90.0000
71
5
1
140
7
OPTICORS
0
LWPOLYLINE
5
32D
100
AcDbEntity
8
OPTICORS_ZAKLADOVY_NOSNIK_T1_BETON
100
AcDbPolyline
90
4
70
1
10
876.0000
20
-43260.0000
10
1016.0000
20
-43260.0000
10
1016.0000
20
-44260.0000
10
876.0000
20
-44260.0000
0
SOLID
5
32E
100
AcDbEntity
8
OPTICORS_ZAKLADOVY_NOSNIK_T1_BETON
100
AcDbTrace
10
801.0000
20
-43185.0000
30
0.0
11
1091.0000
21
-43185.0000
31
0.0
12
951.0000
22
-43335.0000
32
0.0
13
941.0000
23
-43335.0000
33
0.0
0
SOLID
5
32F
100
AcDbEntity
8
OPTICORS_ZAKLADOVY_NOSNIK_T1_BETON
100
AcDbTrace
10
1091.0000
20
-43185.0000
30
0.0
11
1091.0000
21
-44335.0000
31
0.0
12
941.0000
22
-43335.0000
32
0.0
13
941.0000
23
-44185.0000
33
0.0
0
SOLID
5
330
100
AcDbEntity
8
OPTICORS_ZAKLADOVY_NOSNIK_T1_BETON
100
AcDbTrace
10
1091.0000
20
-44335.0000
30
0.0
11
801.0000
21
-44335.0000
31
0.0
12
941.0000
22
-44185.0000
32
0.0
13
951.0000
23
-44185.0000
33
0.0
0
SOLID
5
331
100
AcDbEntity
8
OPTICORS_ZAKLADOVY_NOSNIK_T1_BETON
100
AcDbTrace
10
801.0000
20
-44335.0000
30
0.0
11
801.0000
21
-43185.0000
31
0.0
12
951.0000
22
-44185.0000
32
0.0
13
951.0000
23
-43335.0000
33
0.0
0
LWPOLYLINE
5
332
100
AcDbEntity
8
OPTICORS_ZAKLADOVY_NOSNIK_T1_VYZTUZ
100
AcDbPolyline
90
4
70
1
10
896.0000
20
-43280.0000
10
996.0000
20
-43280.0000
10
996.0000
20
-44240.0000
10
896.0000
20
-44240.0000
0
CIRCLE
5
333
100
AcDbEntity
8
OPTICORS_ZAKLADOVY_NOSNIK_T1_VYZTUZ
100
AcDbCircle
10
901.0000
20
-44010.0000
40
5.0000
0
CIRCLE
5
334
100
AcDbEntity
8
OPTICORS_ZAKLADOVY_NOSNIK_T1_VYZTUZ
100
AcDbCircle
10
991.0000
20
-44010.0000
40
5.0000
0
CIRCLE
5
335
100
AcDbEntity
8
OPTICORS_ZAKLADOVY_NOSNIK_T1_VYZTUZ
100
AcDbCircle
10
901.0000
20
-43760.0000
40
5.0000
0
CIRCLE
5
336
100
AcDbEntity
8
OPTICORS_ZAKLADOVY_NOSNIK_T1_VYZTUZ
100
AcDbCircle
10
991.0000
20
-43760.0000
40
5.0000
0
CIRCLE
5
337
100
AcDbEntity
8
OPTICORS_ZAKLADOVY_NOSNIK_T1_VYZTUZ
100
AcDbCircle
10
901.0000
20
-43510.0000
40
5.0000
0
CIRCLE
5
338
100
AcDbEntity
8
OPTICORS_ZAKLADOVY_NOSNIK_T1_VYZTUZ
100
AcDbCircle
10
991.0000
20
-43510.0000
40
5.0000
0
LINE
5
339
100
AcDbEntity
8
OPTICORS_ZAKLADOVY_NOSNIK_T1_KOTY
100
AcDbLine
10
876.0000
20
-42760.0000
11
1016.0000
21
-42760.0000
0
LINE
5
33A
100
AcDbEntity
8
OPTICORS_ZAKLADOVY_NOSNIK_T1_KOTY
100
AcDbLine
10
876.0000
20
-42737.5000
11
876.0000
21
-42782.5000
0
LINE
5
33B
100
AcDbEntity
8
OPTICORS_ZAKLADOVY_NOSNIK_T1_KOTY
100
AcDbLine
10
861.0000
20
-42775.0000
11
891.0000
21
-42745.0000
0
LINE
5
33C
100
AcDbEntity
8
OPTICORS_ZAKLADOVY_NOSNIK_T1_KOTY
100
AcDbLine
10
1016.0000
20
-42737.5000
11
1016.0000
21
-42782.5000
0
LINE
5
33D
100
AcDbEntity
8
OPTICORS_ZAKLADOVY_NOSNIK_T1_KOTY
100
AcDbLine
10
1001.0000
20
-42775.0000
11
1031.0000
21
-42745.0000
0
MTEXT
5
33E
100
AcDbEntity
8
OPTICORS_ZAKLADOVY_NOSNIK_T1_KOTY
100
AcDbMText
10
946.0000
20
-42679.0000
40
90.0000
71
5
1
140
7
OPTICORS
0
LINE
5
33F
100
AcDbEntity
8
OPTICORS_ZAKLADOVY_NOSNIK_T1_KOTY
100
AcDbLine
10
376.0000
20
-43260.0000
11
376.0000
21
-44260.0000
0
LINE
5
340
100
AcDbEntity
8
OPTICORS_ZAKLADOVY_NOSNIK_T1_KOTY
100
AcDbLine
10
353.5000
20
-43260.0000
11
398.5000
21
-43260.0000
0
LINE
5
341
100
AcDbEntity
8
OPTICORS_ZAKLADOVY_NOSNIK_T1_KOTY
100
AcDbLine
10
361.0000
20
-43275.0000
11
391.0000
21
-43245.0000
0
LINE
5
342
100
AcDbEntity
8
OPTICORS_ZAKLADOVY_NOSNIK_T1_KOTY
100
AcDbLine
10
353.5000
20
-44260.0000
11
398.5000
21
-44260.0000
0
LINE
5
343
100
AcDbEntity
8
OPTICORS_ZAKLADOVY_NOSNIK_T1_KOTY
100
AcDbLine
10
361.0000
20
-44275.0000
11
391.0000
21
-44245.0000
0
MTEXT
5
344
100
AcDbEntity
8
OPTICORS_ZAKLADOVY_NOSNIK_T1_KOTY
100
AcDbMText
10
295.0000
20
-43760.0000
40
90.0000
50
90.0000
71
5
1
1 000
7
OPTICORS
0
LWPOLYLINE
5
345
100
AcDbEntity
8
OPTICORS_RAMECEK
100
AcDbPolyline
90
4
70
1
10
0.0000
20
-44525.0000
10
8741.0000
20
-44525.0000
10
8741.0000
20
-38244.0000
10
0.0000
20
-38244.0000
0
MTEXT
5
346
100
AcDbEntity
8
OPTICORS_HLAVICKA
100
AcDbMText
10
0.0000
20
-38049.0000
40
120.0000
71
1
1
ZÁKLADOVÝ NOSNÍK T1 — POHLEDY
7
OPTICORS
0
MTEXT
5
347
100
AcDbEntity
8
OPTICORS_POZNAMKA
100
AcDbMText
10
8666.0000
20
-44450.0000
40
120.0000
71
9
1
IN DEVELOPMENT
7
OPTICORS
0
MTEXT
5
348
100
AcDbEntity
8
OPTICORS_HLAVICKA
100
AcDbMText
10
7649.0000
20
-38049.0000
40
120.0000
71
1
1
MĚŘÍTKO  1:50
7
OPTICORS
0
MTEXT
5
349
100
AcDbEntity
8
OPTICORS_ZAKLADOVY_NOSNIK_T1_POPIS
100
AcDbMText
10
9491.0000
20
-38554.0000
40
120.0000
71
1
1
GEOMETRIE
7
OPTICORS
0
MTEXT
5
34A
100
AcDbEntity
8
OPTICORS_ZAKLADOVY_NOSNIK_T1_POPIS
100
AcDbMText
10
9491.0000
20
-38704.0000
40
100.0000
71
1
1
Rozpon sloupů:  8 000 mm
7
OPTICORS
0
MTEXT
5
34B
100
AcDbEntity
8
OPTICORS_ZAKLADOVY_NOSNIK_T1_POPIS
100
AcDbMText
10
9491.0000
20
-38854.0000
40
100.0000
71
1
1
Délka nosníku:  7 600 mm
7
OPTICORS
0
MTEXT
5
34C
100
AcDbEntity
8
OPTICORS_ZAKLADOVY_NOSNIK_T1_POPIS
100
AcDbMText
10
9491.0000
20
-39004.0000
40
100.0000
71
1
1
Šířka průřezu:  140 mm
7
OPTICORS
0
MTEXT
5
34D
100
AcDbEntity
8
OPTICORS_ZAKLADOVY_NOSNIK_T1_POPIS
100
AcDbMText
10
9491.0000
20
-39154.0000
40
100.0000
71
1
1
Výška průřezu:  1 000 mm
7
OPTICORS
0
MTEXT
5
34E
100
AcDbEntity
8
OPTICORS_ZAKLADOVY_NOSNIK_T1_POPIS
100
AcDbMText
10
9491.0000
20
-39304.0000
40
100.0000
71
1
1
Objem prvku:  1,064 m3
7
OPTICORS
0
MTEXT
5
34F
100
AcDbEntity
8
OPTICORS_ZAKLADOVY_NOSNIK_T1_POPIS
100
AcDbMText
10
9491.0000
20
-39529.0000
40
120.0000
71
1
1
VÝZTUŽ
7
OPTICORS
0
MTEXT
5
350
100
AcDbEntity
8
OPTICORS_ZAKLADOVY_NOSNIK_T1_POPIS
100
AcDbMText
10
9491.0000
20
-39679.0000
40
100.0000
71
1
1
Počet řad:  3
7
OPTICORS
0
MTEXT
5
351
100
AcDbEntity
8
OPTICORS_ZAKLADOVY_NOSNIK_T1_POPIS
100
AcDbMText
10
9491.0000
20
-39829.0000
40
100.0000
71
1
1
Rozteč řad:  250 mm
7
OPTICORS
0
MTEXT
5
352
100
AcDbEntity
8
OPTICORS_ZAKLADOVY_NOSNIK_T1_POPIS
100
AcDbMText
10
9491.0000
20
-39979.0000
40
100.0000
71
1
1
Podélná výztuž:  6× %%c10 mm
7
OPTICORS
0
MTEXT
5
353
100
AcDbEntity
8
OPTICORS_ZAKLADOVY_NOSNIK_T1_POPIS
100
AcDbMText
10
9491.0000
20
-40129.0000
40
100.0000
71
1
1
Třmínky:  26× %%c6 mm / rozteč 300 mm
7
OPTICORS
0
MTEXT
5
354
100
AcDbEntity
8
OPTICORS_ZAKLADOVY_NOSNIK_T1_POPIS
100
AcDbMText
10
9491.0000
20
-40279.0000
40
100.0000
71
1
1
Rozměr třmínku:  100 × 960 mm
7
OPTICORS
0
MTEXT
5
355
100
AcDbEntity
8
OPTICORS_ZAKLADOVY_NOSNIK_T1_POPIS
100
AcDbMText
10
9491.0000
20
-40429.0000
40
100.0000
71
1
1
Obvod třmínku:  2 120 mm
7
OPTICORS
0
MTEXT
5
356
100
AcDbEntity
8
OPTICORS_ZAKLADOVY_NOSNIK_T1_POPIS
100
AcDbMText
10
9491.0000
20
-40654.0000
40
120.0000
71
1
1
MATERIÁLOVÁ BILANCE
7
OPTICORS
0
MTEXT
5
357
100
AcDbEntity
8
OPTICORS_ZAKLADOVY_NOSNIK_T1_POPIS
100
AcDbMText
10
9491.0000
20
-40804.0000
40
100.0000
71
1
1
Objem betonu:  1,064 m3
7
OPTICORS
0
MTEXT
5
358
100
AcDbEntity
8
OPTICORS_ZAKLADOVY_NOSNIK_T1_POPIS
100
AcDbMText
10
9491.0000
20
-40954.0000
40
100.0000
71
1
1
Podélná výztuž:  28,0 kg
7
OPTICORS
0
MTEXT
5
359
100
AcDbEntity
8
OPTICORS_ZAKLADOVY_NOSNIK_T1_POPIS
100
AcDbMText
10
9491.0000
20
-41104.0000
40
100.0000
71
1
1
Třmínky:  9,0 kg
7
OPTICORS
0
MTEXT
5
35A
100
AcDbEntity
8
OPTICORS_ZAKLADOVY_NOSNIK_T1_POPIS
100
AcDbMText
10
9491.0000
20
-41254.0000
40
100.0000
71
1
1
Ocel celkem:  37,0 kg
7
OPTICORS
0
LWPOLYLINE
5
35B
100
AcDbEntity
8
OPTICORS_RAMECEK
100
AcDbPolyline
90
4
70
1
10
9241.0000
20
-41554.0000
10
12191.0000
20
-41554.0000
10
12191.0000
20
-38244.0000
10
9241.0000
20
-38244.0000
0
MTEXT
5
35C
100
AcDbEntity
8
OPTICORS_HLAVICKA
100
AcDbMText
10
9241.0000
20
-38049.0000
40
120.0000
71
1
1
ZÁKLADOVÝ NOSNÍK T1 — VÝSLEDKY
7
OPTICORS
0
MTEXT
5
35D
100
AcDbEntity
8
OPTICORS_POZNAMKA
100
AcDbMText
10
12116.0000
20
-41479.0000
40
120.0000
71
9
1
IN DEVELOPMENT
7
OPTICORS
0
LWPOLYLINE
5
35E
100
AcDbEntity
8
OPTICORS_NAKLADACI_MUSTEK_M1_BETON
100
AcDbPolyline
90
4
70
1
10
876.0000
20
-46596.0000
10
6876.0000
20
-46596.0000
10
6876.0000
20
-47596.0000
10
876.0000
20
-47596.0000
0
SOLID
5
35F
100
AcDbEntity
8
OPTICORS_NAKLADACI_MUSTEK_M1_BETON
100
AcDbTrace
10
801.0000
20
-46521.0000
30
0.0
11
6951.0000
21
-46521.0000
31
0.0
12
951.0000
22
-46671.0000
32
0.0
13
6801.0000
23
-46671.0000
33
0.0
0
SOLID
5
360
100
AcDbEntity
8
OPTICORS_NAKLADACI_MUSTEK_M1_BETON
100
AcDbTrace
10
6951.0000
20
-46521.0000
30
0.0
11
6951.0000
21
-47671.0000
31
0.0
12
6801.0000
22
-46671.0000
32
0.0
13
6801.0000
23
-47521.0000
33
0.0
0
SOLID
5
361
100
AcDbEntity
8
OPTICORS_NAKLADACI_MUSTEK_M1_BETON
100
AcDbTrace
10
6951.0000
20
-47671.0000
30
0.0
11
801.0000
21
-47671.0000
31
0.0
12
6801.0000
22
-47521.0000
32
0.0
13
951.0000
23
-47521.0000
33
0.0
0
SOLID
5
362
100
AcDbEntity
8
OPTICORS_NAKLADACI_MUSTEK_M1_BETON
100
AcDbTrace
10
801.0000
20
-47671.0000
30
0.0
11
801.0000
21
-46521.0000
31
0.0
12
951.0000
22
-47521.0000
32
0.0
13
951.0000
23
-46671.0000
33
0.0
0
LINE
5
363
100
AcDbEntity
8
OPTICORS_NAKLADACI_MUSTEK_M1_VYZTUZ
100
AcDbLine
10
896.0000
20
-46846.0000
11
6856.0000
21
-46846.0000
0
LINE
5
364
100
AcDbEntity
8
OPTICORS_NAKLADACI_MUSTEK_M1_VYZTUZ
100
AcDbLine
10
896.0000
20
-47096.0000
11
6856.0000
21
-47096.0000
0
LINE
5
365
100
AcDbEntity
8
OPTICORS_NAKLADACI_MUSTEK_M1_VYZTUZ
100
AcDbLine
10
896.0000
20
-47346.0000
11
6856.0000
21
-47346.0000
0
LINE
5
366
100
AcDbEntity
8
OPTICORS_NAKLADACI_MUSTEK_M1_KOTY
100
AcDbLine
10
876.0000
20
-46096.0000
11
6876.0000
21
-46096.0000
0
LINE
5
367
100
AcDbEntity
8
OPTICORS_NAKLADACI_MUSTEK_M1_KOTY
100
AcDbLine
10
876.0000
20
-46073.5000
11
876.0000
21
-46118.5000
0
LINE
5
368
100
AcDbEntity
8
OPTICORS_NAKLADACI_MUSTEK_M1_KOTY
100
AcDbLine
10
861.0000
20
-46111.0000
11
891.0000
21
-46081.0000
0
LINE
5
369
100
AcDbEntity
8
OPTICORS_NAKLADACI_MUSTEK_M1_KOTY
100
AcDbLine
10
6876.0000
20
-46073.5000
11
6876.0000
21
-46118.5000
0
LINE
5
36A
100
AcDbEntity
8
OPTICORS_NAKLADACI_MUSTEK_M1_KOTY
100
AcDbLine
10
6861.0000
20
-46111.0000
11
6891.0000
21
-46081.0000
0
MTEXT
5
36B
100
AcDbEntity
8
OPTICORS_NAKLADACI_MUSTEK_M1_KOTY
100
AcDbMText
10
3876.0000
20
-46015.0000
40
90.0000
71
5
1
6 000
7
OPTICORS
0
LINE
5
36C
100
AcDbEntity
8
OPTICORS_NAKLADACI_MUSTEK_M1_KOTY
100
AcDbLine
10
376.0000
20
-46596.0000
11
376.0000
21
-47596.0000
0
LINE
5
36D
100
AcDbEntity
8
OPTICORS_NAKLADACI_MUSTEK_M1_KOTY
100
AcDbLine
10
353.5000
20
-46596.0000
11
398.5000
21
-46596.0000
0
LINE
5
36E
100
AcDbEntity
8
OPTICORS_NAKLADACI_MUSTEK_M1_KOTY
100
AcDbLine
10
361.0000
20
-46611.0000
11
391.0000
21
-46581.0000
0
LINE
5
36F
100
AcDbEntity
8
OPTICORS_NAKLADACI_MUSTEK_M1_KOTY
100
AcDbLine
10
353.5000
20
-47596.0000
11
398.5000
21
-47596.0000
0
LINE
5
370
100
AcDbEntity
8
OPTICORS_NAKLADACI_MUSTEK_M1_KOTY
100
AcDbLine
10
361.0000
20
-47611.0000
11
391.0000
21
-47581.0000
0
MTEXT
5
371
100
AcDbEntity
8
OPTICORS_NAKLADACI_MUSTEK_M1_KOTY
100
AcDbMText
10
295.0000
20
-47096.0000
40
90.0000
50
90.0000
71
5
1
1 000
7
OPTICORS
0
LWPOLYLINE
5
372
100
AcDbEntity
8
OPTICORS_NAKLADACI_MUSTEK_M1_BETON
100
AcDbPolyline
90
4
70
1
10
876.0000
20
-49096.0000
10
6876.0000
20
-49096.0000
10
6876.0000
20
-49236.0000
10
876.0000
20
-49236.0000
0
SOLID
5
373
100
AcDbEntity
8
OPTICORS_NAKLADACI_MUSTEK_M1_BETON
100
AcDbTrace
10
801.0000
20
-49021.0000
30
0.0
11
6951.0000
21
-49021.0000
31
0.0
12
951.0000
22
-49171.0000
32
0.0
13
6801.0000
23
-49171.0000
33
0.0
0
SOLID
5
374
100
AcDbEntity
8
OPTICORS_NAKLADACI_MUSTEK_M1_BETON
100
AcDbTrace
10
6951.0000
20
-49021.0000
30
0.0
11
6951.0000
21
-49311.0000
31
0.0
12
6801.0000
22
-49171.0000
32
0.0
13
6801.0000
23
-49161.0000
33
0.0
0
SOLID
5
375
100
AcDbEntity
8
OPTICORS_NAKLADACI_MUSTEK_M1_BETON
100
AcDbTrace
10
6951.0000
20
-49311.0000
30
0.0
11
801.0000
21
-49311.0000
31
0.0
12
6801.0000
22
-49161.0000
32
0.0
13
951.0000
23
-49161.0000
33
0.0
0
SOLID
5
376
100
AcDbEntity
8
OPTICORS_NAKLADACI_MUSTEK_M1_BETON
100
AcDbTrace
10
801.0000
20
-49311.0000
30
0.0
11
801.0000
21
-49021.0000
31
0.0
12
951.0000
22
-49161.0000
32
0.0
13
951.0000
23
-49171.0000
33
0.0
0
LWPOLYLINE
5
377
100
AcDbEntity
8
OPTICORS_NAKLADACI_MUSTEK_M1_BETON
100
AcDbPolyline
90
4
70
1
10
876.0000
20
-49096.0000
10
1076.0000
20
-49096.0000
10
1076.0000
20
-52096.0000
10
876.0000
20
-52096.0000
0
SOLID
5
378
100
AcDbEntity
8
OPTICORS_NAKLADACI_MUSTEK_M1_BETON
100
AcDbTrace
10
801.0000
20
-49021.0000
30
0.0
11
1151.0000
21
-49021.0000
31
0.0
12
951.0000
22
-49171.0000
32
0.0
13
1001.0000
23
-49171.0000
33
0.0
0
SOLID
5
379
100
AcDbEntity
8
OPTICORS_NAKLADACI_MUSTEK_M1_BETON
100
AcDbTrace
10
1151.0000
20
-49021.0000
30
0.0
11
1151.0000
21
-52171.0000
31
0.0
12
1001.0000
22
-49171.0000
32
0.0
13
1001.0000
23
-52021.0000
33
0.0
0
SOLID
5
37A
100
AcDbEntity
8
OPTICORS_NAKLADACI_MUSTEK_M1_BETON
100
AcDbTrace
10
1151.0000
20
-52171.0000
30
0.0
11
801.0000
21
-52171.0000
31
0.0
12
1001.0000
22
-52021.0000
32
0.0
13
951.0000
23
-52021.0000
33
0.0
0
SOLID
5
37B
100
AcDbEntity
8
OPTICORS_NAKLADACI_MUSTEK_M1_BETON
100
AcDbTrace
10
801.0000
20
-52171.0000
30
0.0
11
801.0000
21
-49021.0000
31
0.0
12
951.0000
22
-52021.0000
32
0.0
13
951.0000
23
-49171.0000
33
0.0
0
LWPOLYLINE
5
37C
100
AcDbEntity
8
OPTICORS_NAKLADACI_MUSTEK_M1_BETON
100
AcDbPolyline
90
4
70
1
10
6676.0000
20
-49096.0000
10
6876.0000
20
-49096.0000
10
6876.0000
20
-52096.0000
10
6676.0000
20
-52096.0000
0
SOLID
5
37D
100
AcDbEntity
8
OPTICORS_NAKLADACI_MUSTEK_M1_BETON
100
AcDbTrace
10
6601.0000
20
-49021.0000
30
0.0
11
6951.0000
21
-49021.0000
31
0.0
12
6751.0000
22
-49171.0000
32
0.0
13
6801.0000
23
-49171.0000
33
0.0
0
SOLID
5
37E
100
AcDbEntity
8
OPTICORS_NAKLADACI_MUSTEK_M1_BETON
100
AcDbTrace
10
6951.0000
20
-49021.0000
30
0.0
11
6951.0000
21
-52171.0000
31
0.0
12
6801.0000
22
-49171.0000
32
0.0
13
6801.0000
23
-52021.0000
33
0.0
0
SOLID
5
37F
100
AcDbEntity
8
OPTICORS_NAKLADACI_MUSTEK_M1_BETON
100
AcDbTrace
10
6951.0000
20
-52171.0000
30
0.0
11
6601.0000
21
-52171.0000
31
0.0
12
6801.0000
22
-52021.0000
32
0.0
13
6751.0000
23
-52021.0000
33
0.0
0
SOLID
5
380
100
AcDbEntity
8
OPTICORS_NAKLADACI_MUSTEK_M1_BETON
100
AcDbTrace
10
6601.0000
20
-52171.0000
30
0.0
11
6601.0000
21
-49021.0000
31
0.0
12
6751.0000
22
-52021.0000
32
0.0
13
6751.0000
23
-49171.0000
33
0.0
0
LWPOLYLINE
5
381
100
AcDbEntity
8
OPTICORS_NAKLADACI_MUSTEK_M1_BETON
100
AcDbPolyline
90
4
70
1
10
876.0000
20
-51896.0000
10
6876.0000
20
-51896.0000
10
6876.0000
20
-52096.0000
10
876.0000
20
-52096.0000
0
SOLID
5
382
100
AcDbEntity
8
OPTICORS_NAKLADACI_MUSTEK_M1_BETON
100
AcDbTrace
10
801.0000
20
-51821.0000
30
0.0
11
6951.0000
21
-51821.0000
31
0.0
12
951.0000
22
-51971.0000
32
0.0
13
6801.0000
23
-51971.0000
33
0.0
0
SOLID
5
383
100
AcDbEntity
8
OPTICORS_NAKLADACI_MUSTEK_M1_BETON
100
AcDbTrace
10
6951.0000
20
-51821.0000
30
0.0
11
6951.0000
21
-52171.0000
31
0.0
12
6801.0000
22
-51971.0000
32
0.0
13
6801.0000
23
-52021.0000
33
0.0
0
SOLID
5
384
100
AcDbEntity
8
OPTICORS_NAKLADACI_MUSTEK_M1_BETON
100
AcDbTrace
10
6951.0000
20
-52171.0000
30
0.0
11
801.0000
21
-52171.0000
31
0.0
12
6801.0000
22
-52021.0000
32
0.0
13
951.0000
23
-52021.0000
33
0.0
0
SOLID
5
385
100
AcDbEntity
8
OPTICORS_NAKLADACI_MUSTEK_M1_BETON
100
AcDbTrace
10
801.0000
20
-52171.0000
30
0.0
11
801.0000
21
-51821.0000
31
0.0
12
951.0000
22
-52021.0000
32
0.0
13
951.0000
23
-51971.0000
33
0.0
0
LINE
5
386
100
AcDbEntity
8
OPTICORS_NAKLADACI_MUSTEK_M1_KOTY
100
AcDbLine
10
876.0000
20
-48596.0000
11
6876.0000
21
-48596.0000
0
LINE
5
387
100
AcDbEntity
8
OPTICORS_NAKLADACI_MUSTEK_M1_KOTY
100
AcDbLine
10
876.0000
20
-48573.5000
11
876.0000
21
-48618.5000
0
LINE
5
388
100
AcDbEntity
8
OPTICORS_NAKLADACI_MUSTEK_M1_KOTY
100
AcDbLine
10
861.0000
20
-48611.0000
11
891.0000
21
-48581.0000
0
LINE
5
389
100
AcDbEntity
8
OPTICORS_NAKLADACI_MUSTEK_M1_KOTY
100
AcDbLine
10
6876.0000
20
-48573.5000
11
6876.0000
21
-48618.5000
0
LINE
5
38A
100
AcDbEntity
8
OPTICORS_NAKLADACI_MUSTEK_M1_KOTY
100
AcDbLine
10
6861.0000
20
-48611.0000
11
6891.0000
21
-48581.0000
0
MTEXT
5
38B
100
AcDbEntity
8
OPTICORS_NAKLADACI_MUSTEK_M1_KOTY
100
AcDbMText
10
3876.0000
20
-48515.0000
40
90.0000
71
5
1
6 000
7
OPTICORS
0
LINE
5
38C
100
AcDbEntity
8
OPTICORS_NAKLADACI_MUSTEK_M1_KOTY
100
AcDbLine
10
376.0000
20
-49096.0000
11
376.0000
21
-52096.0000
0
LINE
5
38D
100
AcDbEntity
8
OPTICORS_NAKLADACI_MUSTEK_M1_KOTY
100
AcDbLine
10
353.5000
20
-49096.0000
11
398.5000
21
-49096.0000
0
LINE
5
38E
100
AcDbEntity
8
OPTICORS_NAKLADACI_MUSTEK_M1_KOTY
100
AcDbLine
10
361.0000
20
-49111.0000
11
391.0000
21
-49081.0000
0
LINE
5
38F
100
AcDbEntity
8
OPTICORS_NAKLADACI_MUSTEK_M1_KOTY
100
AcDbLine
10
353.5000
20
-52096.0000
11
398.5000
21
-52096.0000
0
LINE
5
390
100
AcDbEntity
8
OPTICORS_NAKLADACI_MUSTEK_M1_KOTY
100
AcDbLine
10
361.0000
20
-52111.0000
11
391.0000
21
-52081.0000
0
MTEXT
5
391
100
AcDbEntity
8
OPTICORS_NAKLADACI_MUSTEK_M1_KOTY
100
AcDbMText
10
295.0000
20
-50596.0000
40
90.0000
50
90.0000
71
5
1
3 000
7
OPTICORS
0
LWPOLYLINE
5
392
100
AcDbEntity
8
OPTICORS_NAKLADACI_MUSTEK_M1_BETON
100
AcDbPolyline
90
4
70
1
10
876.0000
20
-53596.0000
10
1016.0000
20
-53596.0000
10
1016.0000
20
-54596.0000
10
876.0000
20
-54596.0000
0
SOLID
5
393
100
AcDbEntity
8
OPTICORS_NAKLADACI_MUSTEK_M1_BETON
100
AcDbTrace
10
801.0000
20
-53521.0000
30
0.0
11
1091.0000
21
-53521.0000
31
0.0
12
951.0000
22
-53671.0000
32
0.0
13
941.0000
23
-53671.0000
33
0.0
0
SOLID
5
394
100
AcDbEntity
8
OPTICORS_NAKLADACI_MUSTEK_M1_BETON
100
AcDbTrace
10
1091.0000
20
-53521.0000
30
0.0
11
1091.0000
21
-54671.0000
31
0.0
12
941.0000
22
-53671.0000
32
0.0
13
941.0000
23
-54521.0000
33
0.0
0
SOLID
5
395
100
AcDbEntity
8
OPTICORS_NAKLADACI_MUSTEK_M1_BETON
100
AcDbTrace
10
1091.0000
20
-54671.0000
30
0.0
11
801.0000
21
-54671.0000
31
0.0
12
941.0000
22
-54521.0000
32
0.0
13
951.0000
23
-54521.0000
33
0.0
0
SOLID
5
396
100
AcDbEntity
8
OPTICORS_NAKLADACI_MUSTEK_M1_BETON
100
AcDbTrace
10
801.0000
20
-54671.0000
30
0.0
11
801.0000
21
-53521.0000
31
0.0
12
951.0000
22
-54521.0000
32
0.0
13
951.0000
23
-53671.0000
33
0.0
0
LWPOLYLINE
5
397
100
AcDbEntity
8
OPTICORS_NAKLADACI_MUSTEK_M1_VYZTUZ
100
AcDbPolyline
90
4
70
1
10
896.0000
20
-53616.0000
10
996.0000
20
-53616.0000
10
996.0000
20
-54576.0000
10
896.0000
20
-54576.0000
0
CIRCLE
5
398
100
AcDbEntity
8
OPTICORS_NAKLADACI_MUSTEK_M1_VYZTUZ
100
AcDbCircle
10
901.0000
20
-53846.0000
40
5.0000
0
CIRCLE
5
399
100
AcDbEntity
8
OPTICORS_NAKLADACI_MUSTEK_M1_VYZTUZ
100
AcDbCircle
10
991.0000
20
-53846.0000
40
5.0000
0
CIRCLE
5
39A
100
AcDbEntity
8
OPTICORS_NAKLADACI_MUSTEK_M1_VYZTUZ
100
AcDbCircle
10
901.0000
20
-54096.0000
40
5.0000
0
CIRCLE
5
39B
100
AcDbEntity
8
OPTICORS_NAKLADACI_MUSTEK_M1_VYZTUZ
100
AcDbCircle
10
991.0000
20
-54096.0000
40
5.0000
0
CIRCLE
5
39C
100
AcDbEntity
8
OPTICORS_NAKLADACI_MUSTEK_M1_VYZTUZ
100
AcDbCircle
10
901.0000
20
-54346.0000
40
5.0000
0
CIRCLE
5
39D
100
AcDbEntity
8
OPTICORS_NAKLADACI_MUSTEK_M1_VYZTUZ
100
AcDbCircle
10
991.0000
20
-54346.0000
40
5.0000
0
LINE
5
39E
100
AcDbEntity
8
OPTICORS_NAKLADACI_MUSTEK_M1_KOTY
100
AcDbLine
10
876.0000
20
-53096.0000
11
1016.0000
21
-53096.0000
0
LINE
5
39F
100
AcDbEntity
8
OPTICORS_NAKLADACI_MUSTEK_M1_KOTY
100
AcDbLine
10
876.0000
20
-53073.5000
11
876.0000
21
-53118.5000
0
LINE
5
3A0
100
AcDbEntity
8
OPTICORS_NAKLADACI_MUSTEK_M1_KOTY
100
AcDbLine
10
861.0000
20
-53111.0000
11
891.0000
21
-53081.0000
0
LINE
5
3A1
100
AcDbEntity
8
OPTICORS_NAKLADACI_MUSTEK_M1_KOTY
100
AcDbLine
10
1016.0000
20
-53073.5000
11
1016.0000
21
-53118.5000
0
LINE
5
3A2
100
AcDbEntity
8
OPTICORS_NAKLADACI_MUSTEK_M1_KOTY
100
AcDbLine
10
1001.0000
20
-53111.0000
11
1031.0000
21
-53081.0000
0
MTEXT
5
3A3
100
AcDbEntity
8
OPTICORS_NAKLADACI_MUSTEK_M1_KOTY
100
AcDbMText
10
946.0000
20
-53015.0000
40
90.0000
71
5
1
140
7
OPTICORS
0
LINE
5
3A4
100
AcDbEntity
8
OPTICORS_NAKLADACI_MUSTEK_M1_KOTY
100
AcDbLine
10
376.0000
20
-53596.0000
11
376.0000
21
-54596.0000
0
LINE
5
3A5
100
AcDbEntity
8
OPTICORS_NAKLADACI_MUSTEK_M1_KOTY
100
AcDbLine
10
353.5000
20
-53596.0000
11
398.5000
21
-53596.0000
0
LINE
5
3A6
100
AcDbEntity
8
OPTICORS_NAKLADACI_MUSTEK_M1_KOTY
100
AcDbLine
10
361.0000
20
-53611.0000
11
391.0000
21
-53581.0000
0
LINE
5
3A7
100
AcDbEntity
8
OPTICORS_NAKLADACI_MUSTEK_M1_KOTY
100
AcDbLine
10
353.5000
20
-54596.0000
11
398.5000
21
-54596.0000
0
LINE
5
3A8
100
AcDbEntity
8
OPTICORS_NAKLADACI_MUSTEK_M1_KOTY
100
AcDbLine
10
361.0000
20
-54611.0000
11
391.0000
21
-54581.0000
0
MTEXT
5
3A9
100
AcDbEntity
8
OPTICORS_NAKLADACI_MUSTEK_M1_KOTY
100
AcDbMText
10
295.0000
20
-54096.0000
40
90.0000
50
90.0000
71
5
1
1 000
7
OPTICORS
0
LWPOLYLINE
5
3AA
100
AcDbEntity
8
OPTICORS_RAMECEK
100
AcDbPolyline
90
4
70
1
10
0.0000
20
-54861.0000
10
7141.0000
20
-54861.0000
10
7141.0000
20
-45720.0000
10
0.0000
20
-45720.0000
0
MTEXT
5
3AB
100
AcDbEntity
8
OPTICORS_HLAVICKA
100
AcDbMText
10
0.0000
20
-45525.0000
40
120.0000
71
1
1
NAKLÁDACÍ MŮSTEK M1 — POHLEDY
7
OPTICORS
0
MTEXT
5
3AC
100
AcDbEntity
8
OPTICORS_POZNAMKA
100
AcDbMText
10
7066.0000
20
-54786.0000
40
120.0000
71
9
1
IN DEVELOPMENT
7
OPTICORS
0
MTEXT
5
3AD
100
AcDbEntity
8
OPTICORS_HLAVICKA
100
AcDbMText
10
6049.0000
20
-45525.0000
40
120.0000
71
1
1
MĚŘÍTKO  1:50
7
OPTICORS
0
MTEXT
5
3AE
100
AcDbEntity
8
OPTICORS_NAKLADACI_MUSTEK_M1_POPIS
100
AcDbMText
10
7891.0000
20
-46030.0000
40
120.0000
71
1
1
GEOMETRIE
7
OPTICORS
0
MTEXT
5
3AF
100
AcDbEntity
8
OPTICORS_NAKLADACI_MUSTEK_M1_POPIS
100
AcDbMText
10
7891.0000
20
-46180.0000
40
100.0000
71
1
1
Rozpon:  6,00 m
7
OPTICORS
0
MTEXT
5
3B0
100
AcDbEntity
8
OPTICORS_NAKLADACI_MUSTEK_M1_POPIS
100
AcDbMText
10
7891.0000
20
-46330.0000
40
100.0000
71
1
1
Čelo (š × v):  140 × 1 000 mm
7
OPTICORS
0
MTEXT
5
3B1
100
AcDbEntity
8
OPTICORS_NAKLADACI_MUSTEK_M1_POPIS
100
AcDbMText
10
7891.0000
20
-46555.0000
40
120.0000
71
1
1
MATERIÁL
7
OPTICORS
0
MTEXT
5
3B2
100
AcDbEntity
8
OPTICORS_NAKLADACI_MUSTEK_M1_POPIS
100
AcDbMText
10
7891.0000
20
-46705.0000
40
100.0000
71
1
1
Beton:  C40/50
7
OPTICORS
0
MTEXT
5
3B3
100
AcDbEntity
8
OPTICORS_NAKLADACI_MUSTEK_M1_POPIS
100
AcDbMText
10
7891.0000
20
-46855.0000
40
100.0000
71
1
1
Ocel:  B500B
7
OPTICORS
0
MTEXT
5
3B4
100
AcDbEntity
8
OPTICORS_NAKLADACI_MUSTEK_M1_POPIS
100
AcDbMText
10
7891.0000
20
-47005.0000
40
100.0000
71
1
1
Vyztužení stěn:  150 kg/m3
7
OPTICORS
0
MTEXT
5
3B5
100
AcDbEntity
8
OPTICORS_NAKLADACI_MUSTEK_M1_POPIS
100
AcDbMText
10
7891.0000
20
-47230.0000
40
120.0000
71
1
1
ČELO — VÝZTUŽ
7
OPTICORS
0
MTEXT
5
3B6
100
AcDbEntity
8
OPTICORS_NAKLADACI_MUSTEK_M1_POPIS
100
AcDbMText
10
7891.0000
20
-47380.0000
40
100.0000
71
1
1
Počet řad:  3
7
OPTICORS
0
MTEXT
5
3B7
100
AcDbEntity
8
OPTICORS_NAKLADACI_MUSTEK_M1_POPIS
100
AcDbMText
10
7891.0000
20
-47530.0000
40
100.0000
71
1
1
Rozteč řad:  250 mm
7
OPTICORS
0
MTEXT
5
3B8
100
AcDbEntity
8
OPTICORS_NAKLADACI_MUSTEK_M1_POPIS
100
AcDbMText
10
7891.0000
20
-47680.0000
40
100.0000
71
1
1
Podélná výztuž:  6× (celkem 36,0 m)
7
OPTICORS
0
MTEXT
5
3B9
100
AcDbEntity
8
OPTICORS_NAKLADACI_MUSTEK_M1_POPIS
100
AcDbMText
10
7891.0000
20
-47830.0000
40
100.0000
71
1
1
Třmínky:  21× obvod 2 160 mm
7
OPTICORS
0
MTEXT
5
3BA
100
AcDbEntity
8
OPTICORS_NAKLADACI_MUSTEK_M1_POPIS
100
AcDbMText
10
7891.0000
20
-47980.0000
40
100.0000
71
1
1
Hmotnost podélné / třmínků:  22,0 / 10,0 kg
7
OPTICORS
0
MTEXT
5
3BB
100
AcDbEntity
8
OPTICORS_NAKLADACI_MUSTEK_M1_POPIS
100
AcDbMText
10
7891.0000
20
-48130.0000
40
100.0000
71
1
1
Výztuž čela celkem:  32,0 kg
7
OPTICORS
0
MTEXT
5
3BC
100
AcDbEntity
8
OPTICORS_NAKLADACI_MUSTEK_M1_POPIS
100
AcDbMText
10
7891.0000
20
-48355.0000
40
120.0000
71
1
1
BILANCE
7
OPTICORS
0
MTEXT
5
3BD
100
AcDbEntity
8
OPTICORS_NAKLADACI_MUSTEK_M1_POPIS
100
AcDbMText
10
7891.0000
20
-48505.0000
40
100.0000
71
1
1
Objem betonu čela:  0,840 m3
7
OPTICORS
0
MTEXT
5
3BE
100
AcDbEntity
8
OPTICORS_NAKLADACI_MUSTEK_M1_POPIS
100
AcDbMText
10
7891.0000
20
-48655.0000
40
100.0000
71
1
1
Boční stěny — beton / výztuž:  1,200 m3 / 180,0 kg
7
OPTICORS
0
MTEXT
5
3BF
100
AcDbEntity
8
OPTICORS_NAKLADACI_MUSTEK_M1_POPIS
100
AcDbMText
10
7891.0000
20
-48805.0000
40
100.0000
71
1
1
Zadní stěna — beton / výztuž:  0,600 m3 / 90,0 kg
7
OPTICORS
0
MTEXT
5
3C0
100
AcDbEntity
8
OPTICORS_NAKLADACI_MUSTEK_M1_POPIS
100
AcDbMText
10
7891.0000
20
-48955.0000
40
100.0000
71
1
1
Objem betonu celkem:  2,640 m3
7
OPTICORS
0
MTEXT
5
3C1
100
AcDbEntity
8
OPTICORS_NAKLADACI_MUSTEK_M1_POPIS
100
AcDbMText
10
7891.0000
20
-49105.0000
40
100.0000
71
1
1
Výztuž celkem:  302,0 kg (0,302 t)
7
OPTICORS
0
LWPOLYLINE
5
3C2
100
AcDbEntity
8
OPTICORS_RAMECEK
100
AcDbPolyline
90
4
70
1
10
7641.0000
20
-49405.0000
10
11641.0000
20
-49405.0000
10
11641.0000
20
-45720.0000
10
7641.0000
20
-45720.0000
0
MTEXT
5
3C3
100
AcDbEntity
8
OPTICORS_HLAVICKA
100
AcDbMText
10
7641.0000
20
-45525.0000
40
120.0000
71
1
1
NAKLÁDACÍ MŮSTEK M1 — VÝSLEDKY
7
OPTICORS
0
MTEXT
5
3C4
100
AcDbEntity
8
OPTICORS_POZNAMKA
100
AcDbMText
10
11566.0000
20
-49330.0000
40
120.0000
71
9
1
IN DEVELOPMENT
7
OPTICORS
0
ENDSEC
0
EOF
