0
SECTION
2
HEADER
9
$ACADVER
1
AC1009
9
$INSUNITS
70
4
9
$DWGCODEPAGE
3
ANSI_1250
0
ENDSEC
0
SECTION
2
TABLES
0
TABLE
2
LAYER
70
3
0
LAYER
2
OPTICORS_BETON
70
0
62
7
6
CONTINUOUS
0
LAYER
2
OPTICORS_VYZTUZ
70
0
62
1
6
CONTINUOUS
0
LAYER
2
OPTICORS_KOTY
70
0
62
3
6
CONTINUOUS
0
ENDTAB
0
ENDSEC
0
SECTION
2
ENTITIES
0
TEXT
8
OPTICORS_KOTY
10
0.0000
20
400.0000
40
100.0000
1
SLOUP S1 (vidlička)
0
POLYLINE
8
OPTICORS_BETON
66
1
70
1
0
VERTEX
8
OPTICORS_BETON
10
0.0000
20
0.0000
0
VERTEX
8
OPTICORS_BETON
10
150.0000
20
0.0000
0
VERTEX
8
OPTICORS_BETON
10
150.0000
20
-200.0000
0
VERTEX
8
OPTICORS_BETON
10
250.0000
20
-200.0000
0
VERTEX
8
OPTICORS_BETON
10
250.0000
20
0.0000
0
VERTEX
8
OPTICORS_BETON
10
400.0000
20
0.0000
0
VERTEX
8
OPTICORS_BETON
10
400.0000
20
-6200.0000
0
VERTEX
8
OPTICORS_BETON
10
0.0000
20
-6200.0000
0
SEQEND
8
OPTICORS_BETON
0
LINE
8
OPTICORS_KOTY
10
0.0000
20
250.0000
11
400.0000
21
250.0000
0
LINE
8
OPTICORS_KOTY
10
0.0000
20
281.2500
11
0.0000
21
218.7500
0
LINE
8
OPTICORS_KOTY
10
-18.7500
20
231.2500
11
18.7500
21
268.7500
0
LINE
8
OPTICORS_KOTY
10
400.0000
20
281.2500
11
400.0000
21
218.7500
0
LINE
8
OPTICORS_KOTY
10
381.2500
20
231.2500
11
418.7500
21
268.7500
0
TEXT
8
OPTICORS_KOTY
10
200.0000
20
317.5000
40
75.0000
1
400
72
4
11
200.0000
21
317.5000
0
LINE
8
OPTICORS_KOTY
10
-250.0000
20
0.0000
11
-250.0000
21
-6200.0000
0
LINE
8
OPTICORS_KOTY
10
-281.2500
20
0.0000
11
-218.7500
21
0.0000
0
LINE
8
OPTICORS_KOTY
10
-268.7500
20
-18.7500
11
-231.2500
21
18.7500
0
LINE
8
OPTICORS_KOTY
10
-281.2500
20
-6200.0000
11
-218.7500
21
-6200.0000
0
LINE
8
OPTICORS_KOTY
10
-268.7500
20
-6218.7500
11
-231.2500
21
-6181.2500
0
TEXT
8
OPTICORS_KOTY
10
-317.5000
20
-3100.0000
40
75.0000
1
6 200
50
90.0000
72
4
11
-317.5000
21
-3100.0000
0
LINE
8
OPTICORS_KOTY
10
150.0000
20
125.0000
11
250.0000
21
125.0000
0
LINE
8
OPTICORS_KOTY
10
150.0000
20
156.2500
11
150.0000
21
93.7500
0
LINE
8
OPTICORS_KOTY
10
131.2500
20
106.2500
11
168.7500
21
143.7500
0
LINE
8
OPTICORS_KOTY
10
250.0000
20
156.2500
11
250.0000
21
93.7500
0
LINE
8
OPTICORS_KOTY
10
231.2500
20
106.2500
11
268.7500
21
143.7500
0
TEXT
8
OPTICORS_KOTY
10
200.0000
20
192.5000
40
75.0000
1
100
72
4
11
200.0000
21
192.5000
0
LINE
8
OPTICORS_KOTY
10
-125.0000
20
0.0000
11
-125.0000
21
-200.0000
0
LINE
8
OPTICORS_KOTY
10
-156.2500
20
0.0000
11
-93.7500
21
0.0000
0
LINE
8
OPTICORS_KOTY
10
-143.7500
20
-18.7500
11
-106.2500
21
18.7500
0
LINE
8
OPTICORS_KOTY
10
-156.2500
20
-200.0000
11
-93.7500
21
-200.0000
0
LINE
8
OPTICORS_KOTY
10
-143.7500
20
-218.7500
11
-106.2500
21
-181.2500
0
TEXT
8
OPTICORS_KOTY
10
-192.5000
20
-100.0000
40
75.0000
1
200
50
90.0000
72
4
11
-192.5000
21
-100.0000
0
POLYLINE
8
OPTICORS_BETON
66
1
70
1
0
VERTEX
8
OPTICORS_BETON
10
1250.0000
20
0.0000
0
VERTEX
8
OPTICORS_BETON
10
1450.0000
20
0.0000
0
VERTEX
8
OPTICORS_BETON
10
1450.0000
20
-6200.0000
0
VERTEX
8
OPTICORS_BETON
10
1050.0000
20
-6200.0000
0
VERTEX
8
OPTICORS_BETON
10
1050.0000
20
-200.0000
0
VERTEX
8
OPTICORS_BETON
10
1250.0000
20
-200.0000
0
SEQEND
8
OPTICORS_BETON
0
LINE
8
OPTICORS_KOTY
10
1050.0000
20
250.0000
11
1450.0000
21
250.0000
0
LINE
8
OPTICORS_KOTY
10
1050.0000
20
281.2500
11
1050.0000
21
218.7500
0
LINE
8
OPTICORS_KOTY
10
1031.2500
20
231.2500
11
1068.7500
21
268.7500
0
LINE
8
OPTICORS_KOTY
10
1450.0000
20
281.2500
11
1450.0000
21
218.7500
0
LINE
8
OPTICORS_KOTY
10
1431.2500
20
231.2500
11
1468.7500
21
268.7500
0
TEXT
8
OPTICORS_KOTY
10
1250.0000
20
317.5000
40
75.0000
1
400
72
4
11
1250.0000
21
317.5000
0
LINE
8
OPTICORS_KOTY
10
800.0000
20
0.0000
11
800.0000
21
-6200.0000
0
LINE
8
OPTICORS_KOTY
10
768.7500
20
0.0000
11
831.2500
21
0.0000
0
LINE
8
OPTICORS_KOTY
10
781.2500
20
-18.7500
11
818.7500
21
18.7500
0
LINE
8
OPTICORS_KOTY
10
768.7500
20
-6200.0000
11
831.2500
21
-6200.0000
0
LINE
8
OPTICORS_KOTY
10
781.2500
20
-6218.7500
11
818.7500
21
-6181.2500
0
TEXT
8
OPTICORS_KOTY
10
732.5000
20
-3100.0000
40
75.0000
1
6 200
50
90.0000
72
4
11
732.5000
21
-3100.0000
0
LINE
8
OPTICORS_KOTY
10
1050.0000
20
125.0000
11
1250.0000
21
125.0000
0
LINE
8
OPTICORS_KOTY
10
1050.0000
20
156.2500
11
1050.0000
21
93.7500
0
LINE
8
OPTICORS_KOTY
10
1031.2500
20
106.2500
11
1068.7500
21
143.7500
0
LINE
8
OPTICORS_KOTY
10
1250.0000
20
156.2500
11
1250.0000
21
93.7500
0
LINE
8
OPTICORS_KOTY
10
1231.2500
20
106.2500
11
1268.7500
21
143.7500
0
TEXT
8
OPTICORS_KOTY
10
1150.0000
20
192.5000
40
75.0000
1
200
72
4
11
1150.0000
21
192.5000
0
LINE
8
OPTICORS_KOTY
10
925.0000
20
0.0000
11
925.0000
21
-200.0000
0
LINE
8
OPTICORS_KOTY
10
893.7500
20
0.0000
11
956.2500
21
0.0000
0
LINE
8
OPTICORS_KOTY
10
906.2500
20
-18.7500
11
943.7500
21
18.7500
0
LINE
8
OPTICORS_KOTY
10
893.7500
20
-200.0000
11
956.2500
21
-200.0000
0
LINE
8
OPTICORS_KOTY
10
906.2500
20
-218.7500
11
943.7500
21
-181.2500
0
TEXT
8
OPTICORS_KOTY
10
857.5000
20
-100.0000
40
75.0000
1
200
50
90.0000
72
4
11
857.5000
21
-100.0000
0
POLYLINE
8
OPTICORS_BETON
66
1
70
1
0
VERTEX
8
OPTICORS_BETON
10
2100.0000
20
0.0000
0
VERTEX
8
OPTICORS_BETON
10
2500.0000
20
0.0000
0
VERTEX
8
OPTICORS_BETON
10
2500.0000
20
-400.0000
0
VERTEX
8
OPTICORS_BETON
10
2100.0000
20
-400.0000
0
SEQEND
8
OPTICORS_BETON
0
LINE
8
OPTICORS_BETON
10
2300.0000
20
0.0000
11
2300.0000
21
-400.0000
0
LINE
8
OPTICORS_BETON
10
2300.0000
20
-150.0000
11
2500.0000
21
-150.0000
0
LINE
8
OPTICORS_BETON
10
2300.0000
20
-250.0000
11
2500.0000
21
-250.0000
0
LINE
8
OPTICORS_KOTY
10
2100.0000
20
250.0000
11
2500.0000
21
250.0000
0
LINE
8
OPTICORS_KOTY
10
2100.0000
20
281.2500
11
2100.0000
21
218.7500
0
LINE
8
OPTICORS_KOTY
10
2081.2500
20
231.2500
11
2118.7500
21
268.7500
0
LINE
8
OPTICORS_KOTY
10
2500.0000
20
281.2500
11
2500.0000
21
218.7500
0
LINE
8
OPTICORS_KOTY
10
2481.2500
20
231.2500
11
2518.7500
21
268.7500
0
TEXT
8
OPTICORS_KOTY
10
2300.0000
20
317.5000
40
75.0000
1
400
72
4
11
2300.0000
21
317.5000
0
LINE
8
OPTICORS_KOTY
10
1850.0000
20
0.0000
11
1850.0000
21
-400.0000
0
LINE
8
OPTICORS_KOTY
10
1818.7500
20
0.0000
11
1881.2500
21
0.0000
0
LINE
8
OPTICORS_KOTY
10
1831.2500
20
-18.7500
11
1868.7500
21
18.7500
0
LINE
8
OPTICORS_KOTY
10
1818.7500
20
-400.0000
11
1881.2500
21
-400.0000
0
LINE
8
OPTICORS_KOTY
10
1831.2500
20
-418.7500
11
1868.7500
21
-381.2500
0
TEXT
8
OPTICORS_KOTY
10
1782.5000
20
-200.0000
40
75.0000
1
400
50
90.0000
72
4
11
1782.5000
21
-200.0000
0
LINE
8
OPTICORS_KOTY
10
2100.0000
20
125.0000
11
2300.0000
21
125.0000
0
LINE
8
OPTICORS_KOTY
10
2100.0000
20
156.2500
11
2100.0000
21
93.7500
0
LINE
8
OPTICORS_KOTY
10
2081.2500
20
106.2500
11
2118.7500
21
143.7500
0
LINE
8
OPTICORS_KOTY
10
2300.0000
20
156.2500
11
2300.0000
21
93.7500
0
LINE
8
OPTICORS_KOTY
10
2281.2500
20
106.2500
11
2318.7500
21
143.7500
0
TEXT
8
OPTICORS_KOTY
10
2200.0000
20
192.5000
40
75.0000
1
200
72
4
11
2200.0000
21
192.5000
0
LINE
8
OPTICORS_KOTY
10
1975.0000
20
-150.0000
11
1975.0000
21
-250.0000
0
LINE
8
OPTICORS_KOTY
10
1943.7500
20
-150.0000
11
2006.2500
21
-150.0000
0
LINE
8
OPTICORS_KOTY
10
1956.2500
20
-168.7500
11
1993.7500
21
-131.2500
0
LINE
8
OPTICORS_KOTY
10
1943.7500
20
-250.0000
11
2006.2500
21
-250.0000
0
LINE
8
OPTICORS_KOTY
10
1956.2500
20
-268.7500
11
1993.7500
21
-231.2500
0
TEXT
8
OPTICORS_KOTY
10
1907.5000
20
-200.0000
40
75.0000
1
100
50
90.0000
72
4
11
1907.5000
21
-200.0000
0
TEXT
8
OPTICORS_KOTY
10
3150.0000
20
-56.2500
40
90.0000
1
GEOMETRIE
0
TEXT
8
OPTICORS_KOTY
10
3150.0000
20
-168.7500
40
75.0000
1
Šířka průřezu:  400 mm
0
TEXT
8
OPTICORS_KOTY
10
3150.0000
20
-281.2500
40
75.0000
1
Hloubka průřezu:  400 mm
0
TEXT
8
OPTICORS_KOTY
10
3150.0000
20
-393.7500
40
75.0000
1
Délka sloupu:  6 200 mm
0
TEXT
8
OPTICORS_KOTY
10
3150.0000
20
-506.2500
40
75.0000
1
Vzpěrná délka l0:  12 400 mm
0
TEXT
8
OPTICORS_KOTY
10
3150.0000
20
-618.7500
40
75.0000
1
Plocha průřezu Ac:  160 000 mm2
0
TEXT
8
OPTICORS_KOTY
10
3150.0000
20
-787.5000
40
90.0000
1
MATERIÁL
0
TEXT
8
OPTICORS_KOTY
10
3150.0000
20
-900.0000
40
75.0000
1
Beton:  C40/50
0
TEXT
8
OPTICORS_KOTY
10
3150.0000
20
-1012.5000
40
75.0000
1
Ocel:  B500B
0
TEXT
8
OPTICORS_KOTY
10
3150.0000
20
-1125.0000
40
75.0000
1
fcd / fyd:  26,7 / 434,8 MPa
0
TEXT
8
OPTICORS_KOTY
10
3150.0000
20
-1293.7500
40
90.0000
1
VÝZTUŽ
0
TEXT
8
OPTICORS_KOTY
10
3150.0000
20
-1406.2500
40
75.0000
1
Dolní řada:  5× %%c28 mm, krytí 0 mm
0
TEXT
8
OPTICORS_KOTY
10
3150.0000
20
-1518.7500
40
75.0000
1
Horní řada:  5× %%c28 mm, krytí 0 mm
0
TEXT
8
OPTICORS_KOTY
10
3150.0000
20
-1631.2500
40
75.0000
1
Prutů celkem:  10
0
TEXT
8
OPTICORS_KOTY
10
3150.0000
20
-1743.7500
40
75.0000
1
Stupeň vyztužení:  3,85 %
0
TEXT
8
OPTICORS_KOTY
10
3150.0000
20
-1856.2500
40
75.0000
1
Třmínky:  %%c8 mm / rozteč 200 mm
0
TEXT
8
OPTICORS_KOTY
10
3150.0000
20
-2025.0000
40
90.0000
1
MATERIÁLOVÁ BILANCE
0
TEXT
8
OPTICORS_KOTY
10
3150.0000
20
-2137.5000
40
75.0000
1
Objem betonu:  0,992 m3
0
TEXT
8
OPTICORS_KOTY
10
3150.0000
20
-2250.0000
40
75.0000
1
Hmotnost betonu:  2 480 kg
0
TEXT
8
OPTICORS_KOTY
10
3150.0000
20
-2362.5000
40
75.0000
1
Podélná výztuž:  300,0 kg
0
TEXT
8
OPTICORS_KOTY
10
3150.0000
20
-2475.0000
40
75.0000
1
Třmínky:  32 ks, 51,2 m
0
TEXT
8
OPTICORS_KOTY
10
3150.0000
20
-2587.5000
40
75.0000
1
Ocel celkem:  320,3 kg
0
TEXT
8
OPTICORS_KOTY
10
3150.0000
20
-2700.0000
40
75.0000
1
Hmotnost sloupu:  2 800 kg
0
TEXT
8
OPTICORS_KOTY
10
3150.0000
20
-2812.5000
40
75.0000
1
Vlastní tíha G:  27,47 kN
0
TEXT
8
OPTICORS_KOTY
10
3150.0000
20
-2981.2500
40
90.0000
1
POSOUZENÍ
0
TEXT
8
OPTICORS_KOTY
10
3150.0000
20
-3093.7500
40
75.0000
1
Návrhový moment MEd:  170,29 kNm
0
TEXT
8
OPTICORS_KOTY
10
3150.0000
20
-3206.2500
40
75.0000
1
Únosnost MRd:  423,50 kNm
0
TEXT
8
OPTICORS_KOTY
10
3150.0000
20
-3318.7500
40
75.0000
1
Využití:  40,2 %
0
TEXT
8
OPTICORS_KOTY
10
3150.0000
20
-3431.2500
40
75.0000
1
Vyhovuje:  ANO
0
ENDSEC
0
EOF
